<mxfile host="app.diagrams.net" modified="2023-10-02T13:59:51.158Z" agent="Mozilla/5.0 (Windows NT 10.0; Win64; x64) AppleWebKit/537.36 (KHTML, like Gecko) Chrome/117.0.0.0 Safari/537.36" etag="oQ8ISPrD4f1edJM6Bzxz" version="21.7.4" type="github">
  <diagram name="第 1 页" id="xR9Ap1yNc7HMdD3Wd91Z">
    <mxGraphModel dx="3191" dy="1720" grid="1" gridSize="10" guides="1" tooltips="1" connect="1" arrows="1" fold="1" page="1" pageScale="0.5" pageWidth="827" pageHeight="1169" math="0" shadow="0">
      <root>
        <mxCell id="0" />
        <mxCell id="1" parent="0" />
        <mxCell id="h8BnkVaSkNDdI-Pgu3pd-206" value="" style="rounded=0;whiteSpace=wrap;html=1;strokeColor=default;fillColor=none;dashed=1;strokeWidth=1.5;" parent="1" vertex="1">
          <mxGeometry x="857" y="40" width="750" height="880" as="geometry" />
        </mxCell>
        <mxCell id="h8BnkVaSkNDdI-Pgu3pd-1" value="&lt;font size=&quot;1&quot; color=&quot;#ffffff&quot; data-font-src=&quot;https://fonts.googleapis.com/css?family=Arial&quot; face=&quot;Arial&quot; style=&quot;&quot;&gt;&lt;b style=&quot;font-size: 20px;&quot;&gt;ITS_LIVE 120m ice velocity image pairs&lt;/b&gt;&lt;/font&gt;&lt;font color=&quot;#ffffff&quot; style=&quot;font-size: 20px;&quot; face=&quot;Times New Roman&quot;&gt;&lt;b&gt;&lt;br&gt;&lt;/b&gt;&lt;/font&gt;" style="rounded=1;whiteSpace=wrap;html=1;fontSize=12;glass=0;strokeWidth=1;shadow=0;fillColor=#16a690;strokeColor=none;labelBackgroundColor=none;" parent="1" vertex="1">
          <mxGeometry x="339.4" y="106" width="196" height="64" as="geometry" />
        </mxCell>
        <mxCell id="h8BnkVaSkNDdI-Pgu3pd-2" value="" style="endArrow=classic;html=1;rounded=0;exitX=0.5;exitY=1;exitDx=0;exitDy=0;entryX=0.5;entryY=0;entryDx=0;entryDy=0;" parent="1" source="h8BnkVaSkNDdI-Pgu3pd-1" target="h8BnkVaSkNDdI-Pgu3pd-11" edge="1">
          <mxGeometry width="50" height="50" relative="1" as="geometry">
            <mxPoint x="507.9" y="548" as="sourcePoint" />
            <mxPoint x="437.9" y="354" as="targetPoint" />
          </mxGeometry>
        </mxCell>
        <mxCell id="h8BnkVaSkNDdI-Pgu3pd-4" value="" style="group;strokeColor=none;strokeWidth=4;" parent="1" vertex="1" connectable="0">
          <mxGeometry x="548.87" y="154" width="233" height="192" as="geometry" />
        </mxCell>
        <mxCell id="h8BnkVaSkNDdI-Pgu3pd-5" style="edgeStyle=orthogonalEdgeStyle;rounded=0;orthogonalLoop=1;jettySize=auto;html=1;exitX=0;exitY=0.5;exitDx=0;exitDy=0;" parent="h8BnkVaSkNDdI-Pgu3pd-4" source="h8BnkVaSkNDdI-Pgu3pd-6" edge="1">
          <mxGeometry relative="1" as="geometry">
            <mxPoint x="-109" y="96" as="targetPoint" />
          </mxGeometry>
        </mxCell>
        <mxCell id="h8BnkVaSkNDdI-Pgu3pd-6" value="&lt;span style=&quot;color: rgb(0, 0, 0); font-style: normal; font-variant-ligatures: normal; font-variant-caps: normal; letter-spacing: normal; orphans: 2; text-indent: 0px; text-transform: none; widows: 2; word-spacing: 0px; -webkit-text-stroke-width: 0px; background-color: rgb(251, 251, 251); text-decoration-thickness: initial; text-decoration-style: initial; text-decoration-color: initial; float: none; display: inline !important;&quot;&gt;&lt;font data-font-src=&quot;https://fonts.googleapis.com/css?family=Arial&quot; face=&quot;Arial&quot; style=&quot;font-size: 18px;&quot;&gt;&lt;b style=&quot;&quot;&gt;Filtering&lt;/b&gt;&lt;/font&gt;&lt;/span&gt;" style="text;whiteSpace=wrap;html=1;align=center;dashed=1;strokeColor=#97D077;fillColor=none;strokeWidth=1.2;" parent="h8BnkVaSkNDdI-Pgu3pd-4" vertex="1">
          <mxGeometry width="233" height="192" as="geometry" />
        </mxCell>
        <mxCell id="h8BnkVaSkNDdI-Pgu3pd-7" value="&lt;b&gt;&lt;font style=&quot;font-size: 14px;&quot;&gt;From October to March &lt;br&gt;of the following year&lt;/font&gt;&lt;/b&gt;" style="rounded=0;whiteSpace=wrap;html=1;fillColor=#d5e8d4;strokeColor=#82b366;" parent="h8BnkVaSkNDdI-Pgu3pd-4" vertex="1">
          <mxGeometry x="16.5" y="90" width="200" height="41" as="geometry" />
        </mxCell>
        <mxCell id="h8BnkVaSkNDdI-Pgu3pd-8" value="&lt;b&gt;&lt;font style=&quot;font-size: 14px;&quot; data-font-src=&quot;https://fonts.googleapis.com/css?family=Arial&quot; face=&quot;Arial&quot;&gt;Temporal baselines&lt;/font&gt;&lt;/b&gt;&lt;font style=&quot;font-size: 16px;&quot; face=&quot;Times New Roman&quot;&gt;&lt;b style=&quot;&quot;&gt;：&lt;br&gt;&amp;lt; 33 days&lt;/b&gt;&lt;/font&gt;" style="rounded=0;whiteSpace=wrap;html=1;fillColor=#d5e8d4;strokeColor=#82b366;" parent="h8BnkVaSkNDdI-Pgu3pd-4" vertex="1">
          <mxGeometry x="16.5" y="140" width="200" height="41" as="geometry" />
        </mxCell>
        <mxCell id="h8BnkVaSkNDdI-Pgu3pd-128" value="&lt;font data-font-src=&quot;https://fonts.googleapis.com/css?family=Arial&quot; face=&quot;Arial&quot; style=&quot;font-size: 16px;&quot;&gt;&lt;b style=&quot;&quot;&gt;2013-2022&lt;/b&gt;&lt;/font&gt;" style="rounded=0;whiteSpace=wrap;html=1;fillColor=#d5e8d4;strokeColor=#82b366;" parent="h8BnkVaSkNDdI-Pgu3pd-4" vertex="1">
          <mxGeometry x="16.5" y="40" width="200" height="41" as="geometry" />
        </mxCell>
        <mxCell id="h8BnkVaSkNDdI-Pgu3pd-10" style="edgeStyle=orthogonalEdgeStyle;rounded=0;orthogonalLoop=1;jettySize=auto;html=1;exitX=0.5;exitY=1;exitDx=0;exitDy=0;" parent="1" source="h8BnkVaSkNDdI-Pgu3pd-11" target="h8BnkVaSkNDdI-Pgu3pd-20" edge="1">
          <mxGeometry relative="1" as="geometry" />
        </mxCell>
        <mxCell id="h8BnkVaSkNDdI-Pgu3pd-11" value="&lt;p style=&quot;border-color: var(--border-color); margin-top: 0pt; margin-bottom: 0pt; margin-left: 0in; direction: ltr; unicode-bidi: embed; word-break: normal; font-size: 20px;&quot;&gt;&lt;font data-font-src=&quot;https://fonts.googleapis.com/css?family=Arial&quot; face=&quot;Arial&quot; style=&quot;font-size: 20px;&quot; color=&quot;#ffffff&quot;&gt;&lt;b style=&quot;border-color: var(--border-color); background-color: initial;&quot;&gt;&lt;br&gt;&lt;/b&gt;&lt;/font&gt;&lt;/p&gt;&lt;p style=&quot;border-color: var(--border-color); margin-top: 0pt; margin-bottom: 0pt; margin-left: 0in; direction: ltr; unicode-bidi: embed; word-break: normal; font-size: 20px;&quot;&gt;&lt;font data-font-src=&quot;https://fonts.googleapis.com/css?family=Arial&quot; face=&quot;Arial&quot; style=&quot;font-size: 20px;&quot; color=&quot;#ffffff&quot;&gt;&lt;b style=&quot;border-color: var(--border-color); background-color: initial;&quot;&gt;Culling（T=1.5）&lt;/b&gt;&lt;br style=&quot;border-color: var(--border-color);&quot;&gt;&lt;/font&gt;&lt;/p&gt;&lt;p style=&quot;border-color: var(--border-color); margin-top: 0pt; margin-bottom: 0pt; margin-left: 0in; direction: ltr; unicode-bidi: embed; word-break: normal; font-size: 20px;&quot;&gt;&lt;br&gt;&lt;/p&gt;" style="shape=parallelogram;perimeter=parallelogramPerimeter;whiteSpace=wrap;html=1;fixedSize=1;fillColor=#16a690;strokeColor=none;align=center;" parent="1" vertex="1">
          <mxGeometry x="344.65" y="392" width="185.5" height="50" as="geometry" />
        </mxCell>
        <mxCell id="h8BnkVaSkNDdI-Pgu3pd-19" value="" style="edgeStyle=orthogonalEdgeStyle;rounded=0;orthogonalLoop=1;jettySize=auto;html=1;" parent="1" source="h8BnkVaSkNDdI-Pgu3pd-20" target="h8BnkVaSkNDdI-Pgu3pd-30" edge="1">
          <mxGeometry relative="1" as="geometry" />
        </mxCell>
        <mxCell id="h8BnkVaSkNDdI-Pgu3pd-20" value="&lt;span style=&quot;border-color: var(--border-color);&quot;&gt;&lt;font color=&quot;#ffffff&quot; style=&quot;&quot;&gt;&lt;font style=&quot;&quot; data-font-src=&quot;https://fonts.googleapis.com/css?family=Arial&quot; face=&quot;Arial&quot;&gt;&lt;font style=&quot;&quot;&gt;&lt;b style=&quot;&quot;&gt;&lt;font style=&quot;font-size: 20px;&quot;&gt;Geolocation bias correction&lt;/font&gt;&lt;br&gt;&lt;/b&gt;&lt;/font&gt;&lt;/font&gt;&lt;/font&gt;&lt;/span&gt;" style="shape=document;whiteSpace=wrap;html=1;boundedLbl=1;size=0.16177957532861437;fillColor=#16a690;strokeColor=none;" parent="1" vertex="1">
          <mxGeometry x="357.28" y="497.5" width="160.25" height="69.5" as="geometry" />
        </mxCell>
        <mxCell id="h8BnkVaSkNDdI-Pgu3pd-21" value="" style="group;strokeWidth=2;" parent="1" vertex="1" connectable="0">
          <mxGeometry x="125.9" y="228" width="289" height="118" as="geometry" />
        </mxCell>
        <mxCell id="h8BnkVaSkNDdI-Pgu3pd-22" style="edgeStyle=orthogonalEdgeStyle;rounded=0;orthogonalLoop=1;jettySize=auto;html=1;exitX=1;exitY=0.5;exitDx=0;exitDy=0;" parent="h8BnkVaSkNDdI-Pgu3pd-21" source="h8BnkVaSkNDdI-Pgu3pd-23" edge="1">
          <mxGeometry relative="1" as="geometry">
            <mxPoint x="312.9565217391305" y="58.73913043478274" as="targetPoint" />
          </mxGeometry>
        </mxCell>
        <mxCell id="h8BnkVaSkNDdI-Pgu3pd-23" value="&lt;b style=&quot;border-color: var(--border-color); color: rgb(0, 0, 0); font-size: 18px; font-style: normal; font-variant-ligatures: normal; font-variant-caps: normal; letter-spacing: normal; orphans: 2; text-indent: 0px; text-transform: none; widows: 2; word-spacing: 0px; -webkit-text-stroke-width: 0px; background-color: rgb(251, 251, 251); text-decoration-thickness: initial; text-decoration-style: initial; text-decoration-color: initial;&quot;&gt;&lt;font data-font-src=&quot;https://fonts.googleapis.com/css?family=Arial&quot; face=&quot;Arial&quot;&gt;Stacking&lt;/font&gt;&lt;/b&gt;" style="text;whiteSpace=wrap;html=1;align=center;strokeColor=#97D077;dashed=1;strokeWidth=1.2;" parent="h8BnkVaSkNDdI-Pgu3pd-21" vertex="1">
          <mxGeometry x="20" width="226" height="118" as="geometry" />
        </mxCell>
        <mxCell id="h8BnkVaSkNDdI-Pgu3pd-129" value="&lt;b style=&quot;&quot;&gt;&lt;font style=&quot;font-size: 16px;&quot; data-font-src=&quot;https://fonts.googleapis.com/css?family=Arial&quot; face=&quot;Arial&quot;&gt;Reference velocity&lt;br&gt;&lt;/font&gt;&lt;font style=&quot;font-size: 12px;&quot; data-font-src=&quot;https://fonts.googleapis.com/css?family=Arial&quot; face=&quot;Arial&quot;&gt;（&lt;/font&gt;&lt;font style=&quot;font-size: 12px;&quot;&gt;Rignot et al., 2017&lt;/font&gt;&lt;font style=&quot;font-size: 12px;&quot; data-font-src=&quot;https://fonts.googleapis.com/css?family=Arial&quot; face=&quot;Arial&quot;&gt;）&lt;/font&gt;&lt;/b&gt;" style="rounded=0;whiteSpace=wrap;html=1;fillColor=#d5e8d4;strokeColor=#82b366;" parent="h8BnkVaSkNDdI-Pgu3pd-21" vertex="1">
          <mxGeometry x="42" y="45.5" width="183" height="52.01" as="geometry" />
        </mxCell>
        <mxCell id="h8BnkVaSkNDdI-Pgu3pd-29" value="" style="edgeStyle=orthogonalEdgeStyle;rounded=0;orthogonalLoop=1;jettySize=auto;html=1;" parent="1" source="h8BnkVaSkNDdI-Pgu3pd-30" target="h8BnkVaSkNDdI-Pgu3pd-37" edge="1">
          <mxGeometry relative="1" as="geometry" />
        </mxCell>
        <mxCell id="h8BnkVaSkNDdI-Pgu3pd-30" value="&lt;p style=&quot;border-color: var(--border-color); margin-top: 0pt; margin-bottom: 0pt; margin-left: 0in; direction: ltr; unicode-bidi: embed; word-break: normal;&quot;&gt;&lt;font size=&quot;1&quot; style=&quot;&quot; color=&quot;#ffffff&quot; data-font-src=&quot;https://fonts.googleapis.com/css?family=Arial&quot; face=&quot;Arial&quot;&gt;&lt;b style=&quot;font-size: 20px;&quot;&gt;Eliminate spatially coherent errors(T=1)&lt;/b&gt;&lt;/font&gt;&lt;br&gt;&lt;/p&gt;" style="shape=parallelogram;perimeter=parallelogramPerimeter;whiteSpace=wrap;html=1;fixedSize=1;fillColor=#16a690;strokeColor=none;align=center;" parent="1" vertex="1">
          <mxGeometry x="329.65" y="620" width="215.5" height="64" as="geometry" />
        </mxCell>
        <mxCell id="h8BnkVaSkNDdI-Pgu3pd-236" style="edgeStyle=orthogonalEdgeStyle;rounded=0;orthogonalLoop=1;jettySize=auto;html=1;exitX=0.5;exitY=1;exitDx=0;exitDy=0;" parent="1" source="h8BnkVaSkNDdI-Pgu3pd-37" target="h8BnkVaSkNDdI-Pgu3pd-235" edge="1">
          <mxGeometry relative="1" as="geometry">
            <Array as="points">
              <mxPoint x="437" y="890" />
              <mxPoint x="850" y="890" />
            </Array>
          </mxGeometry>
        </mxCell>
        <mxCell id="h8BnkVaSkNDdI-Pgu3pd-37" value="&lt;font style=&quot;font-size: 20px;&quot; data-font-src=&quot;https://fonts.googleapis.com/css?family=Arial&quot; face=&quot;Arial&quot;&gt;&lt;br&gt;&lt;/font&gt;&lt;p style=&quot;border-color: var(--border-color); margin-top: 0pt; margin-bottom: 0pt; margin-left: 0in; direction: ltr; unicode-bidi: embed; word-break: normal; font-size: 20px;&quot;&gt;&lt;font data-font-src=&quot;https://fonts.googleapis.com/css?family=Arial&quot; face=&quot;Arial&quot; style=&quot;border-color: var(--border-color); font-size: 20px;&quot; color=&quot;#ffffff&quot;&gt;&lt;b style=&quot;border-color: var(--border-color); background-color: initial;&quot;&gt;&lt;br&gt;&lt;/b&gt;&lt;/font&gt;&lt;/p&gt;&lt;p style=&quot;border-color: var(--border-color); margin-top: 0pt; margin-bottom: 0pt; margin-left: 0in; direction: ltr; unicode-bidi: embed; word-break: normal; font-size: 20px;&quot;&gt;&lt;font data-font-src=&quot;https://fonts.googleapis.com/css?family=Arial&quot; face=&quot;Arial&quot; style=&quot;border-color: var(--border-color); font-size: 20px;&quot; color=&quot;#ffffff&quot;&gt;&lt;b style=&quot;border-color: var(--border-color); background-color: initial;&quot;&gt;Monthly ice velocity and validation results&lt;/b&gt;&lt;/font&gt;&lt;/p&gt;&lt;p style=&quot;border-color: var(--border-color); margin-top: 0pt; margin-bottom: 0pt; margin-left: 0in; direction: ltr; unicode-bidi: embed; word-break: normal;&quot;&gt;&lt;font data-font-src=&quot;https://fonts.googleapis.com/css?family=Arial&quot; face=&quot;Arial&quot; style=&quot;border-color: var(--border-color);&quot; color=&quot;#ffffff&quot;&gt;&lt;b style=&quot;border-color: var(--border-color); background-color: initial;&quot;&gt;&lt;font style=&quot;font-size: 14px;&quot;&gt;Fig. 3&lt;/font&gt;&lt;br&gt;&lt;/b&gt;&lt;br&gt;&lt;/font&gt;&lt;/p&gt;&lt;p style=&quot;border-color: var(--border-color); margin-top: 0pt; margin-bottom: 0pt; margin-left: 0in; direction: ltr; unicode-bidi: embed; word-break: normal; font-size: 20px;&quot;&gt;&lt;br style=&quot;border-color: var(--border-color);&quot;&gt;&lt;/p&gt;" style="ellipse;whiteSpace=wrap;html=1;strokeColor=none;fillColor=#16a690;" parent="1" vertex="1">
          <mxGeometry x="327" y="780" width="220" height="86" as="geometry" />
        </mxCell>
        <mxCell id="h8BnkVaSkNDdI-Pgu3pd-145" style="edgeStyle=orthogonalEdgeStyle;rounded=0;orthogonalLoop=1;jettySize=auto;html=1;entryX=0.5;entryY=0;entryDx=0;entryDy=0;" parent="1" source="h8BnkVaSkNDdI-Pgu3pd-84" target="h8BnkVaSkNDdI-Pgu3pd-94" edge="1">
          <mxGeometry relative="1" as="geometry" />
        </mxCell>
        <mxCell id="h8BnkVaSkNDdI-Pgu3pd-84" value="&lt;font data-font-src=&quot;https://fonts.googleapis.com/css?family=Arial&quot; face=&quot;Arial&quot; color=&quot;#ffffff&quot;&gt;&lt;span style=&quot;font-size: 18px;&quot;&gt;&lt;b style=&quot;&quot;&gt;ALOS-2 &lt;br&gt;SLC image pairs&lt;/b&gt;&lt;/span&gt;&lt;/font&gt;" style="rounded=1;whiteSpace=wrap;html=1;fontSize=12;glass=0;strokeWidth=1;shadow=0;fillColor=#0096c7;strokeColor=none;" parent="1" vertex="1">
          <mxGeometry x="1096.5" y="101.75" width="196" height="58.25" as="geometry" />
        </mxCell>
        <mxCell id="h8BnkVaSkNDdI-Pgu3pd-87" value="" style="group" parent="1" vertex="1" connectable="0">
          <mxGeometry x="1306" y="124" width="233" height="192" as="geometry" />
        </mxCell>
        <mxCell id="h8BnkVaSkNDdI-Pgu3pd-88" style="edgeStyle=orthogonalEdgeStyle;rounded=0;orthogonalLoop=1;jettySize=auto;html=1;exitX=0;exitY=0.5;exitDx=0;exitDy=0;" parent="h8BnkVaSkNDdI-Pgu3pd-87" source="h8BnkVaSkNDdI-Pgu3pd-89" edge="1">
          <mxGeometry relative="1" as="geometry">
            <mxPoint x="-109" y="96" as="targetPoint" />
            <Array as="points">
              <mxPoint y="96" />
              <mxPoint x="-54" y="96" />
              <mxPoint x="-109" y="97" />
            </Array>
          </mxGeometry>
        </mxCell>
        <mxCell id="h8BnkVaSkNDdI-Pgu3pd-89" value="&lt;span style=&quot;color: rgb(0, 0, 0); font-style: normal; font-variant-ligatures: normal; font-variant-caps: normal; letter-spacing: normal; orphans: 2; text-indent: 0px; text-transform: none; widows: 2; word-spacing: 0px; -webkit-text-stroke-width: 0px; background-color: rgb(251, 251, 251); text-decoration-thickness: initial; text-decoration-style: initial; text-decoration-color: initial; float: none; display: inline !important;&quot;&gt;&lt;font data-font-src=&quot;https://fonts.googleapis.com/css?family=Arial&quot; face=&quot;Arial&quot; style=&quot;font-size: 18px;&quot;&gt;&lt;b style=&quot;&quot;&gt;Data filtering&lt;/b&gt;&lt;/font&gt;&lt;/span&gt;" style="text;whiteSpace=wrap;html=1;align=center;dashed=1;strokeColor=#3333FF;" parent="h8BnkVaSkNDdI-Pgu3pd-87" vertex="1">
          <mxGeometry y="26" width="233" height="140" as="geometry" />
        </mxCell>
        <mxCell id="h8BnkVaSkNDdI-Pgu3pd-90" value="&lt;font data-font-src=&quot;https://fonts.googleapis.com/css?family=Arial&quot; face=&quot;Arial&quot; style=&quot;font-size: 16px;&quot;&gt;&lt;b style=&quot;&quot;&gt;Orbit data&lt;/b&gt;&lt;/font&gt;" style="rounded=0;whiteSpace=wrap;html=1;fillColor=#dae8fc;strokeColor=#6c8ebf;" parent="h8BnkVaSkNDdI-Pgu3pd-87" vertex="1">
          <mxGeometry x="16.5" y="111" width="200" height="41" as="geometry" />
        </mxCell>
        <mxCell id="h8BnkVaSkNDdI-Pgu3pd-92" value="&lt;font style=&quot;font-size: 16px;&quot;&gt;&lt;b style=&quot;&quot;&gt;&lt;font data-font-src=&quot;https://fonts.googleapis.com/css?family=Arial&quot; face=&quot;Arial&quot;&gt;DEM&lt;br&gt;(Howat et al., 2022)&lt;/font&gt;&lt;br&gt;&lt;/b&gt;&lt;/font&gt;" style="rounded=0;whiteSpace=wrap;html=1;fillColor=#dae8fc;strokeColor=#6c8ebf;" parent="h8BnkVaSkNDdI-Pgu3pd-87" vertex="1">
          <mxGeometry x="16.5" y="64" width="200" height="41" as="geometry" />
        </mxCell>
        <mxCell id="h8BnkVaSkNDdI-Pgu3pd-94" value="&lt;p style=&quot;border-color: var(--border-color); margin-top: 0pt; margin-bottom: 0pt; margin-left: 0in; direction: ltr; unicode-bidi: embed; word-break: normal;&quot;&gt;&lt;b style=&quot;border-color: var(--border-color);&quot;&gt;&lt;font data-font-src=&quot;https://fonts.googleapis.com/css?family=Arial&quot; face=&quot;Arial&quot; style=&quot;font-size: 22px;&quot; color=&quot;#ffffff&quot;&gt;Offset tracking&lt;/font&gt;&lt;/b&gt;&lt;br&gt;&lt;/p&gt;" style="shape=parallelogram;perimeter=parallelogramPerimeter;whiteSpace=wrap;html=1;fixedSize=1;fillColor=#0096c7;strokeColor=none;align=center;" parent="1" vertex="1">
          <mxGeometry x="1092.5" y="248" width="204" height="50" as="geometry" />
        </mxCell>
        <mxCell id="h8BnkVaSkNDdI-Pgu3pd-137" value="" style="group;strokeColor=none;strokeWidth=4;" parent="1" vertex="1" connectable="0">
          <mxGeometry x="554" y="682" width="233" height="192" as="geometry" />
        </mxCell>
        <mxCell id="h8BnkVaSkNDdI-Pgu3pd-173" value="" style="group" parent="h8BnkVaSkNDdI-Pgu3pd-137" vertex="1" connectable="0">
          <mxGeometry x="-454" y="-2" width="221.81" height="160" as="geometry" />
        </mxCell>
        <mxCell id="h8BnkVaSkNDdI-Pgu3pd-177" style="edgeStyle=orthogonalEdgeStyle;rounded=0;orthogonalLoop=1;jettySize=auto;html=1;" parent="h8BnkVaSkNDdI-Pgu3pd-173" source="h8BnkVaSkNDdI-Pgu3pd-139" edge="1">
          <mxGeometry relative="1" as="geometry">
            <mxPoint x="336.132587553648" y="75" as="targetPoint" />
            <Array as="points">
              <mxPoint x="278.9284549356223" y="75" />
              <mxPoint x="278.9284549356223" y="75" />
            </Array>
          </mxGeometry>
        </mxCell>
        <mxCell id="h8BnkVaSkNDdI-Pgu3pd-139" value="&lt;font size=&quot;1&quot; data-font-src=&quot;https://fonts.googleapis.com/css?family=Arial&quot; face=&quot;Arial&quot; style=&quot;&quot;&gt;&lt;b style=&quot;font-size: 18px;&quot;&gt;Error estimation and&lt;br/&gt;validation&lt;/b&gt;&lt;/font&gt;" style="text;whiteSpace=wrap;html=1;align=center;dashed=1;strokeColor=#97D077;fillColor=none;strokeWidth=1.2;" parent="h8BnkVaSkNDdI-Pgu3pd-173" vertex="1">
          <mxGeometry width="221.81" height="160" as="geometry" />
        </mxCell>
        <mxCell id="h8BnkVaSkNDdI-Pgu3pd-140" value="&lt;b style=&quot;&quot;&gt;&lt;font data-font-src=&quot;https://fonts.googleapis.com/css?family=Arial&quot; face=&quot;Arial&quot; style=&quot;font-size: 16px;&quot;&gt;Validation data&lt;br&gt;&lt;/font&gt;&lt;/b&gt;&lt;b style=&quot;border-color: var(--border-color); font-family: Arial;&quot;&gt;(&lt;b style=&quot;border-color: var(--border-color); font-family: Helvetica;&quot;&gt;&lt;font style=&quot;border-color: var(--border-color);&quot;&gt;Rignot et al., 2017&lt;/font&gt;&lt;/b&gt;）&lt;/b&gt;&lt;b style=&quot;&quot;&gt;&lt;font data-font-src=&quot;https://fonts.googleapis.com/css?family=Arial&quot; face=&quot;Arial&quot; style=&quot;font-size: 16px;&quot;&gt;&lt;br&gt;&lt;/font&gt;&lt;/b&gt;" style="rounded=0;whiteSpace=wrap;html=1;fillColor=#d5e8d4;strokeColor=#82b366;" parent="h8BnkVaSkNDdI-Pgu3pd-173" vertex="1">
          <mxGeometry x="18.43974120171674" y="107" width="190.39484978540773" height="41" as="geometry" />
        </mxCell>
        <mxCell id="h8BnkVaSkNDdI-Pgu3pd-144" value="" style="shape=image;verticalLabelPosition=bottom;labelBackgroundColor=default;verticalAlign=top;aspect=fixed;imageAspect=0;image=data:image/png,iVBORw0KGgoAAAANSUhEUgAABckAAADkCAYAAABDo6yvAAAgAElEQVR4Ae2dga7upo5G+/4v3RGzr3u8fWwwARJIFtIIMPZns6DZf9FV559/aRCAAAQgAAEIQAACEIAABCAAAQhAAAIQgAAEIACBjxL456P7ZtsQeITAP//886/83yMFkHQ5ATnf0tMgAAEIQAACEIDAmwjwO+c9p8lZvucs2QkEIAABCMwhwCvOHI6oQKBJQP8QlXEzCIejCMi56v6oDVAsBCAAAQhAAAIQcAjo3zZ67LhiOoCAPkMZH1A2JUIAAhCAAASWEuCRfClexCHwh4D8ANX9n1VGbyCgz1bGb9gXe4AABCAAAQhA4NsE5HeN7b9N5dzd23MscxoEIAABCEDg6wT4a/j1G8D+byPAj9HbUD+WiDN+DD2JIQABCEAAAhBYSMD7jcPD6kLgi6W981ycEnkIQAACEIDA9gR4JN/+iCjwLQT4MfqWk4z3wRnHbFiBAAQgAAEIQOBcAt5vnGKjnUnAO88zd0LVEIAABCAAgXkE+GUzjyVKEKgS4MdoFc8rFjnjVxwjm4AABCAAAQhAwBDwfuMUG+1MAt55nrkTqoYABCAAAQjMI8Avm3ksUYJAlQA/Rqt4XrHIGb/iGNkEBCAAAQhAAAKGgPcbp9hoZxLwzvPMnVA1BCAAAQhAYB4BftnMY4kSBKoE+DFaxfOKRc74FcfIJiAAAQhAAAIQMAS83zjFRjuTgHeeZ+7ke1Xzz933zpwdQwAC9xHgl819rMn0cQIn/BiVGj9+VJe3L/x0f1mMwFsJyJndmpRkEIAABCAAgUMIyN9J2+9WvtS3W1271SOcdL9bjdTjE5Az81exQgACEIDACAEeyUfoEQuBDgLyg0b3HeHLXXVdZUzrJ2AZwrGf4RMR9tyeqIGcEIAABCAAgZ0J2L+VMt+pZqlJ+p1q260WYaT73Wqknr8J6PMqYxoEIAABCMwlwJd1Lk/UIBASsD9qdvph49W2U30h1M0WPI6blUg5hoB3Ztx9A4kpBCAAAQh8nsDufy93r2+3C+Tx2q1G6vlNwDuzYqNBAAIQgMA8AnxV57FECQJVAt4Pm2rATYteXdp2UxmvSKO5yfgVG3vpJuSMov6l22ZbEIAABCAAgW4CO/+tjGoTe/dmPxAgbHT/gW0fu0V9Tt742I1ROAQgAIHNCPBIvtmBUM57Cez4g8arybO991Tm7gx2c3muVPPOyrOtrAFtCEAAAhCAwCkEvL+RxfZ0i+qy9qfr3C2/5bPDWe7GaJd6vLPybLvUSx0QgAAETibw/C+bk+lROwQ6COz2Y8arp2br2OpnXT1+n4Wx8ca9c6rZNt4KpUEAAhCAAARuIRD9nbwleZAkqimyBzKfNHuMPgli801751Szbb4dyoMABCCwPQEeybc/Igp8CwHvB81Te/NqydqeqvmEvB7DE+r+Uo3eGWVsX2LEXiEAAQhAAAKWQPS30vrdNY/qadnvqm/3PB6n3Wv+Wn3eGWVsX+PEfiEAAQjMJMAj+UyaaEGgQsD7UVNxX7bk1dFrW1bc4cIex8O39KryvfPpsb0KBpuBAAQgAAEIdBCI/l52SExzjWrJ2qcVcrCQx+rg7byudO98emyvA8KGIAABCNxEgEfym0CTBgLeD5u7qXg1WFupydq8+d21n5APTvueknc22sa93/fsqAwCEIDAnQTs34Y7c++cS3PR47tr1rmjcakpWhP73XXvlk846H63Gr9ajz4TbyxcvDVtEz96CEAAAhDIE+CRPM8KTwgMEdA/WmQ8JNgZLDlrvZas+cma9mfs/wsZXJ4nIPc16m2FkZ/YrT9zCEAAAhA4n4B843V//q7m7UBz0eN5GdpKOq83tgqej7ZZ/y/NNQcZf2n/u+5VziLqbd2Rn9itP3MIQAACEKgT4JG8zodVCEwjID9WdD9NvCGkc0ZjTyLy1XYv7qs2zUXGX2Wxy77lHKI+qjPyF3sUhx0CEIAABM4kIN9325+5m/lVWy4yn5/JV5R8Ue9H+f8DBq0Rxb3drhnI+O173n1/cg5RH9Uf+Ys9isMOAQhAAAJ/E+CR/G8mWCCwhID8UNH9kkRGVOfzxsb9r6kXY21/BX3UYLmUOe05At55aFurMu3rjVvxrEMAAhCAwDkEvO98sdF+CDzJJ8ot9tYZiV/Ut+LfuO6xeOM+T9mTdx7a1tqH9vXGrXjWIQABCEDghwC//LgJELiJwBM/WLyc2tazdR3njXu03uoLl31O1jsLbctWqmO8cVYHPwhAAAIQ2JuA940vNtoPgaf4RHnFnj0f8Y/6rM5b/DwOb9nbafvwzkLbsvvRMd44q4MfBCAAgS8T4Jffl0+fvd9K4O4fK14+bbuyeR3vja9ovikGJnucpncO2tZbpY71xr16+EMAAhCAwH4EvO97sdF+CDzBJ8op9t6zkbio79U72d9jcPJ+Tq3dOwdt692XjvXGvXr4QwACEPgaAX75fe3E2e9jBJ74oeLlLLaRtkJzpJ6dYj02O9X3lVq8c+Def+X02ScEIACBawRW/O24VsmeUU/wiXKu+Ju+J/V1VXls12VDOSLgncOK+z2qGdWPHQIQgMDbCIy9lr2NBvuBwEIC3o+ghen+k7Z5/1sYGKzQHChnm1DLpcxpzxHQ5zGrihWas2pDBwIQgAAErhPQ33c9vq74rkjNRI/v2OWKfCs072AxK4fev4xnaaPTT0DOoPSz2grNWbWhAwEIQGBXAvO+wrvukLogsAkB/UNFxneVtiLfCs27eKzKI0x0vyoXum0Ccg5tz7zHCs18djwhAAEIQGAVAfm+235VvtN0LReZ37WPkm92W6E5u8ZVenJ+ul+VC90cgdn3Uc42lx0vCEAAAhAoBOb/2oArBCDgEpAfKrp3HTEeS0CfrYyP3QyFQwACEIAABD5EQP5u2/5DCKpbtVxkXg1icVsCcn6637ZYCoMABCAAAQjcRIBH8ptAkwYC+keojKHyLgJyrrp/1w7ZDQQgAAEIQOCdBPTfbj1+5277d6WZ6HG/EhE7ENBnKOMd6qIGCEAAAhCAwJMEeCR/kj65P0VAfoDq/lMAPrBZfbYy/sC22SIEIAABCEDgeALyd9v2x29s0gYsF5lPkkfmZgJyfrq/uQTSQQACEIAABLYjwCP5dkdCQW8loH+Eyvite/3qvuRcdf9VFuwbAhCAAAQgcBIB/bdbj0/aw8paNRM9XpkT7XUE9BnKeF02lCEAAQhAAAJnEOCR/IxzosoXEJAfoLq/Y1s6XxmvaDrHCv1TNDUHGZ9S+xvrlDMo/Yqm9VflWFH3FzXtWdXmd/KxdbRy9/q39KL1njw9vlG+EbvNX5uP5JkRa2urafb41nRYyxOwzGWeV3i3p/Cw/R271jlX5NP6ZfyFZvf8lX3verb6PFbUqPU56xWE+zXtmdTm/epjEbaWmlqPb02ntWbzlHmtWf+a7+w1m7s1n52/R8/WVou1vmX+xvbOXb3xpNjT8QTu/Kh4uTzbKFRPs9i+2jweX2Xx1L69M7C2GbVZTZnP0EZjDgE5k5H+SiUj+UqsbVk9G2fnWZ3I74qejZk1j2rssc+opSef52tr8Hw8m41jPoeAx7rYaD8E7uYT5dP2GWej9fR4hvbOGnqvMt653jfWJtxr/Yx9R/oztNHoJxCdR9ben/Hff7PakZ/NGflZu42zc+vfO7+qZ+NmzHtrj/x3qMXWENVq7Tbu1Dm//E49Oeo+joD9iJT5iublqdmu1lDTlLWr2qfGyb51f+peTqtbM8+Mr+5vpfbVmoj7TSBzRj0+v9Xrsx7dyFcyROs1u8TavhaTXRPNrL/2k9jRXmvOGo/UNFqDzn1FS8czHicQncG48jsU7uIT5anZrxKuaZa1Nzdv72/e705789i3bFfqb2mWddp9BDLn0ePTU3mPruerc3nrLZuOl3ErJrMuWqXP+FsfHT8ytrqj86drkfxX9iGxJ/d8GU8+PWo/ioD3kZm9AS9HxtZbR0az+HyteVy+xuCJ/Xrcs7beelfp9taBv08gez5X/PyMv61XdG1MUbS2nvnvin5mPfGR74q6vFojW1TXLHuUt2YfzS3aIzqiQT9OIDqHceV3KNzBJ8qRsfdSzmgWn7c2b/9v3etO+/K4Z229+1il21vH1/2z53DFL8v2iraOkTza1jsWDel74z3/US2Jv9p7Nc20XalrRv6Sd0TnSt07xbz3L/9OlKkFAsGHZiaYkQ9Zic223jxZ3Tf4eWzesK+d9+Ax77H17G2Vbk8N+MYEes7nqm+c/Wflqu7sOFvnbP2rerau7Pxqvt64bD3i16tv/YuOtfXOpRb6cQIR+3Hldyis5hPpZ+09lLOaxe+tzWPw1r3usi+PeY+tZx+rdHtqwHf8b3zmHDOcMzo1n5Kjtp5Zs3VmYu7wsXVl53fUVnL0trvqauXprXsn/37qO1VPLRA4iID3IZlRvqd7xZatpVc7q/sGP4/NG/a16x483lds2f31aGc18ZtDYORsemKLb631aq3013WuzNOjrWvKjHu0i6/XZmh4usXWq73KP6oPex+B6Hz6VN7rvZJPpN1rz9JfpZvNv4Ofx2CHut5ag8f7ii3Lp1c7q4tfnkDPGVjVntji22q9eqv8dZ2rclzR1XVlxj05Ir0ZGp52j+5qX6++E2ztf6JO2AU1QuAAAt5HaEbZnq7YtL7Yar32j8a1eG8t0nmj/ev7v/NMPdZi03WIrdZr/2hci4/WIi3scwlE/LU9k1H718Y1rVrcyJrk7NGQmNL3xPX4XtHWddXG2TpqGnZttmZWr9ev1N0TY/fJ/BqBiPk1tfdFreIT6Ra7bTVfWbMxdi5+Pb3VeMPc2/8b9rXjHjzWYrP1ij3qrb83j2Jrdk8H23UCNdZ6LZNB+9fGNa1a3MhaydkTr2vsiev1HalL1+iNM7V4cZEto1d8si2r1+tX8l+Jyda9k1+e9k5VUwsEDiTgfVRGt+Fpis1qi73W2xhvXov31jyNt9q+vv87z9VjXWxei3y13YvTNu2bHet4xmsIZM6iJ3NGr/jUWlYj66dzZWNsjT1xWV+pK+svfhJX68W31dc0amst3bKeaRmdXh/JezVO4un7CUTM+5XeGbGKT49u5KvtGfraPzPOaJ7m4+37tD2cUq/Huti8Fvlquxenbdo3O9bxjMcIrGA+qpmN7/ETSj0xxVe33tiW/1VtHVcbt/Lb/dW07NpM7YxWj4/U2hNTfE9t51Z+KnHq/iwB76MyAsPTE5unK2u13ouztlq8t2bj3zz/+v7vOluPc7F5LfK1di/W2mxMa27jmc8l0OJf1q+0jO4V7ayu9rP167XW2MZG85aOt661vPWaTcdG41p8WZvRWjlG8mS0PR+9L289suk4xtcJwLfObgWfXs3IX9vru/hZ1f6ZcUbzNB9v36ft4YR6Pc7F5rXI19q9WGuzMa25jWd+jUCLs6xfUZfYWr9K1+bUeexaa65jo3FLI1rXepGPZ9dx0diLs7YoNmu3et48q+X5eXotm9Zp+dp1HXvS2P9Cn7QDaoXAIQTsR6PMR5qnV9OM/LU9W4+OaY2zmm/w81i8YV877cFjLDavTllr9V6sZ2vp6HUvHtscAppzbXw1W01T1nq1Ja6ntzlGYq2WzHs0i6/XejS8eG3LaGn/q+PVeTL62sfuQ6+1xjaW+TUCEedrau+LWsGnRzPytfYseRtXm2c1T/Lz9ntS/SfU6jEWm1e/rLV6L9aztXT0uhePrZ+AZhqN+1V/IiI9a+/Vt/GtudVv+et1G1ub67jM2GplYsTHxtq5+NV6G3N1Xsshayu1JYf0NpfYM72NPWXu/9vOKdVTJwQOIuB9SK6W72mJzdOUtVbvxUa2lpasR/FvtMuedf/GfT65J81Wj6OatE9tHMV79pqOXvNisc0hoDnXxlez1TT1Wq++jm2NPe1WjKx7sZFNYrK9pzMSq/UyOtp/dLwyX0Zb+3h70eu1sReLrZ9AxLhf6Z0Rs/n06kX+1t5D38ZG8x7NU3y9vZ5S+yl1eoyLLWqRv7VH8Z7dxkZzLxZbH4GIrbX3qf72tlre/HdEe+Zp1GyeYs1fr3mxkU3HZcaeTiau+NTaDI2avl1bmS+rLX62tjKXtVbvxZ5iq9+IU3ZBnRA4gID3IblatqdVbFGL/K09io/sNt6bR7FvtH99/6vP1ONbbLUWxVh7TcNbs/He3IvDNk7AY+3ZRjJ5ep6tN4enEdki7chf26NYz67jMmNPo9hasVGc2Fvxsi7+M3rRbPVXcrU09Xqkr32icRSLvZ8AjOvMZvPp1Yv8rb2+i79Xbbw3/zvqfMtX9vnkSXmMiy1qkb+1R/GR3cZ78ygWe56Ax9Wz5RX/9vT0rO3vqLrFxrfmkdrVuKt6Ot+IRhQrdp0nGovvrD7Ko+1Xcun4zDjKMRIbae5kj7/SO1VJLRB4AQHvY3J1W55WsUUt8rf2KL5mtxp2Xot925rde5nT5hHw+NYYR/7WfqVCq2HnVzSJaROwnGvztlrdo6Yta3WFv1clLtP/Hf3HUov/45Ub1bTsWkvR+su8FVfWxbfVZ7R6fFr5yvqVltEVn5a++Nm+Fcd6HwHLV+Z9Ku/1Fh62v7JjqyHzSEvWW30UX7O3NMv6G5u37zfu86k9eXxrdynyt/Yr+7Eadn5Fk5jfBCzTaP47qn8W6Vp7j7KNrc1bulFsK85bj7Q8uxcvNs9fbOIT9eLX6qP4q/ZWPlm/oi+xmb6mH8XXYk5Ze+df/VPoU+enCHgfkisAPJ1ii1rkb+1RfMtudey8Ff+mdbv3Mj+p7V6/V1+NceRv7VfPyOro+VVN4uoENOPauK6SW63p67Wc2o+XjquNs5qikfX3/EQj03vxnk20vDXPJv6t3osdtbVyynpvHonL9FntokVbRyA6q3UZz1KeyadXK/K39qtErY6eX9XcPU7vUca716zrk5p1r9efHuu69DiqS/vUxlF8y75Cs5XzS+s1vnptlInWqo178tR07FpWV+Ky/p6faGR6L96zFa2elsndq5nJvypvVrdnT6KZ2dcpPn235JRdUScENiQgHxDdXylTx+txpKV9auMovmWvaZa1LzWPxQn79+q2tqf3YeuRea0u8Wn1NY3aWk23FsfadQI15nrteoY/kVqvNv4T0R7VdPRaW2meh87bGs/L+luplVfWf0fNmYl2q+/N1tLT673a+K8hoM9Ej9dkO09VM9HjKzvR8XocaWmf2jiKb9lXaLZyPr3u7fnpmjL5vbqtLaOz0sfWI/NaTvFp9TWN2lpNtxbHWptAja1da6u1PaymN2+r/PHw4iPbn6j1o6gGa19Vic1Tm6+ooZZPr/Xm1rG1ca/um/y/9YL1ppNjL8cR8D5CVzbh6RRb1CJ/a4/iM3arJfNM7Jt8ZN+6331/utbW+Mm9RLVFNUX+1h7FZ+xWS88z8fj0EdB8W+M+Zd+7lUPW/WjfKjGt3o9eY23VotfXVPDcf2ql7Efvrzbu3XtNS6/16uK/joA+Fz1el/EsZc1Ej3t3oWP1ONLRPrVxFJ+xr9LN5H7Kx9vzU7Vk83o1R7as5gq/3poif2sfqdVq6fmILrH53xGF+Yymzy4a9+SJNDx7j+6or5ffs43mieK9XJ4tih+1e7k8W08eLz6y9ei+zXfOP6lvo8J+ILCAgPcBupKmR8fz9WxX6tAxnmaxfa15HHZn4NUc2Z7ci1dTrR7P37PVNFprnp7YWrGs9xMQtpm+X/3viEye4tPTVmj25Pd8szX17tXL5dnemj+7L48JtmcIRGf2TDX7ZZ3Fp1cn8rf2EWJWS89HdHeO1XuU8c71ltqkzkz/5F6i+qKaIn9rj+Izdqul55l4fGICmmVtHCv0rdRy6LWsqo6pjbN6s/xqtei1Wfmsjs5RG9u4WfNaTr3Wk0/HtcY9um/z7fu3u7ftnv1A4EYC3ofoanqtVdPQfrVxTSOzFmlnYt/k43HYeX9evS3bk/uxtdVqsb7evBafWfM0i422hkDE+2l7z26ztfZojvo+XVM2f/Fb0Vblz+qu2NMbNLP83uq34xlGrK/UarVqGtY3mtc0WmuRZrG/tXl73nmvXr0t25P7sbXVarG+0bym0VpbodnK+YX1iOsO9iz/bK1ZvVl+T9aVzV38VrVVNWR1V+3rBN11p3rC7qkRAjcS8D5Iq9N7OT3baB2eZrF9rXkcdmbg1duy7bwfqa21B1kX/6u96Nj+qh5xdQKW8y7zetW/V7M1/45aO3u6pmz+4reircqf1V2xp9M1s+ze7rfbOUa8V9YZ5bT20RqsnsxHdXeOlz3q/rR6de3eeOf9SG1e3Z5N/K/2nmax0cYIRFx3sGd3lq01qzfL78m6srmL36q2ooYVmqv2/6TuulN9clfkhsCGBLyP0soyvXyebbQGT7PYvtg8Fjtz8Opt2Xbej9TW2oOsi//VXnRsf1WPuDoBy3mXeb3q36vZmn9HrZ09XVM2f/Fb0Vblz+qu2NPpmll2b/fb7Rwj3ivrjHJa+2gNVk/mo7o7x8sedX9avbp2b7zzfqQ2r27PJv5Xe0+z2GhjBCKuO9izO8vWmtWb5fdkXdncxW9VW1FDVnPVnk7RXXeqpxCgTgjcRMD7KK1M7eXzbKM1eJrF9sXmsdiZg1dvy7bzfkptrfplfcY+RMv2M7TR+E3AMt5p/rvS+ixbd11l7uqTNWVzi9/cnf+oiXa2z9YwWy+b9w1+WXZv99vtLCPeK+uMclr7aA1WT+ajujvHyx51f1q9unZvvPN+Sm1ezZ5txj483WKjjRGIuO5gz+4sW2tWb5bfk3Vlcxe/VW1FDVnNVXs6RXfdqZ5CgDohcBMB76O0MrWXz7ON1uBpFtsXm8diZw5evS3bzvsptbXql/XRfYiO7Ud1ifcJWM47zf2KfWu2bj96jfXJmrK5xW8FAdHO9tkaZutl877FL8vvrX47nmPEelWtUT5rn5Hfapb529tpe/bqbdl2P8NW/bI+ug/Rsf2oLvH5f++w7FfPe84mW0uP5gzfJ+vK5i5+q9qqGjK6q/Z0iu66Uz2FAHVC4CYC3gdpVWovl2ebkd/TLbYvNo/F7hy8miPb7nsp9UW1W/voXqyezEd1ifcJCN9s76s8b83Uf3eVmZqKz4qWzS1+J9UgNbf6FXt6i2Zhd2eLzurOGnbOdTefKJ+1jzKzejIf1d09Xvap+xNr1vXr8e57KfXpemvj0b1E2qO6xOfPsJzBri26H9Z+d/02fzRfUVeUy7OvyF80vVyRLVtDFG/tWb23+u37T+tbibOvzxKwH58yX9W8XJ5tNL+nuXJfo/Wujvd4rM45qu/VHNlGc62Oj+q29hl1WE2Zz9BG428Cwjfb/62whyVT/92VZmoqPitaNrf4nVSD1NzqV+wJzWsEorO6pva+qLv5RPmsfZS01ZP5qO7u8bJP3Z9Ys65fj9+ylxn70Fz0eIb21zU0z9Z4V1atumX97volb6tfUVcrp15fkb9o6hytcbaGlo6sZ/Xe6rfm33reSot9QWCAgHx0dD8gVw3VOWrjqkhiMdJOhL7SxeNxwka9uq3tLfso+xptlo3MR3WJjwkI42wfKz27kqn/7gozNRWfFS2bW/xOqkFqbvUr9oTmNQLRWV1Te1/UnXyiXNY+g7LVlPkM7Z01ZJ+637leqU3XG43Fd+c+qt3aZ+zBapY5bQ4Bj21km5NxvkpUr7XPz1xXtPmjeV3l2mqUy7Nfy9CO8nJFtrbaj0cUb+1Zvbf68YV868myr+0I2I9Pma9oXh7PNiO3p7tqXzPqXa3h8Vidc6b+G+tfsSdPs9hoawlE3D372kquq3u1Wtt19WuRNn80v6Zej4pyRfa62rXVKFdkz2aJ4q09q4ffegL2bGS+PvMZGYSH7VdUb3NE89Hcq3RH67oj3tv7HXln5Xhj/Sv25GkWG20OgYivZ5+Tcb6KV6tnm5+5rujV4NnqKtdWvTyR7VqGdlSUz7O31X48vFjPltV7qx9fyLeeLPvajsBdHyAvj2cbBeRpFtuXm8fkyzzu3LvHPrKN1rVKd7Sut8dH3D37riy8Wq3t7tpt/mi+qq4on2dfUYOXJ7L15I80rL1HE9+1BOzZyHxt1nPUhYftV+zA5ojmo7lX6Y7WdUe8t/c78pLjh4DH37ON8vI0i402h0DE17PPyThfxavVs83PXFf0avBsdZVrq16eyHYtQzsqyufZ22o/Hl6sZ8vqvdWPL+RbT5Z9bUfgrg+Ql8ezjQLyNIttRfNyZfPY2GzcFT+baxWPK7W9PcZj79lGOXiaK8/Zy5fZw9W4jPZTPt6eIttTNbbyRvVqe0tj9rrOXRvPzit6tZx2TWJm9jZHbd6Tt6aj13o08V1LQJ+LHq/Neo66ZqLHs3egtWvjGXkj/VHtVbqjdel4r0a9zngdAY+9Z5tRwZ26JdfXmse3ZtuRT61evXZ37Tp3bbyirlo+u7Yif9G0eWrzbA01Db2W1Xur3/e+ZG89Sfa1PQH94ZHxiqJFu9WP5o70R3V1fJRD27W/Hmsfb6x9Z43vyjOr3jfpeOw92+iePc1im9miHNbu5bQ+du7FnGKze6nNd91TrWZZu7t2ydvqV9XVyqvXV9Sg9VvjnvwtLVnv0cR3LQE5E9uvzXqOuuUi89k7EN1WP5o30l+lK/mu6ku89Fd1JE50dC9r9GsJaOa18WgVkfYqXcl3VV/ipb+qc3ec1Jvp764tky9Td/G5uz1dVzb/CjY9uXvzZ7TvPuvd8t1/23cjQD0QuImA90GandrL4dlG83qaxTarRfqR3eaN/Kzdxo3OrX6Z0+4h4LH3bKPVeJozzznSj+x6P5GPteuYk8Z2H7X5rvuq1Sxrd9cueVv9qrpaefX6ihq0fmvck7+lJes9mviuJSBnYvu1Wc9Rt1xkPnsHotvqR/NG+iO6kaa1X8lhNcp8pM3WG6nla7Eee882ysXTLLaRFmlae28OGy/zXp0n/KXWTP9Efa2cmbe86dAAACAASURBVLqLz93t6bqy+VewWZk7o333We+W7/7bvhsB6oHATQS8D9Ls1F4Ozzaa19Msthkt0m7ZJXfLz65L3Izeapc57R4CHnvPNlKNpzfzjCP9lr3sqeVj10c4PBlr91Gbr6pT5+zNoWOjca/mqH9Uh7WP5qnF21zRvKZxdS3KZe29+jY+mvfq4r+OAGdUZ3sXnyiPtderra9aLZnXo+qropHt62q/V2uavz3zM08zH43nCAGPvWdbkWOFpld7sfW0SKNXpyfnLN9a7XZtVk6rM5LHxkZzm3P1PKrD2lfVYfPU5rNrqOWya725bbw379V8m3/f1+ttu2c/ELiRwB0fIC+HZxvZtqdXbDNapL3aPqP2ouHVOUsbnToBj71nq6vUVz29Yhttke5q+2jdT8T3MFlRn5e/J48Xb209ejN8bf5oPiNXpBHl9OyRxlW7l8Oz9ep7Gp6tVxf/dQS88yk22g+Bu/hEeax95Fyslsyvakp8b5/J19LMaHg+nq7nh20+AY+9ZxvJ7OkV29UW6bXsmXwzNDJ5Vvq09qDXZ9ehtfU4m0fH1MZZvVl+tVr02qx8VkfnaI1t7Oi8lU+v9+bSsdG4V/Nt/te/lG8jwX4gsJiA9xGandLL4dlG8np6xTbaenQjX2uXmqzdzsVvtLe6ZU67h4DH3tpGKrFaMh/RlFjR0r2s2V77RGMdE/kU+6mttie9Nnt/WluPe/LouGjcozfDN6rD2mfkqmnYfNG8ptG7FuXw7Ku0e3XxX0fAO/dio/0QuItPlMfar56L1ZH5TD2tJfper/2isRcntigmYxcN3Wfi8BknoJnXxlczRZoz9bRWlK/YM200PpNjtU9tD3Ztdi1WX+bZPOLf6rN6s/xa9cj6rHyejuRo9V7siK2VT9Z7c0hcq+/VfZt/7sv1tl2zHwg8QMD7GM0uw8vh2a7m9bSKbbR5ujVNz9/aJN7avbn4jvYrtUdre3u8x97aRhhYLZmPaJZY0dF9TVP7RWOJj9bFLn6n9VJ/pp+5tyhfT45IQ9t79Gb46ty18YxcNY1abr1W0+hd07q1ca9u8a/p6bUr2sSsIaDPRY/XZDtPVTPR49k70dq18dW8keYsPasT5Sv2TBuNj3J4upEv9rkEPPae7WpWT6vYrjRPy+p4PmKzvt5cfL3e89/V5tXv2WbX7+UotmyL4q09qzfLz+aP5rPyRTpRXmuP4nvtVrc2X6Xdq/s2//w/PW/bOfuBwM0EvA/cihK8PNZ2Na/VkflVPYkTHd3LWtRrX28scd6atYnvaG91y5x2DwGPvWe7Uo2nM+NsPd1WfV6Mtul4bffG2ve0sbcfzzZzXzP0PQ1rm1lzRsvmj+YZrVGfKLe2j+aQeK3ZGktMT9/SlPUeTXzXEpAzsf3arOeoWy4yn70D0W31V/JGmle0Soynp7W8dW3Tvt5Y+3pjLyZrm62XzYuff29mnYenU2xXm6entbx1bdO+3lj7emMvZlebV39km7WHGfqRhrXPqjmrY/NH86zeVb8or7Vf1bdxVjea27jMPNKy9ozWm32ufzHfTIW9QWABAfvxKfMVzctjbVfyWg2ZX9HSMaKje73ujbWvN9Yx3rq1af+RsdUtc9o9BDz2nq23Gk9j1rla7UxtNsbORcPavbn4nth7+4lsM/Y3SzvS0fYZ9fZo6Ny1cY/mVd9afr12VV/Hab3aWMf0jGuaeq1HE9+1BPS56PHarOeoayZ6PHsHWrs2vpI30pulZXWifGK3/nYuflFv/XvmnmZPPL7XCXjsPVtvBk9DbL1axV9idW919Jo3tv527sVom/Xffa5rb41n7MXL0avraXi2Xt1Rf68GzzaaJxPv5bW2jE7Lx2pG85ZOtB7pWXsU/xU7LzhfOWn2+TgB+/Ep8xXNy2NtvXltvMx7dTx/0dK956dt2tcbX/XVcVfGrVquaBKTI+Cx92w5tT9enkaxjTZPN6PpxYlNx4ut1mv/E8e1vdm1kf1ZLZlf0ZTYVn9F+2pMqxZZv6rfGyf5Wn2vrvZvacu6jukdi0ar79XFfx2B6KzWZTxL+U4+US5t76WnY/W4V0f8tYaMZU16sXu9+NR6L07barGtNa0j41YM6/MICPNa35st0urVEX9PT9ak93zEJj61Xny9vha385q3F882ugdPs9h6W6Rj7b26o/42fzQfzZONj/Jre1Yr8tNatXEU37LXNPVaS+ft6/3/FL2dCPuDwCIC+sMj4xWpRLvVZ3PXdLIakZ+nHflquxenbVlf7TdjrGuQ8QxdNHIEhHmtzyn9eEU6PRqRr6cd+Wq7Fyc27VfGYvd663vq3NtbZLuyx0ir2K+0mp6sXdEdiZG8rX4kR29sqxZZ79Ut/hLb6q9o65iWvqzrGMbPEpAzsf2zVe2T3XKR+YoKRbvW9+SNdHo0rK/VtOtlbn303PO3Nu1vx9a3d271ypx2HwGPv7X1VGNjZd6jYX1FQ/rWuvhJb/29ufh6ved/gs3bS812ZU+R3kwtm+OK9kiMzR/NR3L0xEb5rb1HU/tanWiuY3rHkaa19+q+zZ+/hm87UfazLQH78SnzVc3LZW2Z3DZGzzPxLR+tJ+NWTFkXX6/34rN+XmyP7a48PTV9ydfj79laTLwYsbViM+uipfurcS0NvS7jTK6TfGRf2T67t5peTaMWN2utlt9bm5W3pePlvmpr5ZL1Hn2JafVZzZbOrPVsPfiNEYjOa0z1PdF38olyWXuGro2ReSY28hEN3VtfveaNrb+dezHaZv1751pLxr0a+F8nIMxbfSZDpJGJjXw8Tevr+Wib9bdz7euNrf9Jc28/LVtmf1c1WnGz1jN70D6z8tZ0dL7RcS2PXevJZWOjeVYzip9pz9Zyot+6V7oTaVAzBBYS8D5Kq9J5uSKbV0PkK3Yv5qpNNEufbTrGjrMaK/xsLT17WlHPFzW9M/BsERvPV2xRzBW7aJY+23SMN87qvNHP45GxWRZXYrRGJn6Wj87bGs/K2dJp1dG73spn162+Xc/MrUZtntGb4VOrgbV5BKKzmpfhbKW7+UT5rD2iav3sPIrL2rWeF6PX7djztzYbY+fWv3du9cqcdi8B7ww8W1SV56ttUVzW3tLS63acyWFj7DyjsbOP3U92bvd0NU7rZDVG/XTO1ng0V098q5ae9Z684qv1xdbba43auFd3xL9Wx8lr/DU8+fSo/SgC3gdo5Qa8fDNsK2vOaLf2kNFY5ePVtioXujEB7xxm2OKM96zU9nBPBXtnqfGZtdYiMCtPRqdVi17P6M3w0TlnjWfUldXorTmrO+rXWxf+1whE53RN7X1RT/CJco7aV59Oq75M/hkatTyefs2ftTUEvHOYYVtT7R/VVo1/PONRTSOOOm+lts9Zay0qs/K0dFp16PWW1sx1nXfGeGZtGa2emjN6s3x66jrJl0fyk06LWo8m4H2MVm/IyzliW11vRr9Vf0ZjlY9X26pc6MYEvHMYscWZ7l2p7eHeSvbNVmM0upbZ9WiOnvhMPeLTozviK/lm9yM1ZWOv1JzVHvW7Uhsx/QSic+pXemfEE3yinFftd51Mq75MHTWNTHzLx9NvxbA+n4B3DiO2+RX6iq0a/ajf1prGb8/zZ7W9jq5l6IzmyMZnahGfrOYMP8k5s59RV0ajt+aM5iyf3tpO8eeR/JSTos7jCXgfozs25eW9Yruj1kyOWu2Z+JU+Xm0r86EdE/DO4ootznDvSqv2e6vZP1uLV+96dse9uiP+2ZqK30ientiemnp9e+ro9e2tRfx781z1l3z0awlE57M26znqT/KJcvfY7yRdqytTRy2+rM1oXo4Zumj0E/DO4oqtP/P1iFp9GdVafFl7Y2vt+cp6ltMV7Ssx2XqK3xX9qzE9dfX6Xq2pFddbh/i3dGeuS8639e/8Ar3tlNjPKwh4H6Q7N+blz9jurDGTq1ZzJn6lj1fbynxotwl4Z5K1tdXv82jVfF8l52RqMcus9+42oznLp6e2WTlbOj01XfVt1dCzfrUGievJNeIr+ejXEojOaG3Wc9Sf5hPlz9jvpNyqJ1PLDI1WHi9HK4b1tQS8M8na1lb2W71V029vfzZDw1fe39rae2a9d5cZzRk+PXXNyJfV6Knrqm+2lpbf1fwS19KfuS4539bzSP62E2U/2xLwPkh3F+vVULPdXV8rX63WsvZ08+p7uiby/xDwziay7cgsqrXYaW0CNX7eWlsx9hC92OP6ylXtq3GZSkW79Hc3nTs7nlmj5JypKVortSUH/W8Cwtz2v72+O7NcZH43Ecmb7XerL1NPa28ZjZaPl6MVw/o9BLyziWz3VPQ7S1SL2H97+zPx9Xo/4n1Wb+8t21UKons1vhYn2qXvbRLbG5fxX6ldyy95e/uaZu+a5O6Ny/iv1M7kv8On/ybfURU5IPBCAvJB0f0u2yw1ndA0O2/89B52rOlpJjvnl/PauUapTWr1evGh7yOgWfZF4r07gXK2NAj0EtDfBD3u1Xmrv2aixzvsV+rZqRapSffZ+nSMHWc1Wn5Wt8xp+xKQ89qhQqnF67P1ebFiy2q81Q8O7zxZzvWcc+Wv4TlnRaWHE5APo+4P39Lt5Wt2dnx7MU5CW1OZ0yAwSsC7V9o2qk88BCAAAQjE/31U2PwQ0H939Bg+vwloNnb829Of2Rg796P6rVa3zGkQyBDw7o7YRuO5hxmC+EAAAisJ8NdwJV20IaAIyI8H3avlzw+FSw2E+Hh9LU6v6VhtnzHW2jKeoYvGuwmUu1JrcpeivhYrazZW7PQQgAAEIPBDwH4nZQ4f+PTcAbk3Xp/R8eK0LaOR8dGaMs7E4fNtAnJXoj5DJ4oVe0YDHwhAAAKrCNT/zXxVVnQh8EEC8odf9x/E8NeWNQ89to56zRtbf29+Nc7T8myr9b2c2M4lkL0vnp/YMrsXX91n4vCBAAQg8CUC+hupx19iUNurZqLHtZivrWku3jjDw4vTtoxGxkdryjgTh8+3CchdifoMnSi22GkQgAAEnibAl+jpEyD/Zwh4Pwg+s/lgox4TbdNh2u6NtW80tnGR31W71S9zGgQ8At5dEZv2F1vUa99o7MVGvtghAAEIfJWA960sNtoPAfi0b0LESOxthfg/+zP7LkpNus/Uh8+3Cej7YsdZMjZOz7Ma+EEAAhBYRYBffqvIogsBQ0D/AJCxcfncVDhEvQYS+RR7pnnxmbgenzty9NSD754EvHuibbpqbffG2jca27jIDzsEIACBLxOw30qZf5mJ3rvwsL32+frYstHzDBvt740zGlmf1frZOvA7i4B3b8SW2Yn4Rn1GAx8IQAACKwnkXpdWVvA/7fKhpEHgzQS8HwNv3m9rbx4PaxMNa7dz8av1V2Jqet6azVHmNAhYAt49sTaJsXY7F7+ot/5lToMABCAAAZ+A/Wb6Xt+0WjYy/yYNf9fCJOr9qD/WKE7sfzzHR6Kp+3FVFN5OQN8XO87s3cbYeUYDHwhAAAIrCWzxb8v647hys2hD4EkC+p7L+Ml6ns4tDGq91FjzKWut5sW3Yq6s35XnSm3E7EHAuyPWJpVauzcXX6/v9fc0sEEAAhCAAAQKAe9vSrHR/hCIGIn9j+ffI/Gp9X9HXbd4ea6rEfkVAt690bYaB+3njWuxrEEAAhC4i8Djv2z4QN511OR5mgB3/fcJeDy0Tby1LRqLr9d7MZ7fDNuduWbUi8b9BLw7Ym1SlbV7c/G1vedbbDQIQAACEIDAFQL8XclRizi1/gbX4lqxucp+e3n5fnswg4BPwLs7YvMjfqziE/W1WNYgAAEI3EXg0X9jjj6QxU6DwNsIePf9bXvs2Y/HQ2xaR2ytXseUceRv/WbOvZwz9dF6BwHvnohNdijzVi/+uo9itA9jCEAAAhCAQA8B/rbkaEWcit1rNX+95sWO2LS2jEf0iP0OAbkvXu9R8Pw8mxeLDQIQgMDdBPy/1jdU4X0Yre2GMkgBgdsI2Ptd5l9vHpPVtpXMvdpX5kP7TALePVltO5MUVUMAAhCAwC4Eor9Tu9S3Sx0Rp1H77P159czOgd47CXh3Z4btnbTYFQQgcBqBR17pej6ipwGlXghEBLx7H/l+xe4xqdkKl9p6a201Vy//6pzon0nAuyuRTXYYrbfsEk8PAQhAAAIQuEog+ltzVe/tcRGvq/bZvLw6ZudA770EvPszYnsvKXYGAQicRuD2R/IrH8/ToFIvBDwC3t33/L5m87h4Ns3FW6/ZdOzKsVfDynxon0vAuyueze7Q86nZbDxzCEAAAhCAwBUC0d+aK1pfiYmY9dpX8PJqWJEHzfcS8O7QVdt7KbEzCEDgNAK3PpJf/WiWOBoETifg3f/T9zSrfo+NtkV5tE80jmJX2L0aVuRB8z0EvDujbd5O9Xo09uKwQQACEIAABK4S4O/NNXIRtx77tcz1KC9/PYJVCPgEvLvUa/OVsUIAAhC4n8Btr8+9H0rP/348ZITAPALc6RxL4ZTz/vGSmNI/2XQdMn6yHnKfQ0DuS88d1jE9cZaK1Xl6butjDgEIQAACzxOI/jY8X9k5FViGUrm127n4zextjjKnQWCUgL1Xomftdi5+0tv1p+dSFz0EIPB+Arf8Ncx81AR1y1f86CFwGgHvbp+2B+qtE+CM63xY3ZOAd2+ftO1JiaogAAEIfJtA9Hfh21R+714z+r1Sn+k4O65HXl+1ecqcBoEWAbk3LT+7LnFeb33L3PN70ubViA0CEHgngeV/DTMfM4u2FWP9mUPgBALevT6hbmrME+CM86zw3IeAd2+ftO1DhkogAAEIQEAIRH8XZP3L/QibKFbsq7iKvu5X5UL3fAL6nuhxZmfa3xt7Gp7fkzavRmwQgMA7CSx9JG99yGpIR2JruqxB4CkC3p1+qhbyriHAGa/hiupaAt69fdK2dreoQwACEIDAFQLR34UrWm+KibiIvbVX8fP6VuzI+t35Rmol9lkC3l3RtlZ12teOo1jr9/Q8qhM7BCDwPgLLHslbH7IMyhkamTz4QOAOAt59viMvOe4jwBnfx5pMEIAABCAAAQjcR8D7jVNsX28RF7HX+IhP1NdiR9e8nKOaxL+PgHdPrK22a+tr57VY1iAAAQg8QWDJLxv78bPzno3aWDvv0cIXAk8SsHe3zGnvIsAZv+s82Q0EIAABCEAAAj8EvN84X/8tGzHR9tr90X52XIubsWbzlTkNApaAd0+szcboufXVc+3HGAIQgMAuBJb8NdQfPzu+unGro+dXNYmDwJ0E9J2V8Z35ybWegJyr7tdnJQMEIAABCEAAAhBYS0D/ttHjtVn3VtcconG0g8i/2O9oXv478pLjLALePbG2aEfWT8+jGOwQgAAEniaw7K+w/gjKeHSzoqP7UU3iIXAXAX1vZXxXbvLcQ0DOVff3ZCYLBCAAAQhAAAIQWEdA/7bR43UZ91fWHLxxtAPPV2xRzGy75NP97BzonU9A3w9vHO3Q8xVbFIMdAhCAwA4Elj2Sl83Jh7D0s9oKzVm1oQOBGgF9d2f+M1HLydr9BPQ535+djBCAAAQgAAEIQGANAf0bh9+yv/9dN8PG+tj5mlOLVXX+2IuVLxPQd8SOPS7Wx869GGwQgAAEdiIw7/U62FX5MM5uKzRn14geBCIC3N+IzHvsnPF7zpKdQAACEIAABCAAgYhA+c034/8i/dV2frOuJny2/oy7LRpnk6B6CEDgKwTmv2B/hRz7hAAEIAABCEAAAhCAAAQgAIHPEpAHwJH+s/DY+BEERu62xB6xUYqEAAQgUP6LKFCAAAQgAAEIQAACEIAABCAAAQhAoJ+APAT29v2ZiIDAMwR677b4P1MtWSEAAQhcJ8Aj+XV2REIAAhCAAAQgAAEIQAACEIAABNL/2RVQQeBEAvLwnelP3B81QwACECgEeCTnHkAAAhCAAAQgAAEIQAACEIAABCYQ8B4RJ8giAYFtCHDHtzkKCoEABCYTWPJI7n00xTarftHT/SxtdCAAAQhAAAIQgAAEIAABCEAAAhCAAAQgAAEIQOAbBKY+kusH69Z4BG9Ne0SXWAhAAAIQgAAEIAABCEAAAhCAAAQgAAEIQAACEPgWgWmP5LWH62jtCupIS9uv6BIDAQhAAAIQgAAEIAABCEAAAhCAAAQgAAEIQAAC3yMw/EiuH6evjHuQ9+j36OILAQhAAAIQgAAEIAABCEAAAhCAAAQgAAEIQAAC3yQw9Eje82gd+WaxR/GRPauLHwQgAAEIQAACEIAABCAAAQhAAAIQgAAEIAABCHyXwNJH8oI1esTW9gx+7Z8ZZzTxgQAEIAABCEAAAhCAAAQgAAEIQAACEIAABCAAgW8TuPxIXnuo1khrfrKm/aOx+Gb7SAc7BCAAAQhAAAIQgAAEIAABCEAAAhCAAAQgAAEIQEAIXHokrz1Ui7D0NV+9Jv5Rr32z40jrSXu29rf5Pcmc3BCAAAQgAAEIQAACEIAABCAAAQhAAAIQgAAEIgJTH8m9JNnHXi/W2rJa4mfjn5xLTV/un+RPbghAAAIQgAAEIAABCEAAAhCAAAQgAAEIQAACHoHuR/LokdcTL7bI39qjeGu3cbW5jX1yXqvzS2tPngG5IQABCEAAAhCAAAQgAAEIQAACEIAABCAAAQhYAsc9kpcNZB6V7Uafnmdq/oLP0+dAfghAAAIQgAAEIAABCEAAAhCAAAQgAAEIQAACmkDXI3n0iKsF9Tjyt3Ydkx1bDTvP6tzpZ2v82vxO1uSCAAQgAAEIQAACEIAABCAAAQhAAAIQgAAEIJAhwCN5htJEn689jMt+JyJECgIQgAAEIAABCEAAAhCAAAQgAAEIQAACEIDANALpR3J57LR9rRLrG81rGrW1SK/YaRCAAAQgAAEIQAACEIAABCAAAQhAAAIQgAAEIACBFoH0a3L0IB0liPytPYrP2K2Wnmfi8YEABCAAAQhAAAIQgAAEIAABCEAAAhCAAAQgAIFvE+CR/Nvnz+4hAAEIQAACEIAABCAAAQhAAAIQgAAEIAABCHyawNAjeY2c/l9118Y1jdZapNuKYx0CLQLR3cL+z78wgAF3gDvAHeAOcAe4A9wB7gB3gDvAHeAOcAe4A9wB7sAJd6D1Bijr6UdyCcj0WUAZrZpPlKcWwxoEMgSiu4WdPwDcAe4Ad4A7wB3gDnAHuAPcAe4Ad4A7wB3gDnAHuAPcgTPuQOYdsPjwSJ4lhd+nCPChO+NDxzlxTtwB7gB3gDvAHeAOcAe4A9wB7gB3gDvAHeAOcAe4A9EdyD5oTn8kjwqy9myBNT+rKfNaDGsQyBCQu0TPR5Y7wB3gDnAHuAPcAe4Ad4A7wB3gDnAHuAPcAe4Ad4A7cOYdyLwDFp9jH8mji5ndOH4QqBGI7hf2Mz+InBvnxh3gDnAHuAPcAe4Ad4A7wB3gDnAHuAPcAe4Ad+B7d6D2/qfXeCTXNBhD4H8E+Gh+76PJmXPm3AHuAHeAO8Ad4A5wB7gD3AHuAHeAO8Ad4A5wB951B7KPnVMfybOXKFtczS/KVYthDQJZAtH9wv6uDyXnyXlyB7gD3AHuAHeAO8Ad4A5wB7gD3AHuAHeAO8AdeO8dSL8FZh0zftkLldFq+Xi5WjGsQwACEIAABCAAAQhAAAIQgAAEIAABCEAAAhCAAAQ0gSP/l+TeA3mx0SAAAQhAAAIQgAAEIAABCEAAAhCAAAQgAAEIQAACPQSmvSxHD9eevadAz9fT5JHcI4UNAhCAAAQgAAEIQAACEIAABCAAAQhAAAIQgAAEagRufySvFZNd8x7Js7FP+nl1f8n2JHtyQwACEIAABCAAAQhAAAIQgAAEIAABCEAAAhDwCBz3SB49Knub28kW1f01+05nQi0QgAAEIAABCEAAAhCAAAQgAAEIQAACEIAABHgkv+kOfO0xPNrvTbhJAwEIQAACEIAABCAAAQhAAAIQgAAEIAABCEAgReCoR/KTH16j2r9kT91InCAAAQhAAAIQgAAEIAABCEAAAhCAAAQgAAEI3EiAR/I7Yf/zz79fehS3e70RNakgAAEIQAACEIAABCAAAQhAAAIQgAAEIAABCKQI3PpInqoocLIPrjIP3Lc1l7ppEIAABCAAAQhAAAIQgAAEIAABCEAAAhCAAAQgsAeBaS+28mhd60e2HOmOaBILAQhAAAIQgAAEIAABCEAAAhCAAAQgAAEIQAAC3yZwxCM5D+TfvqTsHgIQgAAEIAABCEAAAhCAAAQgAAEIQAACEIDAKgI8kq8iiy4EIAABCEAAAhCAAAQgAAEIQAACEIAABCAAAQhsT+DWR/LyvwjvbfyvyHuJ4Q8BCEAAAhCAAAQgAAEIQAACEIAABCAAAQhAAAJZAv2v1oFy9Jht7UG4a7axMnedMUIAAhCAAAQgAAEIQAACEIAABCAAAQhAAAIQgAAEOglMeyQveeURu9Zn65uhkc2FHwQgAAEIQAACEIAABCAAAQhAAAIQgAAEIAABCHyTwO2P5OXxu9V4IG8RYh0CEIAABCAAAQhAAAIQgAAEIAABCEAAAhCAAARmEGi/WHdmqT1w2zUtbde8ufZnDAEIQAACEIAABCAAAQhAAAIQgAAEIAABCEAAAhAYJTD9kbwU5D1wj9pGN0o8BCAAAQhAAAIQgAAEIAABCEAAAhCAAAQgAAEIQMASWPJIXpKMPorreFs0cwhAAAIQgAAEIAABCEAAAhCAAAQgAAEIQAACEIDADALLHslLcfqh+8p4xgbRgAAEIAABCEAAAhCAAAQgAAEIQAACEIAABCAAAQhEBJY+kktSHsiFBD0EIAABCEAAAhCAAAQgAAEIQAACEIAABCAAAQjsROCWR3LZcOuxXPzoIQABCEAAAhCAAAQgAAEIQAACEIAABCAAAQhAAAJ3ELj1kfyODZEDAhCAAAQgAAEIQAACEIAABCAAAQhAAAIQgAAEIJAlwCN5lhR+EIAABCAAAQhAAAIQgAAEIAABCEAAAhCAAAQghukiPAAADdxJREFU8DoCPJK/7kjZEAQgAAEIQAACEIAABCAAAQhAAAIQgAAEIAABCGQJ8EieJYUfBCAAAQhAAAIQgAAEIPAqAuX/ZxINAhCAAAQgAAEIQAAC/CrkDkAAAhCAAAQgAAEIQAACnyNQHsjl/z63eTYMAQhAAAIQgAAEIPCLAI/kv3AwgQAEIAABCEAAAhCAAATeTkAex3X/9j2zPwhAAAIQgAAEIACBmACP5DEbViAAAQhAAAIQgAAEIACBlxHQD+N2/LKtsh0IQAACEIAABCAAgSQBHsmToHCDAAQgAAEIQAACEIAABM4mYB/FvfnZO6R6CEAAAhCAAAQgAIErBHgkv0KNGAhAAAIQgAAEIAABCEDgKALeg3hkO2pjFAsBCEAAAhCAAAQgMEyAR/JhhAhAAAIQgAAEIAABCEAAAjsTiB7Da/ad90NtEIAABCAAAQhAAAJzCfBIPpcnahCAAAQgAAEIQAACEIDARgRqD+GttY22QSkQgAAEIAABCEAAAgsJ8Ei+EC7SEIAABCAAAQhAAAIQgMBzBFqP4Nn153ZAZghAAAIQgAAEIACBOwjwSH4HZXJAAAIQgAAEIAABCEAAArcSaD2A62JavmWdBgEIQAACEIAABCDwXgL82nvv2bIzCEAAAhCAAAQgAAEIfJJA69Hbg9KK4aHco4YNAhCAAAQgAAEIvIMAj+TvOEd2AQEIQAACEIAABCAAAQj8+++/rcfuGqRWLA/lNXqsQQACEIAABCAAgXMJ8Eh+7tlROQQgAAEIQAACEIAABCCgCLQeuZVrdThLp5qERQhAAAIQgAAEIACBbQjwSL7NUVAIBCAAAQhAAAIQgAAEIHCFQOtR+8r/AryleaVOYiAAAQhAAAIQgAAE9iTAI/me50JVEIAABCAAAQhAAAIQgEAHgdqjdofML9dI85cTEwhAAAIQgAAEIACB4wnwSH78EbIBCEAAAhCAAAQgAAEIQKAQ8B61R8lYzVE94iEAAQhAAAIQgAAE9iPAI/l+Z0JFEIAABCAAAQhAAAIQgMBFAvKofTHcDVuh6SbCCAEIQAACEIAABCDwCAEeyR/BTlIIQAACEIAABCAAAQhAYBWB8qg9u63QnF0jehCAAAQgAAEIQAAC1wjM//V4rQ6iIAABCEAAAhCAAAQgAAEIQAACEIAABCAAAQhAAAK3E+CR/HbkJIQABCAAAQhAAAIQgAAEIAABCEAAAhCAAAQgAIFdCPBIvstJUAcEIAABCEAAAhCAAAQgAAEIQAACEIAABCAAAQjcToBH8tuRkxACEIAABCAAAQhAAAIQOJkA/33yk0+P2iEAAQhAAAIQgMDfBHgk/5sJFghAAAIQgAAEIAABCEDgIALl0br2f7O24uWYpY0OBCAAAQhAAAIQgMBzBHgkf449mSEAAQhAAAIQgAAEIACBAQLeo3XNNpDqlkf4kfqIhQAEIAABCEAAAhC4ToBH8uvsiIQABCAAAQhAAAIQgAAEHiJQewyvrV0pt6Yna1d0iYEABCAAAQhAAAIQ2IMAj+R7nANVQAACEIAABCAAAQhAAAJJAvIwfbVPpvl/t54cPbr4QgACEIAABCAAAQjsQ4BH8n3OgkogAAEIQAACEIAABCAAgQaBnkfryLeR4r/lKD6y/xfIAAIQgAAEIAABCEDgKAI8kh91XBQLAQhAAAIQgAAEIACB7xKIHqfFLmRkXuvFt9bX4r21mhZrEIAABCAAAQhAAAL7EuCRfN+zoTIIQAACEIAABCAAAQhAQBHwHqaLzbbIT9ttjDfX/pmxp4ENAhCAAAQgAAEIQGB/An//oty/ZiqEAAQgAAEIQAACEIAABD5GIHqk9jBEvtbuxWqb9c/MdTxjCEAAAhCAAAQgAIEzCPBIfsY5USUEIAABCEAAAhCAAAQ+S6D2OO1BqfnrNS/W2rR/ZmzjmUMAAhCAAAQgAAEI7E+AR/L9z4gKIQABCEAAAhCAAAQg8GkC0eN0BCXyt/Yo3tptXDS3ccwhAAEIQAACEIAABM4gwCP5GedElRCAAAQgAAEIQAACEPgkgSsP0lGMtvfC1LHRuFcTfwhAAAIQgAAEIACBPQjwSL7HOVAFBCAAAQhAAAIQgAAEIOAQ6H2Qjvyt3UnVNFkNO28K4AABCEAAAhCAAAQgsCUBHsm3PBaKggAEIAABCEAAAhCAAAQKAfsQLfOIjqy3+ii+Zl+hWcvHGgQgAAEIQAACEIDAPQR4JL+HM1kgAAEIQAACEIAABCAAgU4C0aN0TSaKsfaaRm3N6uh5LY41CEAAAhCAAAQgAIF9CfBIvu/ZUBkEIAABCEAAAhCAAAQ+TUA/QOtxBEX71MZRfMa+SjeTGx8IQAACEIAABCAAgTUEeCRfwxVVCEAAAhCAAAQgAAEIQGCQQPQgHclG/tYexWfsVkvmmVh8IAABCEAAAhCAAAT2JMAj+Z7nQlUQgAAEIAABCEAAAhCAgPPfJI+gyGN1q4/is/ZIPxuPHwQgAAEIQAACEIDAfgR4JN/vTKgIAhCAAAQgAAEIQAACEOgkED1eW3un7F/uVk/mfzligAAEIAABCEAAAhA4hgCP5MccFYVCAAIQgAAEIAABCEAAAhEBeaxu9VF81h7pZ+PxgwAEIAABCEAAAhDYjwCP5PudCRVBAAIQgAAEIAABCEAAAh0Eoodra++QDF2tZpnTIAABCEAAAhCAAATOJsAvurPPj+ohAAEIQAACEIAABCDweQLew7VnGwXlafJIPkqVeAhAAAIQgAAEIPA8AR7Jnz8DKoAABCAAAQhAAAIQgAAEBghEj9fWPpDi/0OtnsxHdYmHAAQgAAEIQAACEHiWAI/kz/InOwQgAAEIQAACEIAABCAwQEAeqlv9QIr/QqMc/zkwgAAEIAABCEAAAhA4kgCP5EceG0VDAAIQgAAEIAABCEAAAoVA9HBt7aO0rJ7MR3WJhwAEIAABCEAAAhB4ngCP5M+fARVAAAIQgAAEIAABCEAAAhcJyGN1q78o/19YpP+fAwMIQAACEIAABCAAgWMJ8Eh+7NFROAQgAAEIQAACEIAABL5NIHq4tvYZlKymzGdoowEBCEAAAhCAAAQg8CwBHsmf5U92CEAAAhCAAAQgAAEIQOAiAXmobvUX5f8Li/T/c2AAAQhAAAIQgAAEIHA0AR7Jjz4+iocABCAAAQhAAAIQgMB3CUSP19Y+SsjqyXxUl3gIQAACEIAABCAAgT0I8Ei+xzlQBQQgAAEIQAACEIAABCDQSUAeq1t9p+xf7pH+X44YIAABCEAAAhCAAASOJMAj+ZHHRtEQgAAEIAABCEAAAhCAQPR4be0jpKyWzEc0iYUABCAAAQhAAAIQ2IsAj+R7nQfVQAACEIAABCAAAQhAAAJJAvJgXeuTUqFbpB0GsAABCEAAAhCAAAQgcBwBHsmPOzIKhgAEIAABCEAAAhCAAAQKgegBW9tHSGkdPR7RJBYCEIAABCAAAQhAYD8CPJLvdyZUBAEIQAACEIAABCAAAQgkCOiH62ickAldVmiGyViAAAQgAAEIQAACEHiMAI/kj6EnMQQgAAEIQAACEIAABCAwQiB6xNb2q/paQ4+v6hEHAQhAAAIQgAAEILAvAR7J9z0bKoMABCAAAQhAAAIQgAAEKgT043U0roRXl2brVZOxCAEIQAACEIAABCDwKAEeyR/FT3IIQAACEIAABCAAAQhA4CqB6CHb2nv1bbzMe3XwhwAEIAABCEAAAhA4gwCP5GecE1VCAAIQgAAEIAABCEAAAoaAPF63ehNWnUZa1SAWIQABCEAAAhCAAASOJsAj+dHHR/EQgAAEIAABCEAAAhD4NoHoUVvbs4R0jB5n4/GDAAQgAAEIQAACEDiTAI/kZ54bVUMAAhCAAAQgAAEIQAAC/yOgH7SjcQ1WFCP2WixrEIAABCAAAQhAAALnE+CR/PwzZAcQgAAEIAABCEAAAhD4NAF5zF7Rfxosm4cABCAAAQhAAAIfIcAj+UcOmm1CAAIQgAAEIAABCEDgzQR4IH/z6bI3CEAAAhCAAAQgsJYAj+Rr+aIOAQhAAAIQgAAEIAABCNxEYNZD+U3lkgYCEIAABCAAAQhAYBMCPJJvchCUAQEIQAACEIAABCAAAQiMExh9KB+vAAUIQAACEIAABCAAgdMI8Eh+2olRLwQgAAEIQAACEIAABCDQJHDlsbwpigMEIAABCEAAAhCAwCsJ8Ej+ymNlUxCAAAQgAAEIQAACEICAJuA9mut1xhCAAAQgAAEIQAAC3yXAI/l3z56dQwACEIAABCAAAQhAAAIQgAAEIAABCEAAAhD4PAEeyT9/BQAAAQhAAAIQgAAEIAABCEAAAhCAAAQgAAEIQOC7BHgk/+7Zs3MIQAACEIAABCAAAQhAAAIQgAAEIAABCEAAAp8nwCP5568AACAAAQhAAAIQgAAEIAABCEAAAhCAAAQgAAEIfJcAj+TfPXt2DgEIQAACEIAABCAAAQhAAAIQgAAEIAABCEDg8wR4JP/8FQAABCAAAQhAAAIQgAAEIAABCEAAAhCAAAQgAIHvEuCR/Ltnz84hAAEIQAACEIAABCAAAQhAAAIQgAAEIAABCHyeAI/kn78CAIAABCAAAQhAAAIQgAAEIAABCEAAAhCAAAQg8F0CPJJ/9+zZOQQgAAEIQAACEIAABCAAAQhAAAIQgAAEIACBzxPgkfzzVwAAEIAABCAAAQhAAAIQgAAEIAABCEAAAhCAAAS+S+D/ALS2X/ojDldsAAAAAElFTkSuQmCC;" parent="h8BnkVaSkNDdI-Pgu3pd-173" vertex="1">
          <mxGeometry x="13.32763948497854" y="58" width="200.62857296137338" height="30.891564377682407" as="geometry" />
        </mxCell>
        <mxCell id="h8BnkVaSkNDdI-Pgu3pd-172" value="" style="group" parent="h8BnkVaSkNDdI-Pgu3pd-137" vertex="1" connectable="0">
          <mxGeometry x="-3" y="-20.74000000000001" width="230" height="130" as="geometry" />
        </mxCell>
        <mxCell id="h8BnkVaSkNDdI-Pgu3pd-178" style="edgeStyle=orthogonalEdgeStyle;rounded=0;orthogonalLoop=1;jettySize=auto;html=1;" parent="h8BnkVaSkNDdI-Pgu3pd-172" source="h8BnkVaSkNDdI-Pgu3pd-33" edge="1">
          <mxGeometry relative="1" as="geometry">
            <mxPoint x="-112.10000000000002" y="65" as="targetPoint" />
          </mxGeometry>
        </mxCell>
        <mxCell id="h8BnkVaSkNDdI-Pgu3pd-33" value="&lt;div style=&quot;&quot;&gt;&lt;b style=&quot;font-size: 18px; font-family: Arial; background-color: initial;&quot;&gt;Monthly data synthesis&lt;/b&gt;&lt;b style=&quot;font-size: 18px; background-color: initial; font-family: &amp;quot;Times New Roman&amp;quot;;&quot;&gt;：&lt;/b&gt;&lt;/div&gt;" style="text;whiteSpace=wrap;html=1;strokeColor=#97D077;dashed=1;align=right;strokeWidth=1.2;" parent="h8BnkVaSkNDdI-Pgu3pd-172" vertex="1">
          <mxGeometry width="230" height="130" as="geometry" />
        </mxCell>
        <mxCell id="h8BnkVaSkNDdI-Pgu3pd-134" value="&lt;font size=&quot;1&quot; data-font-src=&quot;https://fonts.googleapis.com/css?family=Arial&quot; face=&quot;Arial&quot; style=&quot;&quot;&gt;&lt;b style=&quot;&quot;&gt;Weighted average&lt;/b&gt;&lt;/font&gt;" style="rounded=0;whiteSpace=wrap;html=1;fillColor=#d5e8d4;strokeColor=#82b366;" parent="h8BnkVaSkNDdI-Pgu3pd-172" vertex="1">
          <mxGeometry x="35.04004309570839" y="40" width="156.30418387502246" height="41.26" as="geometry" />
        </mxCell>
        <mxCell id="h8BnkVaSkNDdI-Pgu3pd-135" value="" style="shape=image;verticalLabelPosition=bottom;labelBackgroundColor=default;verticalAlign=top;aspect=fixed;imageAspect=0;image=data:image/png,iVBORw0KGgoAAAANSUhEUgAAAl8AAACECAYAAACu2U7YAAAZMklEQVR4Ae2cja7mJq9G5/5vukec+dx6e9tgfpJAsiJVgLEf7AW8pVNp/vzD94vAnz9//un555cABghAAAIQgAAEIBAQ+BPYP2nueXB5vp+ERtEQgAAEIAABCHQR4PH1P1zeY2rU1rUDOEMAAhCAAAQg8CkCPL7++afrfzFmH2SfOkUUCwEIQAACEIBAmsDnH1+1x5SlWPP15mw8YwhAAAIQgAAEIPDpx5f3YCq2zBfFWntGCx8IQAACEIAABL5DIPfSeCkP+1DKPrwEhxdvbeJLCwEIQAACEIAABAqBzz6+7CNJxj3HQmJabY8mvhCAwJ4EWvdc5vfMnqwgAAFLQO5sq7VxK8Y8voK/0ysLt7VpZZ4PAhA4m0Dmnlufsysmewi8m4C9r5nxSiKffRm0QGcht3RkPquHHwQgsA8Bub8z7T7VkAkEIDBzlyV2BcVPPr4EYKvNAm7plHk+CEDgLAKZe531OatysoXAOwlk72vGb5bQJ18FGbDFJ/tl9LJa+EEAAs8TyNzpXp/nqyIDCHyXQO99zfjP0My/MGZW2Sw2A7X4ZL+MXlYLPwhA4FkCtfscZVaL0XNRPHYIQOA6AvoO2n60qvWLxlF8y55/YbSUDpqPIFp7tiQb542zWvhBAALPEhi9v16cZ3u2OlaHwPcIjN5DL86zjRD95OOrgPIAalsPTB0X9Xv08IUABJ4h4N3fnky8eM/Wo4kvBCAwTmD2/nnxnq03w88+vgooD6DYekBKTK3t0cMXAhC4n8Cq+1vTkbn7q2NFCHyPgNw3r+2h4cVbW49e8f304+v/AZi/56sXoKdhN6WM+SAAgb0JePdW27LZ65haP6uHHwQgMEagdv/KXPZr6ch8Vq/45VfvUf2Yr4CvtR9DQrkQOI5A7f7KXLYo8a+1WS38IACBMQK1+ydzWWXxr7VZreLH46uHluNb2wiZc8IwQQACmxGQ+1prsynXNGQuq4UfBCAwRkDuWq3NKtc0ZC6rVfx4fPXQcnwFeq11wjBBAAKbEajdYT2XSVv7R/2MDj4QgMA4gejuWXtmBRvjjTM64sPjS0gMtB58axuQJQQCEHiAgL273jiblhdrbVkt/CAAgTEC9s5F44x6FGvtGa3iw+MrS8rxs9C9sROGCQIQ2JCAd3+tLZu2jYvGWT38IACBfgLRvdP2HlUdF/Wzejy+sqSMXwRe200IQwhAYHMC+v56/Wz6Xqy1ZbXwgwAExgnYe2fHWWUbF43TellH/H4SiMCL/ac3IwhA4BQCcodt25O/jfXGPXr4QgAC4wS8+1dsPV+koe1dej3O+P4loGF7fThBAAJnE9D3eqQSHR/1R3SJgQAExgjoeziioOOjfo9u39OvR/mlvhF0sb+0bMqCAAQ6CMjvQa3tkMMVAhB4mEDtLstcT4o8vjpoCeCo7ZDCFQIQeCmB6PdB219aOmVB4LUE9P31+r2F8/jqIOYBF1uHDK4QeIxAOa981xKQ34Rae20GqEMAAisJ1O6yzPWut80vcSlg508Ae+3OeZMbBISAnF0Z015DQDhH7TWrogqB/wjI2fvPQm+GgPCM2hHtLV48tqCRQq6Msfnp8ZXrog2BVQT0mS19vmsIWM7e+JqVUYXAXwL2zMFljoDl6Y1HVnj8V9grpNh2+XbPbxdO5LEvAc7wPXsTcdb2ezJhla8S0GdN97/KY0XdmqPXH13j0VeOV4i2jRa1Kk7novsZfe1f+nwQeIKAPYd2/EROb13TsrXjt9ZNXXsQsOfNjvfI8qwsLEM7nqnmsVeBLSIazxQ3Ezubj42fyYVYCIwQsGcwGo9oE/OTQMRW7D+9GUFgLQE5Z6127arvVrua5SOPr1ZRdv7uLbbryzibh/jrNhuLHwRWENBnL9NfseZXNVp8v8qFuu8h0Dp/dv6erM5exTKz4xXV3f74skVkxyuKzWhE+WRixcfTkDlaCFxNwDt/GdvVeb1Vv8b2rTVT1x4EamevNrdH9vtmcQe7Wx9ftYIyc1dvVZRD77qeTq8G/hAYIeCdvR7byJpfjqmx/TIXar+eQO3sZeauz/DMFWrsVlZ02+OrVlCZK1/LR/xWAtBa3vp6PttfpZNdDz8IFALeubO2Hj+o1glYtnpcj2RWCMBMSPS1mlvUL4rRnNj7Vn2/t3Dx2tXV3/L48grRNl2Utkd97b+q7601ou3pFBsfBK4kEJ07bdfra3vU1/70fxKImBU7X46AxzAX+W0vj5u2WTp6zutb/6+OPTZiu4LJ5b8UknzURkVF/mKP4kbsonlVO5ITMRDIEsicW09rNM7T+pIt4vYlBitqhWM/xYiZ2CNFmY/aKO4r9ohLsV/1Xae84I88a0BWQWmtsWL+qs1DFwKt89ki1Iov83z/EYh4/ecR92xs7PmNGctDxt+ovr9K4RO1LcUoTuyt+LfOS/22zdar47Ixxe+yX1adkNfPJunFaltWx/PTOlf2vbWxQWCWQOvM9uiv1OpZ9yTfiFG2Bi8+G/tGP49HsfH9JhCxEvvvCN8i/lHrR73XOsvBi8/SWn7SvWS0LZuY9tPxXl/7ZvuezlW2bE74QSBLoHVWszra7wpNrX9yP2LTU5PV6Il9o6/lIeM31jpTk3CJ2l7tSEfsvXqn+ku9tu2pZyq2Z6Gsr01Ixtl4z080bOv5tmxW4+pxKx/mITBCIDq3I1oSc4WmaJ/armDiaZzKY1XeHpNi4/tJIOI0wyrS/Lnye0er6rc6PcQuO+kzSUUFrNK0OlePo3qwQ2CWgD27s3ol/grNFXk9oWFZyLg3F4nTba/G2/w1C91/W52r6rmC0RWaq+q9UkfXLf3e9SROtz0alz2+ShKSVE9CLd8VmqJxR9uqh3kIzBKQczyro+Ov0NT6p/SFg25Hctfx0h/ReVOMcLDtm2pcXUthtfq7QnN1jiv17HkbrX9WZ/1OrqR0kZYH7SrbRSUgCwEIXEzA+00YXXKl1mgOu8V5TIqNDwJXEfDO3Ohas1qc9FHyxEEAAq8l4P2wrra9Fl6ysIhnMhw3CHQRiM7bSntPQjy+emjhCwEIvJ7Ayh/jmtbrQTYKjNg0wpiGQDeB6KyttvckxuOrhxa+EIDAqwms/jGO9F4NMVkcbJKgcJsiEJ2z1fbeJC99fOniehPL+Gv90ueDwBcJyD24qnbRf/sd03Ve3b9qr07SjRifVMOduWpeV6yr9Uv/DZ+t6cpxL6/lhDPF9SZp/WtrWF/GEHgbgdr5l7kVNYuWbVdo76hh67xyvGP9d+cU8b07j53Xixhp+4r8tZ7ur9B+UkPXcnW/t85lj6/ewnoTFf/MOuJLC4G3Ecicf+0zWr/WiPqj2rvGRXVeYd+VwZ15RVzvzGHXtSI2NftoLTXNMnfy16pt5XwvpyVkRwvoTvbPn3//7rDamr26+EPgBAK1M1+b662tpqXnenV399e1Xd3fncUd+UWM71h75zUiLhl7b10ZzeJz6petb4VfL6NpqrNJ9yTcs1aPLr4Q2JlAz7mPfLP1RfGRPat7gl9U42r7CSzuyDHiesfau64RMcnae+rKaha/U7+eGmd8R/hMUZ1JVsdmEtf+mX5GEx8I7E4gc9YzPtk6M1raJ6uLHwQsAX2OdN/6fWWsGcz0s7x618jq4pcjMPz4qm2cXrrmJ3PaP+qLb7aNdLBD4CQCtfOu66j5yZz2j/rim20jHewQaBGIzlgr7o3zEYtit1/N1/O38WXc0vDmPR1s4wR+72xCy9sYsdlwsddaG+ONa/HRnKeDLSYQcXy7PSby7EyNu82s5itzNsYbi2+29TSwQSBDIDpjmdi3+fSwiHy1PcNH+2f6GU188gSWPr68ZTObWnwyX1ZL/DKa+PwlIMy+2u52Dmr74OVa85c5L87axDfb2njGEMgSiM5YNv4tfr0cIn9tz7DR/pl+RhOfPIHcq0fpRZukXH50I39r/xEUDGxMaxzIYDYEWhy/MG+QPD6MmEeJRf7aHsVau45p9W0sYwhkCURnKxv/Fr8eDpGvtWfZ2LjaOKuJX47AUY+vUlLtcOi5XPl49TDVfN/Y3+U0RGyj/CJ/a4/iPbuNjcZeLDYIZAhwpuJ/n0X8ImbWHsV7dhsbjb1YbOMEuh5fvZsS+Vt7b/o23hv3an7Z3+P3NdtO+x+xj3KM/K09io/sNt4bR7HYIdAi4J2nYvvS18sg8rf2XoY23hv3auJfJ9B10r0NKbboi/ytPYqv2a2GHddimftNwPL70vg3jWctEfsoq8jf2qP4mt1q2HEtljkI1AjYsyTjWsyb5qRe20Y1Wr9oHMXX7JGW2GuxzI0RiF9ORk82wWuN679Dz9ez/RvQ0fF0tK1DClcIbENAn2HdjxLUPrV+FN+y1zTLHB8ERglEZ2tU77S43vojf2sf5WB19HhUk7iYQPrXU2+E7kfS2qfWj+Iz9qt0M2vjA4ErCERnOlor8rf2KL5ltzp63IplHgI1Avos6X4t5i1zul7bj2q0ftE4im/ZI71i51tPIE012pgopcjf2qP4jN1q6XEmHh8I7EZAn2Hp13IUn1Zb02jNRdqtOOYhUCPw5XPVW3vkb+013q05q6XHrVjm+wlMPb5qy+mNq/VrGq25SLcVxzwEdiXgnekoV8/Xs0XxWbunWWx8EJgh8OVz1Vt75G/tV+xHWYNvPYEuqtmNtn7ReLacq3Rn8yIeAjME9Lmu6Wi/Wr+mkZmLtDOx+JxBINrjL9if2iHLtpaH9Y3GNY3W3BWarTW/PN/1+MqCijbR2rN6kZ/Vk3Hkjx0CbyIg573VztYc6c/qEr8HgWh/v2TfYyf8LLL74EfnrdE6eQU8ewjw+OqhhS8ENiEQ/VBa+2y6Vk/Gs7rE70NA9vTr7T478jOT7L78jOofRev0KxGRIbD88RVtoLVnkqv5WD0Z12KYg8BbCMh5b7Wz9Ub6s7rE70Mg2uMv2ffZjd+ZZPfhd2SfJVqnTwXvLAEeX1lS+EFgIwLRD6W1z6Zs9WQ8q0v8XgRkX7/Y7rUTP7PJ7sfPqLGRt9aYElEZAksfX97mRbZMcjWfq3RrazIHgR0IRGff2lfkajVlvEIbjb0IyN5+qd1rB35nk92L35F9lmidPhW8ewg88vjqSTDy5bBEZLC/nUB09q19loPVk/GsLvEQKATkPNkWOn8JWC618SyzSHtWl/iYwJGPLw5KvKHMvJtAdPY9+ywJT7PY+CCwggDnq04x4mPtdZXcrNWUcS4arxECS39JZcNa7UiiOibS1z70IfBGAtHZt/YVtVtNGa/QRgMCcp5sC5m/BCyXaDzL6yrd2bzeHr/s8RVtoLWvAGo1ZbxC+6sawvCL7Ul7nt2f2ZqidWZ1iYeAEOCMCQm/jfhYux+dt1o9GecV8BwhcNzjSw6GbUeKJ+YvAcvyi+NTzkJ2b2bridaZ1Y3i7XqRn7WPxlkdxvcTsHsn4/sz2W9FYdFqV2QerTGr7enOar4pnsfXm3ZzsBbvknzRNojv1rDsvswm5a0zq2njvTWszcaUsfXxxl4ctr0IePtWbHy5M76C1VV7EOmKfXSPJV7aUZ0d4paddIHRameL9vRnNb8e7zH9mu2EM5Ddk9laonVmdSU+0o/sEidt5Gft4k+7JwG7XzLeM9t7sxIWrXY2q0h/RjfStPaRNaxGGZ/6Lcvcg+LZZkB5eifDn2GxMjbi+iX7Sp5XaWX3Y3b9aJ1Z3RIfabfssnbLz85LHO1+BOxeyXi/TO/PSFi02pnMIu0rNFesFWkU+4nfsqxrYGRuFpDo6HZWk/i/BDTTr/VPOQPZfZmpJ1pjRlNiI+0r7bI27X4Eon3fL9P7M4rYWPtMZlZLxqOaEt/bZtZraWY0dvM55vEVwd8NKPlA4CoC0R2w9pn1rZaMZzRLrOjY1tO1PtFYYqN5sYsf7V4EZH9su1eWz2RjmUTj0ezu0NO5ResVe+abjc+scbdPrvJEVjU4MpeQCV1EQ7ehMxMQeCEBffZr/dHSI81RPYnzdGXOaz1/a5M4a/fG4ku7FwFvr4qNL/6PFctslJXVkfEqPasj+l5rfb2xFyc2z/8E27KTLiBq7SiQSHNUjzgInEogugvaPlqb1tD9UT2J01rSlzmvFZ9aK3E1H5kTX9q9CMj+2HavLJ/JxjKJxiPZrdQq63t6Oi9vXtu0r9fXvl7fiznBtv3jy4NdbHwQ+CKB6D5o+wgXHa/7I1o6RmtJX897ffGLWh0T+Wi79qe/DwG9R7q/T4bPZaJ51PojGUZ6q7SsTrSe2K2/HYtf1Fr/U8bLXjERGGvvAWNj9bhHB18IvIWAvgNRv7fWVTreulbb87E2G2PH2t/O2bH2pb8XAbtXMt4ry+eyER61tje7SKtXR/w9PZmT1vMRm/jUWvH12lrc7nNHPr52h0p+ELiKgPcD5Nmy63uxxbbi87Qzul6ctmkNbbd97Ud/PwJ2v2S8X6bPZCQ8am1PZpFOj4b1tZqt+Za/jS9jG6PHnv8ptjW/sv+rVkOJ+hkwUWyx80Hg6wRq90PmMozE12sz8S2fUV0vTmzemjKnW88P214E9H7p/l5ZPpeNZlLrZzKM4jOxkY+naX09H22z/nasfb2+9T9pvPw14wHybBEkz1dsUQx2CHyJgNyHVhsxGY2L9Gp2vVbNT8/pGNvXfvTPJmD3VsZnV7U2e2HSaqNVR+MiPWvX+naujPW87Xv+1mZj7Nj6nzR+7PFlIbbGJ0ElVwhcTaB1X0bnr867pd/KuxXP/DkEor0+p4J7Mo04zdqvzr6VX2b9FRqZdZ7wWf74KkW0gPXOPwGGNSGwO4Hee9Ty36HeE3LcgdMbcoj2+g21rawh4jRqX5lbTauVXy1W5moa4nNqe8njq8CoQeuZOxUseUPgDgI9d6nme0eumTVOyDFTBz5tAtFetyO/5xGx6rXfSa6WWyaPWnyZO/27vIIWwNr86XDJHwJ3Eajdo9rcXfll1zkp12xN+PkEor32vbEWAhGzjP1Ogq18Mrms0Mis85TP5Y8vKawFUs9LDC0EIJAnoO9Qpp9XvsezlfM9WbDKXQSi/b5r/ZPXidhF9rtrjfIQeyYf8Y3ajMbOPrc9vjwIAtWbwwYBCMwTOOmOSa5RO08DhZ0IsM9rd0N4rlUdU5NcvDar6MWKLauxs9+jj6+dwZAbBCBwLwH5YfXaezNhtTsIePtcbHznE4j2Nru/tfisxu4UOem77xD5QeAFBOTHNCpF5qM2irN2HW/nGO9FQO+V7u+VJdn0EtB76fUzel6ctmU0dvfh8bX7DpEfBA4moH8wdd+WpOe8vvX3xqNxnha26wl4+1VsfGcTiPZV7JnqxDdqMxq7+3DSd98h8oPAoQSiH85it1/N1/PPxFsfxnsRiPZ8ryzJppdAtK9iz+iJr9dm4k/w+f0reELW5AgBCGxPwPvh1DZdgLbbvvaL+jamjPn2JsCe7b0/o9l5+yq2jKb4Rm1G4wQffqFO2CVyhMBhBKIfTm2XkrTN64tfrbVxNV/m9iGg922frMhkhoDeU9vP6NoYO85onODD4+uEXSJHCBxGwP5gemMpyZvTNvGLWu0r/cgX+34Eyp7xvYeA3MGorVUaxWh7Lf6kOU79SbtFrhA4hID+sfT6UoY3Z23i67XWt4z5IACBZwl491JstczEJ2prsafN8Ut12o6RLwQOIBD9eBa7/mp+Mqf9pS9ztpV5WghA4DkC9l7qsZeVnq/1vdhTbT9/CU+tgrwhAIGtCNR+QK+c2woCyUDgowSuuuNvwsnj6027SS0Q2IhA7w9wSb03RvtvVDqpQODzBPTdXNF/G1AeX2/bUeqBwEYEsj+6OuVsjPjpWPoQgMA+BOSOrmj3qWpNJjy+1nBEBQIQCAi0fniDsNSfgkWx2CEAgX0ItH4DMvP7VLMmEx5faziiAgEIJAjIj2zC9V8XiZH23wk6EIDAUQTkDutWCtA2ry9+b2l5fL1lJ6kDAhCAAAQg8DABeTj1piFxXturdYI/j68TdokcIQABCEAAAhsT8B5NxZb5olixZzRO88mROa0q8oUABCAAAQhA4BYC8kiK2lYSUVyxv/V7b2Vv3THqggAEIAABCGxEoPZ4aj2gZmI3QtCdCo+vbmQEQAACEIAABCBQCLQeTzOPrzcT5vH15t2lNghAAAIQgMCFBGYeX7XYC1PeQprH1xbbQBIQgAAEIACB8wjUHlC1P/WqxZ1HoT9jHl/9zIiAAAQgAAEIQKDxvx0jQF9/eBUuPL6i04EdAhCAAAQgAIEmgdpjqmeuudCLHHh8vWgzKQUCEIAABCBwN4GeB1bke3fOT6/H4+vpHWB9CEAAAhCAwOEEokdVy3542cPp8/gaRkcgBCAAAQhAAAJCoPXQ0vMS89WWx9dXd566IQABCEAAAhcR0A8t6V+01JGyPL6O3DaShgAEIAABCEDgVAI8vk7dOfKGAAQgAAEIQOBIAjy+jtw2koYABCAAAQhA4FQCPL5O3TnyhgAEIAABCEDgSAI8vo7cNpKGAAQgAAEIQOBUAjy+Tt058oYABCAAAQhA4EgCPL6O3DaShgAEIAABCEDgVAI8vk7dOfKGAAQgAAEIQOBIAjy+jtw2koYABCAAAQhA4FQCPL5O3TnyhgAEIAABCEDgSAL/B1/saeQWdSVEAAAAAElFTkSuQmCC;" parent="h8BnkVaSkNDdI-Pgu3pd-172" vertex="1">
          <mxGeometry x="55.709999999999994" y="91.5" width="114.96" height="25" as="geometry" />
        </mxCell>
        <mxCell id="h8BnkVaSkNDdI-Pgu3pd-168" style="edgeStyle=orthogonalEdgeStyle;rounded=0;orthogonalLoop=1;jettySize=auto;html=1;" parent="1" source="h8BnkVaSkNDdI-Pgu3pd-153" target="h8BnkVaSkNDdI-Pgu3pd-166" edge="1">
          <mxGeometry relative="1" as="geometry" />
        </mxCell>
        <mxCell id="h8BnkVaSkNDdI-Pgu3pd-153" value="&lt;p style=&quot;border-color: var(--border-color); margin-top: 0pt; margin-bottom: 0pt; margin-left: 0in; direction: ltr; unicode-bidi: embed; word-break: normal;&quot;&gt;&lt;font size=&quot;1&quot; data-font-src=&quot;https://fonts.googleapis.com/css?family=Arial&quot; face=&quot;Arial&quot; color=&quot;#ffffff&quot;&gt;&lt;b style=&quot;font-size: 22px;&quot;&gt;Geocoding and resample&lt;/b&gt;&lt;/font&gt;&lt;/p&gt;" style="shape=parallelogram;perimeter=parallelogramPerimeter;whiteSpace=wrap;html=1;fixedSize=1;fillColor=#0096c7;strokeColor=none;align=center;" parent="1" vertex="1">
          <mxGeometry x="1096.5" y="475" width="204" height="50" as="geometry" />
        </mxCell>
        <mxCell id="h8BnkVaSkNDdI-Pgu3pd-154" value="" style="shape=flexArrow;endArrow=classic;html=1;rounded=0;endWidth=58.472222222222214;endSize=8.275;width=30.833333333333336;" parent="1" edge="1">
          <mxGeometry width="50" height="50" relative="1" as="geometry">
            <mxPoint x="1197.83" y="306" as="sourcePoint" />
            <mxPoint x="1197.83" y="352" as="targetPoint" />
          </mxGeometry>
        </mxCell>
        <mxCell id="h8BnkVaSkNDdI-Pgu3pd-155" value="" style="shape=flexArrow;endArrow=classic;html=1;rounded=0;endWidth=58.472222222222214;endSize=8.275;width=30.833333333333336;" parent="1" edge="1">
          <mxGeometry width="50" height="50" relative="1" as="geometry">
            <mxPoint x="1198.83" y="421" as="sourcePoint" />
            <mxPoint x="1198.83" y="467" as="targetPoint" />
          </mxGeometry>
        </mxCell>
        <mxCell id="h8BnkVaSkNDdI-Pgu3pd-160" value="" style="group" parent="1" vertex="1" connectable="0">
          <mxGeometry x="936.5" y="360" width="516" height="50" as="geometry" />
        </mxCell>
        <mxCell id="h8BnkVaSkNDdI-Pgu3pd-146" value="&lt;b style=&quot;font-size: 18px;&quot;&gt;&lt;font data-font-src=&quot;https://fonts.googleapis.com/css?family=Arial&quot; face=&quot;Arial&quot; color=&quot;#ffffff&quot; style=&quot;font-size: 18px;&quot;&gt;Precisely &lt;br&gt;co-registering&lt;/font&gt;&lt;/b&gt;" style="rounded=0;whiteSpace=wrap;html=1;fillColor=#0096c7;" parent="h8BnkVaSkNDdI-Pgu3pd-160" vertex="1">
          <mxGeometry width="156" height="50" as="geometry" />
        </mxCell>
        <mxCell id="h8BnkVaSkNDdI-Pgu3pd-151" value="&lt;font data-font-src=&quot;https://fonts.googleapis.com/css?family=Arial&quot; face=&quot;Arial&quot; size=&quot;1&quot; color=&quot;#ffffff&quot; style=&quot;&quot;&gt;&lt;b style=&quot;font-size: 18px;&quot;&gt;Initial offset estimation&lt;/b&gt;&lt;/font&gt;" style="rounded=0;whiteSpace=wrap;html=1;fillColor=#0096c7;" parent="h8BnkVaSkNDdI-Pgu3pd-160" vertex="1">
          <mxGeometry x="180" width="156" height="50" as="geometry" />
        </mxCell>
        <mxCell id="h8BnkVaSkNDdI-Pgu3pd-157" style="edgeStyle=orthogonalEdgeStyle;rounded=0;orthogonalLoop=1;jettySize=auto;html=1;exitX=1;exitY=0.5;exitDx=0;exitDy=0;entryX=0;entryY=0.5;entryDx=0;entryDy=0;" parent="h8BnkVaSkNDdI-Pgu3pd-160" source="h8BnkVaSkNDdI-Pgu3pd-146" target="h8BnkVaSkNDdI-Pgu3pd-151" edge="1">
          <mxGeometry relative="1" as="geometry" />
        </mxCell>
        <mxCell id="h8BnkVaSkNDdI-Pgu3pd-152" value="&lt;font color=&quot;#ffffff&quot; style=&quot;&quot;&gt;&lt;b style=&quot;font-size: 18px;&quot;&gt;&lt;font data-font-src=&quot;https://fonts.googleapis.com/css?family=Arial&quot; face=&quot;Arial&quot; style=&quot;font-size: 18px;&quot;&gt;Refining NCC &lt;br&gt;peak estimation&lt;/font&gt;&lt;/b&gt;&lt;br&gt;&lt;/font&gt;" style="rounded=0;whiteSpace=wrap;html=1;fillColor=#0096c7;" parent="h8BnkVaSkNDdI-Pgu3pd-160" vertex="1">
          <mxGeometry x="360" width="156" height="50" as="geometry" />
        </mxCell>
        <mxCell id="h8BnkVaSkNDdI-Pgu3pd-159" style="edgeStyle=orthogonalEdgeStyle;rounded=0;orthogonalLoop=1;jettySize=auto;html=1;exitX=1;exitY=0.5;exitDx=0;exitDy=0;entryX=0;entryY=0.5;entryDx=0;entryDy=0;" parent="h8BnkVaSkNDdI-Pgu3pd-160" source="h8BnkVaSkNDdI-Pgu3pd-151" target="h8BnkVaSkNDdI-Pgu3pd-152" edge="1">
          <mxGeometry relative="1" as="geometry">
            <mxPoint x="166.5" y="35" as="sourcePoint" />
            <mxPoint x="190.5" y="35" as="targetPoint" />
          </mxGeometry>
        </mxCell>
        <mxCell id="h8BnkVaSkNDdI-Pgu3pd-185" style="edgeStyle=orthogonalEdgeStyle;rounded=0;orthogonalLoop=1;jettySize=auto;html=1;" parent="1" source="h8BnkVaSkNDdI-Pgu3pd-166" target="h8BnkVaSkNDdI-Pgu3pd-184" edge="1">
          <mxGeometry relative="1" as="geometry" />
        </mxCell>
        <mxCell id="h8BnkVaSkNDdI-Pgu3pd-166" value="&lt;span style=&quot;border-color: var(--border-color);&quot;&gt;&lt;font color=&quot;#ffffff&quot; style=&quot;&quot;&gt;&lt;font style=&quot;&quot; data-font-src=&quot;https://fonts.googleapis.com/css?family=Arial&quot; face=&quot;Arial&quot;&gt;&lt;font style=&quot;&quot;&gt;&lt;b style=&quot;&quot;&gt;&lt;font style=&quot;font-size: 21px;&quot;&gt;Geolocation bias correction&lt;/font&gt;&lt;br&gt;&lt;/b&gt;&lt;/font&gt;&lt;/font&gt;&lt;/font&gt;&lt;/span&gt;" style="shape=document;whiteSpace=wrap;html=1;boundedLbl=1;size=0.16177957532861437;fillColor=#0096c7;strokeColor=none;" parent="1" vertex="1">
          <mxGeometry x="1118.3700000000001" y="577.5" width="160.25" height="69.5" as="geometry" />
        </mxCell>
        <mxCell id="h8BnkVaSkNDdI-Pgu3pd-167" value="" style="endArrow=classic;html=1;rounded=0;exitX=1.038;exitY=0.16;exitDx=0;exitDy=0;exitPerimeter=0;" parent="1" edge="1">
          <mxGeometry width="50" height="50" relative="1" as="geometry">
            <mxPoint x="1106.056" y="550" as="sourcePoint" />
            <mxPoint x="1197.02" y="550" as="targetPoint" />
          </mxGeometry>
        </mxCell>
        <mxCell id="h8BnkVaSkNDdI-Pgu3pd-170" value="" style="group" parent="1" vertex="1" connectable="0">
          <mxGeometry x="110.9" y="425" width="212" height="159" as="geometry" />
        </mxCell>
        <mxCell id="h8BnkVaSkNDdI-Pgu3pd-174" style="edgeStyle=orthogonalEdgeStyle;rounded=0;orthogonalLoop=1;jettySize=auto;html=1;exitX=1;exitY=0.25;exitDx=0;exitDy=0;" parent="h8BnkVaSkNDdI-Pgu3pd-170" source="h8BnkVaSkNDdI-Pgu3pd-147" edge="1">
          <mxGeometry relative="1" as="geometry">
            <mxPoint x="325" y="40" as="targetPoint" />
            <Array as="points">
              <mxPoint x="275" y="40" />
              <mxPoint x="275" y="40" />
            </Array>
          </mxGeometry>
        </mxCell>
        <mxCell id="h8BnkVaSkNDdI-Pgu3pd-147" value="&lt;p style=&quot;border-color: var(--border-color); font-style: normal; font-variant-ligatures: normal; font-variant-caps: normal; letter-spacing: normal; orphans: 2; text-indent: 0px; text-transform: none; widows: 2; word-spacing: 0px; -webkit-text-stroke-width: 0px; background-color: rgb(251, 251, 251); text-decoration-thickness: initial; text-decoration-style: initial; text-decoration-color: initial; margin-top: 0pt; margin-bottom: 0pt; margin-left: 0in; direction: ltr; unicode-bidi: embed; word-break: normal;&quot;&gt;&lt;font data-font-src=&quot;https://fonts.googleapis.com/css?family=Arial&quot; face=&quot;Arial&quot; style=&quot;font-size: 18px;&quot;&gt;&lt;b style=&quot;&quot;&gt;&lt;font style=&quot;&quot;&gt;&amp;nbsp; Stable surface&lt;/font&gt;&lt;/b&gt;&lt;/font&gt;&lt;/p&gt;" style="text;whiteSpace=wrap;html=1;strokeColor=#97D077;dashed=1;align=center;strokeWidth=1.2;" parent="h8BnkVaSkNDdI-Pgu3pd-170" vertex="1">
          <mxGeometry x="5" width="212.00000000000003" height="159" as="geometry" />
        </mxCell>
        <mxCell id="h8BnkVaSkNDdI-Pgu3pd-148" value="&lt;p style=&quot;margin-top: 0pt; margin-bottom: 0pt; margin-left: 0in; direction: ltr; unicode-bidi: embed; word-break: normal;&quot;&gt;&lt;span style=&quot;font-size: 16px;&quot;&gt;&lt;b style=&quot;&quot;&gt;&lt;font data-font-src=&quot;https://fonts.googleapis.com/css?family=Arial&quot; face=&quot;Arial&quot;&gt;vx&amp;lt;5 and vy&amp;lt;5 from&amp;nbsp;&lt;/font&gt;&lt;/b&gt;&lt;/span&gt;&lt;/p&gt;&lt;b style=&quot;border-color: var(--border-color);&quot;&gt;&lt;font style=&quot;border-color: var(--border-color); font-size: 15px;&quot; data-font-src=&quot;https://fonts.googleapis.com/css?family=Arial&quot; face=&quot;Arial&quot;&gt;reference velocity&lt;/font&gt;&lt;/b&gt;" style="rounded=0;whiteSpace=wrap;html=1;fillColor=#d5e8d4;strokeColor=#82b366;imageBorder=#ffe6cc;" parent="h8BnkVaSkNDdI-Pgu3pd-170" vertex="1">
          <mxGeometry x="18.042553191489333" y="41.75999999999999" width="184.8459574468085" height="41.26" as="geometry" />
        </mxCell>
        <mxCell id="h8BnkVaSkNDdI-Pgu3pd-149" value="&lt;b&gt;&lt;font style=&quot;font-size: 16px;&quot;&gt;Rock outcrops&amp;nbsp;&lt;/font&gt;&lt;/b&gt;&lt;b style=&quot;font-size: 16px; background-color: initial;&quot;&gt;&amp;nbsp;&lt;/b&gt;&lt;br&gt;&lt;font data-font-src=&quot;https://fonts.googleapis.com/css?family=Arial&quot; face=&quot;Arial&quot; style=&quot;font-size: 12px;&quot;&gt;&lt;b style=&quot;&quot;&gt;(Burton-Johnson et al., 2016）&lt;/b&gt;&lt;/font&gt;" style="rounded=0;whiteSpace=wrap;html=1;fillColor=#d5e8d4;strokeColor=#82b366;" parent="h8BnkVaSkNDdI-Pgu3pd-170" vertex="1">
          <mxGeometry x="20" y="106.17000000000007" width="180" height="41.26" as="geometry" />
        </mxCell>
        <mxCell id="h8BnkVaSkNDdI-Pgu3pd-171" value="" style="group" parent="1" vertex="1" connectable="0">
          <mxGeometry x="550.9" y="495" width="239.19" height="90" as="geometry" />
        </mxCell>
        <mxCell id="h8BnkVaSkNDdI-Pgu3pd-186" style="edgeStyle=orthogonalEdgeStyle;rounded=0;orthogonalLoop=1;jettySize=auto;html=1;" parent="h8BnkVaSkNDdI-Pgu3pd-171" edge="1">
          <mxGeometry relative="1" as="geometry">
            <mxPoint x="649.1" y="170" as="targetPoint" />
            <mxPoint x="239.19000000000005" y="30.000000000000227" as="sourcePoint" />
            <Array as="points">
              <mxPoint x="280" y="30" />
              <mxPoint x="280" y="170" />
              <mxPoint x="600" y="170" />
            </Array>
          </mxGeometry>
        </mxCell>
        <mxCell id="h8BnkVaSkNDdI-Pgu3pd-27" value="&lt;font data-font-src=&quot;https://fonts.googleapis.com/css?family=Arial&quot; face=&quot;Arial&quot;&gt;&lt;span style=&quot;border-color: var(--border-color); font-style: normal; font-variant-ligatures: normal; font-variant-caps: normal; letter-spacing: normal; orphans: 2; text-indent: 0px; text-transform: none; widows: 2; word-spacing: 0px; -webkit-text-stroke-width: 0px; background-color: rgb(251, 251, 251); text-decoration-thickness: initial; text-decoration-style: initial; text-decoration-color: initial;&quot;&gt;&lt;font style=&quot;font-weight: bold; font-size: 18px;&quot;&gt;Quartile-based outlier removal method&lt;/font&gt;&lt;span style=&quot;font-weight: bold; font-size: 17px;&quot;&gt;：&lt;br&gt;&lt;/span&gt;&lt;br&gt;&lt;br&gt;&lt;/span&gt;&lt;/font&gt;" style="text;whiteSpace=wrap;html=1;align=center;strokeColor=#97D077;dashed=1;strokeWidth=1.2;" parent="h8BnkVaSkNDdI-Pgu3pd-171" vertex="1">
          <mxGeometry width="239.19" height="90" as="geometry" />
        </mxCell>
        <mxCell id="h8BnkVaSkNDdI-Pgu3pd-136" value="" style="shape=image;verticalLabelPosition=bottom;labelBackgroundColor=default;verticalAlign=top;aspect=fixed;imageAspect=0;image=data:image/png,iVBORw0KGgoAAAANSUhEUgAABT4AAAB1CAYAAABnCf6pAAAgAElEQVR4Ae2djY7guo6j+/1f+gx8e4x2uUhZtuWfJAwwSCLLJPUlXVUnuzv75z8dIiACIiACIiACIiACIiACIiACIiACIiACIiACIvAyAn9eNo/GEQEREAEREAEREAEREAEREAEREAEREAEREAEREIH/9OFTL4EIiIAIiIAIiIAIiIAIiIAIiIAIiIAIiIAIiMDrCOjD5+seqQYSAREQAREQAREQAREQAREQAREQAREQAREQARHQh0+9AyIgAiIgAiIgAiIgAiIgAiIgAiIgAiIgAiIgAq8joA+fr3ukGkgEREAEREAEREAEREAEREAEREAEREAEREAEREAfPvUOiIAIiIAIiIAIiIAIiIAIiIAIiIAIiIAIiIAIvI6APny+7pFqIBEQAREQAREQAREQAREQAREQAREQAREQAREQAX341DsgAiIgAiIgAiIgAiIgAiIgAiIgAiIgAiIgAiLwOgLuD59//vz5b+R/XkdMA4mACIiACIiACIiACIiACIiACIiACIiACIiACEwTGPnWmPZ4D1fnaIi8zxtGfSIgAiIgAiIgAiIgAiIgAiIgAiIgAiIgAiIgAu8nkL8bjpy9dPTh00tKfSIgAiIgAiIgAiIgAiIgAiIgAiIgAiIgAiIgAiEERj545j3eAPrw6SWlPhEQAREQAREQAREQAREQAREQAREQAREQAREQgRAC+SPmyNkbQB8+DVIIvNGuJREQAREQAREQgU4C+l3bCUztryGA3v1U0yECIiACIiACIhBDAP2ujVGWShQB9Iy8NW8G119XXlPU5w1yqg9l7qmdyi1fERABERABEXgKgZ7fq6j3KXMqpwggAuid7qkhTdVEQAREQAREQAT+Euj5ncp6xfIsAfZcWnVv6qkPn16T2/pa8EbXb5tTeURABERABM4RqH+XrEqSfVbpj+rmXNHn0Ty79kXPm/V25ZfPPIH8zKLP88mkIAIiIAIi8BYC6HfMqtmy1yr9Ed2cKfo8kmXnnuh5S72dc4x4lVnztVfnMx8+M5gdZy989YnAGwns+Dd2g8cbn51miiFw8v2MmWBcZefs4ynjd+6ce8QrfmIpIgIjz2ZkD/JWTQS+QmDk38wT93zleWrOMQIn3+mxxHG7ds0elzhGadfcIz4xE7ZVULb2rr8dr//wieDsqHkfwOm+ksXpLPJ/PoHyffrC9fOfmCZYQeD0u79ippbmqZlbuXatn5p/xHcXky/5jDyHiD23MbZmui2r8jyTgPWOvXHtmU9JqVcTOP2ur56P6Z+am+XZWT81+4jvSi4oj9fv1R8+EZjdNe+DONGHWJzIIc93EEDv09tr73hymiKSwA3vfOQ8La0b5k0ZTh63MOjNcZLZW7x7ma/oP8VyZpZTmeX7fAIz790T9z7/iWmCFQROv8srZrI0T8+b/E8fNzAYyRDNDWXwerieIjJItVsPltdbZ3N599d9TO9Uvc5X3p/KJN/nEyjfo69cP/+paYJoAqff/eh5LL3ZWZn2qC7TW10fzXvLvtV83qg/++wYk1FdpreqPpoT7VuVUbrvI4Den7fX3vcUNVEEgdPvfcQMHo3ZOZnHqC7T21EfzXzDvkg+aB6vvuvrJTJItRsPltWqj8xh6aG1EY/oPShXXYv2lN43CNTv0Vfuv/F0NWUvgZPvf2/Wkf7R+Xq9Rnx6PSL6R3LetieCw1c0Rp9dL59en179kf7eTN7+kSza8z0C3vfpTX3fe8qa2EPg5DvuyRfRMzLjiG+vz4hHxJ7enDf2r+Lg1XV9vWTgvCY7+lhGVo/IxLRZPcJzRIPlQfURfe0RAfQuvb2mpy4CjMCpd5/liaz3zhbhfcKzN3dvxhv7e2f+Yn/vc4tg1OMZ4Yc0ejLM9CJv1UQgE5h5t566N8+uswjUBE6903WOFfe9s0Vk6PGM8BvR6Ml4a+/I3OUeNFe5bl2/4sMnAmDVLCAja5ZXvTai37un9uy57/VSvwgkAj3v2K5e75MZzePVV58IIAI97x3af6LWkzn1Rh89/tHes3o92WfZ9XqV/bNzvnV/ychzHc3B45l7TnrnDDPn6PzSeweBmXcK7U1Ucr28zjXv2UPXq4X6PPrqEQFEAL1PVg1p7K5Z+dBadD7kwWrR3hF6LCuqz/ohTU9tha9X0/VfJmwIr8mqPpaL1VflSLrME9VncyDNqNpsNu3/HoHed2+UUI/PqEfe5/HKvTqLQC8Bz/tV9vTqR/eXWTzX0f6lnsc/95T7Tl/nTJ5zZFaPX90T6f8GrZpP637VzC3fcj0yQ6nLri0/tseqW3pa+yYB632p10YJ1Tqt+1GftK+lnddnPLT32wTyO+Q9n6blzZn6Vh635OidsSd3NMOd3sjLy8r15iCDaGDewLmPZUL1vGf1GXmj2mwOpBlVm82m/d8j4Hn3Zql4PMqeWb+0v9RD1xEe0vgmAfQ+WbWTlKxc9dqunLUvu9+Vx+PDMqK6R6+3B/mwWq/2m/sZI1TfwQH5slpEHqad6z0eeY/33KOt3vcTaL03EQRaHuX6Dr8ID2l8l0D5vrauT1Nq5SvXd2Qt/VrXO/J4PFo563WPZk9Prd+679Eue5FuuW5dv/7DpzV89Bp6EKw24800I+ozubT3mwRa710ElZZHvb7DM8JDGt8kUL+vrftTlFq5yvWdGUvf1vXOXJZXK2e5bumMrpX6nutRnzft83DKPTvnzp6e80wuS39U19Ks10Y93rYvc3nbXD3zZAbs3KNl9TJ9VLd0etaQdq716KhXBEoC+R3ynsu9u6+9GVPfzsOba2cmy8ubdyXHngyjOZCHxaVcc71ByGA0bGk+es3y1PVR/Zl9dQbrftTH0pxdG82kfd8k0Hrfoqi0fMr1KM+kU+rW15E+0voWgfpdsu5PkbEy1WsnMtYZrPsT+UpPKxtaK/dGXiMvqxbp/TQti0u9tnu22t+6H81maea1Ee2813se8XjTnprTm2brmaXmUN736Fi9pabn2tLqWbO8enTUKwIlAeu9Qmvl3p3XKAur7cyVvFgOVN+dDfmhXKyG9kfUmB+rj3giLa/O4z58omFRzQsgug9lYbVRb6YXUR/NpH3fJGC9c5FELJ96bYdvpIe0vkWgfl9b9yfotDKV6yfyJc8yQ+v6VMbs28pXruc9K86lj+d6RYYnaHrY5J5T82R/z3kko0c39YwcXu3cN+Lxhj15/vr8htl6Zqjnr+97tKzeWrd1b2n1rFk+PTrqFYGSgPVeobVy765rlIPVdmWqfVieul7vO3FfZ7LuV+azfOu1kRy1Rrr3Hq5OZNBj4g3T6mM56npLZ/V6nce6H8li6ZVrWbusta7zHp1FwEOAvU+evd4e5sHqXl1P3w4PTw71vIcAe6dY/cTkLEtdP5Gt9KzzsPtyz4lrlgvVV+ZDflZtZZZbtS0e9drJGeos1v1ITkuvXuvVr/e37nv139LPuLxlPu8cjEOqRx6WT722yzfSR1rfIlC/s9b9CTJWnnrtRL7sWWex7vOeE2crF1pbmRH5WbXeLEjLq+H6rYEMUm3nwTKg+s5cyAtlYjW0v1WrtXr76/3lfUtL6yKQCZTvTX2deyLOtXbrPsIzazCvvK6zCPQSYO8UqvdqR/SjHKgW4TWrgXKx2qzXzH6WCdVnfFp7kZ9Va+m9bd1iUa+dnr3OY933ZrW00Npt+r15bu1HrFPta8cuDswH1SOfAdLPtUgfaX2HQH5/vOfdZLy5Ut/p4ylZb8rZk2XkGSN973vieqOQwUhQb6i6j/mjer33xD3KxWo78jFvVN+RRx7vIIDen1SLPpgPqu/yjvaR3ncIoPeW1XZTYTlQfXc25IdysRrav6PG8rD6ykzM06qvzHOTtsWgXrsld53Luu/JbOmwtZX6Pdpv6o1g/XQejEGqRx6WD1rb5R3pI63vEEDvrFXbScbKUa/tzGV51bmse0tn5ZqVqV5bmSNp136t+948SM+r4frNgQxSbcfBvFF9Rx6PB8pm1TyaMz2Wd70246O93yJQvzv5PppC1vWcd3lH+0jvGwQ873DZs5NK6du63pnL8mrlrNctrVVrdQbrflWGrGt5s7W8981nNjuq38QB5WO1ntxMw6rfpN+T5eZexvvmzNHZdjFgPqweOecOj8i80rqfAHunUH3nNMif1XbmanmxjKje0lq1jrKw2qoMWZf5snre5z0jHfdeTyMySLXVB/NF9dVZevVRRlbr1e7tZ76o3qut/m8SQO9OrkUSyZrec6R30mK+0T7S+wYB9j6x+i4qzB/Vd2Xy+qCMrObVjOxjWVA90hdpIU+rhjTeWLMY1Gs3zV9ns+57cls6bO0m/Z4sN/dGsL55Pk+2XQyYD6p7cvf0II9U0yECowTYO4Xqox69+5C3VevVX9lv5azXVuZg2nWG1j3Tiai3vNF6r++MhusnKzJItZUH82T1lVlGtFlOVB/R79mDPFmtR1e93yWw6/1hPqwe+USYR6rrEIERAtY7Va+N6I/sqX1b9yMeK/e08pbrK3Mw7dK/dc00ouot/3o9yvdmnXpm6/62OaysaM2bH+1t1bzaqa+lVa/3aL+pt+aQ7980ozVLnhedrX0ja8iD1Ub0rT27fKwMWnsPAfY+sfquyZk/qu/K5PVBGa2aVzeqz8pSr0V5Mp3az3PPtFgdabLeuu76L3hkkGorD+aJ6itzjGqjnKw26uHdx3xR3aupvm8TQO9OqkUfzAfVd3lH+0TplUyiNFfpPClrJINy7tZ1pK+l1cpRrls6p9bKfK3r3Rlbeer1lflqL8/9yjw3aHsYlD03ZC4zlNk81+Xe1rVHr+xp6ZXr5T7Pdbn3S9eMzVcY7Jqf+bB6NP9dPhG5y6wReis1npQ1kkM5t+c60ptpeXKUPUznVL3M5rnendOTKfeszpZ9es69mZC2V8P1pQIZpNqqg/mx+qocM7osK6vPeLX2Mk9Ub2lpXQTQe5NqKw7mherR/shj1Zyz2VHWWc1V++usq3xu063nbt3vyN/KUK/vyNTrUWe07nu1Z/utLPXarFdrf+3nuW9pPn3dwyD33DhrzuY998zg1Ux9vUeP9oh+b55b+xmnW/NG59o1P/Nh9afOOZsb8ZjVXLX/SVmjGaDZWS3am+kxf1RnGifrKKdV253VylKvrc5W+7XuR/IgTa+O6y8WZJBqqw7mh+qrMszqoqxWbdbP2m/51muWjtZEIBGo35l8H00n63rPu/yjfWb1LD6z2tH7WdZonxv12OysvnoG5svqq/OM6rO8rD7qM7KPZUD1Ef2ePcjTqvVoP7HXmh2t3TgjymnVemewtPJar2bqz3u95xGPN+xhfN4wm2cGNL9nX28P8mG1Xm1P/04vTx7Wo5yMzF119pxQfUdy5MtqO/KMeLC8rD7iMbqHZWD1UR/PPuZp1T26dQ/Sq3vYvevrJTJItRUH80L1Ff5RmiivVYvyRTqWb72G9qsmAiWB+p3J92VPxHXW9Z4jPEsN5lv23HLNsqb6DYeV75aMqzm1GJTrq7Mk/dKvdb0jz6hHK3u9Puozsq/2tu5H9L17LF+25tV+Yh+bmdVvnZHlZfWROZhWqo8elma9Nurxhn01i3z/htlaM+RZ63Nr38h67WHdj+hbe5iXtefUGsua6rccT8i4kpU1P1pbmSVpI0+rtjrPqL6VGa2N+ozsQ/6sNqLfs4f5snqPdtmL9Mp169r10woZpFr0wXxYPdo/Uo9lZvVI71qLeaJ6vVf3IlASQO9Mqq04mBeq7/Rf4TWriZiUtVn9mf1lDnQ9o/2kvWh2Vls9F/Nl9dV5ZvRZZlaf8erZy/xZvUe7t5d5snqv/tP62dysfut8LC+rz86RdGcPlo3VZ/2evP/LTHbNznxYPfp92uUTlZvlTfXTx83ZdrGxGKC11bmQp1VbnWdU38qM1kZ9RvYhf1Yb0e/Zw3xZvUe77EV65bp17fpJhQxSLfpgPqwe7R+pxzKzeqR3rcU8Ub3eq3sRKAmgdybVVhzMC9V3+a/widJEXMpalE+PTumPrnu0ntyLZrdqK2e1fNnayjyz2iwzq8/6efczf1T3ao70Ib9WbcTnKXtas9frN89VZ23d3zBLK2O5fkPekxlKFuX1yUy7vMt58/UK76ztPUdnYL7RPpF6LHOqnzpuzHSChcWhXludr/Zr3a/OM6Pfyl6vz3j17q29rfte7Z5+yxet9WjXvTN6rp9SyCDVIg/mweqR3iu0WG5WX5EhazJPVM97dBYBRqB+b1jfTL32aN3PeFl7S1+r75a1Mi+63pkT+Ze1nVlOe5Vze65X5vX4lz0rs0Rol1k91xGeHg1Pltzj0RvtyR7e86jPU/Z5OeS+m+fKGb3n07N4c+a+03lP+2cO9fl0rl3+5dyrPEuP1vWuDKt8InUtVpE+Hq2bsnjyruyxWNRrt+TIuVbmmdXOGb3nWT/vfm+e3OfV7e3L+t5zr37dj3zqHnbv+nqJDFIt8mAerB7pvUKL5Wb1FRmyJvNE9bxHZxE4SQC9m1btZNbbvC1OaW3HcUOGHXN6PVo8ynWv5mhf6eW5HvXZtc8zQ9lzY65Vmcq5Pderctyi62FQ99ySHeWos7bukcbOWitfub4z161eJY/y+ta8T8xVcm1dP3G+lZktXit9S+0bMpR5Tl5bLNDayqzIz6qtzBKhbWVHaxGeHg3kzWoevdEe5onqox7lvhld138FI4NUizqYvlWP8l6lY2VHa6tyJF3kx2orc0hbBLwE2PuJ6l7NL/UhTmVtJYvSB12v9L5VG3FgtZUzME+rvjLPrLaVm63Nenr2M29W92j29jAvVu/Vf2I/m53Vb5+R5Wb1k/OwTKh+MudN3ohNqumIIcD4snqM67tUGKsd7+lJ7xufosUDra2cAflZtZVZIrSt7GgtwtOjgbxZzaPX28O8WL1Xn/UjfdZb112/QZFBqkUdTJ/Vo3xX6rDsrH5LlpU5pC0CXgLs3wmqezW/1odYlbUVPEp9dL3C83ZNxMGqrZzH8kVrK7NEaKPMVi3C06NhZajXPHq9PbVH675X/4n9LQZo/fY5UWardmoeKxNaO5XzNl/EJtV0xBBgfFk9xvV9KozXynf1hOftT85iUq+tnKX28tyvzBOh7Zmh7Inw9GiUnq1rj15PT8uvXu/RbvXW2unee7g6kUGPSSsM02f1lt7pdZab1VfnZb6ovjqL9EWgRQC9l1atpffldYtbWos8dnpF5l6t1eJSr6/KU/t47ldlidL1zFD2RPm2dErP1nVLq2e95YXWe/Sf3Itmt2pPmNXKj9ZOzIRyWLUTGW/1ZJxuzfu0XIwvqj9ttt15EbNci86SddE52utJeogHq62ci3my+sosUdosO6tH+Vo6zJvVLa2eNaZv1Xv0Pb3Iy7Mv9bj+yxcZpFrEwbSteoTvSg0rO1pbmSVpI09WW51F+iLQIsDeTVZv6X19nXHL9Qg+WYudIzyeqsGYsPqqOZkfq6/KEanLsrN6pLelxfxR3dLxrCFNT82j/aYeD5Oy5wmzl3k917tm8mRBPbvyPcUHMUo1HTEEGF9Uj3F8twrilmtRk2c9dI7yeKIO4mHVVs5o+aK1lVmitFFuqxbla+lY/vWapeNZq/V67j36vT3I36vh+g2KDFIt4mDarB7huVqDZWf1m/KsziJ9EWgRYP9OUL2lpfW/BBC7sjbDqdRB1zPab9iLmLDaynmZJ6uvzBKlzbKzepSvpcO8b6pb+d+4NsL+dg43zDSSge25nfeJfGK1jjpjy+rrkrxLmfFL9dljpfZsttP7LTZobVVe5NWqrcoSpdvKj9ajvC0d5HtTzco+u4bm9Gq6fhIhg1SbPZiuVZ/13LHfyo/WVmdCnqy2Oov0RaBFgL2bqN7S0vo/AohfWfvX6b8q96Nrv9I7OxETq7aKguXJ1lZlidRl2Vk90ptpMe8b6izz2+u97J/Ao3em1B95jPijPZGZ3qaFeEU/x7cx887D2LK6V1d99v8rw1E+7Lno38NfohYftDb6HFr7kJdVa+ndsG7lZ2s7cjPv0/VTs3t9XX8JMYheE9bHdFmd6dxWZ/lZfXV+5ovqq7NIXwQsAuidtGqWltZ+E7BYprWeI1Krx/dJvS1G9fqq2Wqf1v2qHJG6rRnQeqQ/00K+p2ss61fqvfyfwKV3ptQfeYz413si87xRq+aV79846+6ZMkvPeXe2N/hZXHvni9Tq9X5Kv8WoXls1U+3juV+VJVLXM0fZE+nNtEq/W65Z1hV1NLPXx/WXEDJItdmD6bL6rN+O/Sy7VV+dy/Ku11Znkb4IWATq99G6t3S0xglYTNOa54jQ8Pg8vafFqV5fNW/t07pflSNStzUDWo/0Z1rI91SNZfxSfYT9E/j0zhU9U6+/1R+d7S16jNlb5js5B2OL6idzPtkbscw171y5H529Gm/vQ2ys2ioelidaW5UjWhdlt2rR/kjP8t+9hvKtrqEZvZ6u/8pFBqk2ezBdVp/127GfZWf12zLtyCMPEWAE2L8TVGcaqrcJIJ5lzVIo+9C1tfdra4gPq61kwzxZfWWWKG2WndWjfC0d5n2ibuX80lov+6ewuWGu3gyt/qew35WT8drl/1YfxpXV38phx1yMaaq3jpm9Le03rVuc0Nqq2ZGXVVuVI1rXmgGtRfsjPeR7qobyra6hWb2e7Z88xv+v4F4T1oeCWzWmc1Pdyo/WdmRHvqy2I488RAARYO8kqyMN1fwEGNdcR0p5jZ3Rnq/WGCNWX8WJ+Vn1VVkida38aC3Sm2kh35M1lvNL9V7+T2DTO1Pq332MZDyRczeXHj/GsEdDvb8JMK6s/ltBlR4CjGuqs2NkD9N6e91ihdZW8UBeVm1VjkhdKz9ai/S2tJD3yZqVdcUamtXrw3/qFArIINVmDqZp1Wf8duy1srO123LtyCMPEUAE2L8RVkcaqvURYGxzvVTLNXYue3Vt/y/4RwxXMUNerdqqLFG6rfxoPcrb0kG+rGbpWGtMj9UtrS+sMS6s/gQmLDur3zATy8bqN2Q+nUFs1jwBxhXV1yT4nipim2s1jVxH57pX931/a67khZ6XVVuZJUrbyo/WonwtHeRr1Swta83SRGuWVvTajL/r6yUySLWZg2la9Rm/HXut7GhtR6bkgbxZbVcm+YhATYC9k6he79X9OAHEt6wl5fIeXY+7v3cn4mTVVpGwPNHaqhyRuii3VYv0trSsDPWapeNZq/Wse4/eW3ssLmjtCRxQbqt200xWznrtptwnstQ88v2JLG/xzAy957fMfcMcFvOcz9OTe3Vu/21e81zJrPZq3a/MEqXdmqFej/K1dGpP697S8a5Z+vWaV3O2r/ZN997D1YkMekxQGKbJ6kjjthrLzuq78jN/VN+VST4iUBNA7yOr1Xt1P0eAcfbU55zfu9vDLvespJA9vOeVWaK0vbPkvihfSyd7ec+WlnfN65X6vnr0MHoCp955bpupN/9X39s0N2P1ZSazszOmrD7rp/0/CTDOrfpPFd1lAi1u9Xret+Jce7XuV2SI1GzlR+uR/kwL+bIa0+itM/263qs72l/7pnvv4epEBj0mKAzTZHWkcVON5bbqu/JbGeq1XZlW+dTzvPF+FbuTur3P6WTWt3r3PoPUrwMT6GWJVWKqN2WJmKh3nl3vaU+uCA5Zw+ub+7929vLJfbfzyTm95xvn8WbPfbfMkPN87XwL/4gcPc8uwk8avwn0PIPUq4MTuIVlb44nPNfemfhTil3pyRXlfMLTyo7yWP3lmusnCjJItZmDabL6jNeOvSw3q+/IlD1YBlTPe554RvO8tfbE52Nl7n1OlpbWxgn0PIdxl/fv7OGYelceN2WJmPPWeXpyRXDIGqd8s//N5x42uffmeVK2nNN7vnUeb/7Ud8PRk/eNvTc8g4gMPc8mwk8amID3OeDdqmYCXo6pb+XRkyP3rswToZ1zes8Rni0Nb5bc19LrWc+arXOP5mgvyuDVcv1LQAapNnMwTVaf8dqxl+Vm9R2ZsgfLgOp5z9POaJa31572jKy8Pc/K0tHaPAHPs5h3ebeCh2HZs5JG6eO5XpklQtszQ9kT4enRKD1b1x49b0/Lq1z3ar6lr5zde33z7N4Zcp9miSGQeX79HEPznErv8zuX9BvOrefxDQrjU7b41evjTu2dtVfrvq14tqOVv17flbb2te6jM1le9Vq0d61X+6V77+HqRAY9JigM02R1pHFLjWVm9d25WQ5U350tyg/N8vZaFLsbdHqe1Q1535zB8yzePH/EbB6GuSfCz9LIPt6zpXV6zTtD7tuVN/t5z5G5vJ6p72tHD5sn8HnTPL2znHw+I1nfuOfpPz96n8nT5709f+t53J7/dL4Wv3p9Zd7aq3W/MkuEdit/vR7h6dGofa17j15Pj+VVr/XojvTWfunee7g6kUGPCQrDNFkdadxSY5lZfXdulgPVd2eL8kOzvLkWxe0Gnd7ndEPmt2boeRZvZTA7Vw/D1Lv6uC3PzLy3ztKTa2Z+tPekN8pzU62HTeq9+XjTLIlz7zwnn89I1rftufnfhjdbzzPxaqpvjID3WYypf2OXl2HqW330ZNmRZ2bem2fpyTbDAO096V3nQVnqHnbv+teADFJt5mCarD7jtXIvy8vqK7MwbZYF1ZnGU+poprfVnvIsvDl7n49XV319BHqfQ+rX8ZtAL8ffCrGV2/KMTnfzHD3ZRudn+056s0y31HvYpN6bjzfNkjk/babevG/pz8/r6eee5/H0WW/O3/McUq8OTKCHI1aIq/Zkuf2Z3jrL6Vw9/nFvFlZCWXDn76rrJwoySLWZg2my+ozXyr0sL6uvzMK0WRZUZxqqi8AqAug9ZLVVGb6uy3h76l9nV8/vYZZ76r0r7rOX57zCP0rTk7/sifL16JS+rWuPXk9Py69c79F9Q285u+f61pk92cueW+eoc5WZvde1xpvvGZM3z7xqNsaS1Vfl+Lou492qf51bPX+LV+kqByQAABe/SURBVL1e74++r/1a99H+UXqt3PV6lK9Hp/a27j16vT2WX73Wq93bX/ule+/h6kQGPSYoDNNkdaRxusaysvqpvCwPqp/KKN/vEkDvIat9l9K6yRnrXE/O+Zqd16V7njJjhOo7pkO+Vm1Hpl4PKy9a69Wf6Uf+Vm3GC+21vOo1tP/NtXr+1v2tLFq56/XoOZL+iqPO7blfkeNWTcbj1rw352IsWf3mWZ6ajbFO9Xx4enLvl88WJ7S2mhXytGqr84zqW5nrtVGP0X21v3U/6sH2WV5ojelE1Wc8//20MdIgg1SbOZgmq894rdrLsqL6qgweXZSH1Tx66hGBKALsPWT1KF/p/CXAOOd6ySnX2Lns/eo1Y8PqOzgxb1bfkanXg2VF9V7t2X6UgdVmvdB+5oXqaP+ba4iBVbuRhZUXrUXNgLRzbYdH9qrPUd5P0Klnz/dPyH5bxszOe74t/9PzWNzr2Xp6671fubcY1Ws7mNSerfsdmXo9Wpnr9V792f7a37qf9ar3W15ord4ffT/j6fp6iQxSbeZgmqw+47ViL8vJ6isyeDVZJlT3aqpPBCIIoHfQqkV4SuMvAYtzWkPHyB6k89Zai0+9voND7dm635Gpx6OVt17v0Y7orf2t+wi/UsPyQmvl3q9cIw6sdiMTlhXVo/Ij7boW4VVreu4jfJ+iwXg8Jf9NORlLVL8p9xuyIMa5xubL6+jM9nypjriw2i4uzB/Vd2Xq8UE5Wa1HN6KX5WD1CM9Sg/mwerl3xTXy9frg/7qtdiODVJs5mCarz3hF72UZWT3av1eP5UL1Xm31i8AMAfQOstqMj/b+JMAY5/rP7p93uYedf3Z/644xQfVdZJC3VduVy+Nj5URrHs3oHpSD1U56p0xfPNizQPXb+KCMVi0iv6Vfr8361Xqe+1nPJ+1nPJ40ww1ZGUdWvyHzWzIwxqneOmb2trSfvG5xQWu7ZkXerLYrk9eH5UR1r2ZkH8rBapG+WYt5sXret+qMfL1e7Z88xv9+N68J60PBWY1peOpI07OP9SA9VmMaO+ssG6rvzCUvEUDvIKuJVgwBxjfXPS65l509Gm/sYTxQfef8yJ/VZnIhzWg95JFqJw6WhdWjMzIfVo/2f4IeY4Hqs/PUmjN6tVbrfsYr7215oPW8d+SM9Fq1EZ+n7mEsnjrPqdyMI6ufyvk2X8Y31b1HhIbX6yl9FhO0tmsu5M1qs5lq3Rm9Wqt1P+M1ureVqVwf9WD7Sm3vNdOKqqMcXm3XTx9kkGqzB9NF9V4vpIFqq3ST1y0HmpvVbsmsHO8nwN5BVn8/kfUTMra53pMg72HnHq039DIOrL5zZpYB1XtzIQ1UW6WbvE4daE5WW5GRebH6igy3azIWrN47D9Mp672aqb/c37oe0Ud7Wj5oHel4a0ivVfNqv6GPsXjDbDtnYBxZfWe2t3oxtqnee0Rq9Xrf2G/xqNd25q+9W/e92Vp6ab338GiWPb36Uf1lhtZ1lGfWafnV63nfynPtme69h6sTGfSYsDBMF9WZBqqj/VYNaaCapVGvof2nanU26/5URvl+j4D1HqK17xGKnRgxLWsjbuV+dD2i+dQ9aH6rtnNOK0e91pOr3tu692q3dMp1r+aKvjJH6zrav+WH1qMzPEUPsWC1npmYBqrfoNvKgHK3ai1Na72ljdYtvbetoflTTUcfAcYR1fuU1Y0IIK65hvo9tbwfnT3739SDGLDa7rlZDlT3ZkN7rZpXN/VZOvVaj25kb52jdR/p3csoZdtxIAZeX1dCZBA1HNNGdc9QaJ+nFq3t0dvV45k/9+zKJB8RyO+c5yxacwRajGfUV2rP5Nq9t8WhXN+dLfmV/q1rT76WBltvabN9qN7SWr2OMrFadBbmY9WjMzC9lOGmw2JSr3ly13u899HaHj1vj3cG1Of1qPuQllWr97/9nrF4+9yR8zGGrB7p/UUtxjXVZ4+V2rPZdu23GKC1XbmyD8rAanmPdWZ7W3VLM6+1NMr1vOfEuczRul6Rr+VZr6/IUGvWnunee7g6kUGPiRWGaaO6pZPW0J6emqUfpWN5rFp7cvZVTKR7noDeyz3PoMU5IsUOj4icKzVaDMr1lTmYdunfumYaud7ab61nDXa29tZrTGNHvc7Suo/O1PJD69EZaj3kmWo3HCwbqlt5UX9PLUrb0hlZ65mh7B3xSntKDe/1qNdT9zEuT53nRG7GkNVPZHyLJ2Oa6lHHDo+orCt0rPnR2ooMlibKwGqWTlpj+7x1S9+rkfpOHyez9njn3h28sld59vq6nmgpXF57TVp9paZ1belY+7xrTN+7P/XdeDw9/41MlWmOQM87eeu/qzkCe3a3OEem2OkVmTtCqzV7vR7h2atRZ7DuLW1rn3eN6Xv3p77Tx+msPf6518Ms9+bzyJ68tzx7dFb2lFla1yxHa593Hel796a+VUdPhtw7miXv7zmPej11H2Pz1HlO5GYMWf1Exjd4Mp6pHn3s9IrOPqtnzV6vzXqN7q9zWPfMw9rjXYvQZho76955U1/00eOde70Zcn8+e/elvrynPHv3uyiVwuW116TVV2q2rpGWtQf1pxrbU/ezPlSv995yj7Ky2i2ZlePdBNj7x+rvprFmOsYy11e4Zm12XuF5gyabl9VPZWZ5UB1lRH25hvpTLa+X57q3XPNc1/tP3Hty5p4V+bJ2z9mTA+lZ+1A/q1k6O9ZYrrrOstR9+Z71p3ruKc91f7nWuq73Rt63vNH6qD/SatVGvZ66j/F46jwncjOGqH4i3xs8EctcWzVf1kfnVZ436KJ5We1UXpYH1VlG1Jtq7PD2sz5UZ1476yiXVYvOZnmxNU8GtNezL/fM7OdvUVYnf7gl08gDDYFqtSfqybW6t77PfeU595Q1z3Xed+PZkz/33Jhfmd5HIL9v3vP7CKydqMV1pftJ75VzWdqtmet1S2v1Wp2F3dc5vH31vnSP9uY+tGbV8r7TZytjvbYia+3huW/lYBrWPraH1S2t1WssE6rXWVBPqrUOtK/cg9ZZrdy34pr5svpMBqbJ6jNeT90rFnNPjvFj9Tm3b+5mLFN99XHSe/VsSN+aF60hjV01lIfV6kzePs++sofponq57+Q1ysZqK3IyL6vuycH2e/amHrTfvdfTiAxSLfJgHqhe+qJ1bza0N2mjulUr89x4bWWv127Mr0zvI1C/d9b9+6ZfO5HFMq3tOG7IsGPO7NGat1zPe06dyyyt6zIj6y172DXam3pRndWY9ok6y8jqKzIyL6veysH2sn2s36ozrV11K1u9Vmaq19K992B7UZ3VvF4zfcwb1Xf5JO+vHoj7l3n0vgeMH6v36n+9n3Hc+Y7ekGHXe2DNitZ25WI+KBOrlRqop1xn12hfqqWDraE60z9RR/lYbUU+5mXVWznY3ta+ch1plOvWtesvCmSQatEH80H17I3WvNnYXm89Z7j97J3Hy+32eZXvbgI976Peyb5n2WLbpzbXfVOWuUns3a0563Vbbc9qncm6z4lQT15rndHenlpLf/f6Ddl7MuRei1PuQWe2D/V6akxvV92TMfekTPm6Pnvz1vt6770+EX2ebLM+Ho/cM+v15P2ZQX1+8kw7s9fcWvc7sz3dy2K5e7absqyc3ZoTra3M4tFGmVgt67XWcx87s/3eOtM9Ufdmzn0rMmbtnnMrB9Nq7SvXkUa5bl27vl4ig1RbcTAvVE/+rO7JhvZ6ax790z3eWay+0zPI/9kErHdrZu3ZVNakb/Fc42qr3pjJTtxebc3Us952W9fRmxP1e9Ohvd6a12Nlnzerpy8qp8er7rG86958P7In72VnS3PHGsvVW/dm7dUt+70ekX2lP7qe8UJ6Vm3G6+l7GZenz7UiP2M1W1+R9emaFtNTs92YaYaFNc/I2kyWmb0jWdEebwa011Pz6q/u82T19ETm9PiVPZZ32VdfW/vqtXpvuvcerk5k0GPiDZP7mJ+3nnU8Z69m2efRXdlTZjl9vXJOad9P4PT7x/zvJxebkHHI9Vi3frWcA5371fbsQFl31fZMiP8PDntm9Obs0Sx7vfpRfaX3zuuR/CP5mA/TYv25zva16nn/yXMro2fdm9+jVfd4tVf01VnYfa8302H1Xv239YvL3yfKOJyuv+1988xjMffsX9lzczZrbiv3yjUrU+RaxAzePCNeXu3IvpGcs3tG8/f6Wj5My9qD1pAO6kO1Kz98pqBoqJ4aGjbXenTK3rz/9LnMdPr6NAv5nyNw+t2z/M9ROeP8BBYs4xlitivLuqtup4tdnZ3JSjOqbWmuXBvNO7tvdKZeX+RjaaD+smbttdZKjdPXVs7WWit7az9bb+nuWGfZWN3KxPZYdUvvK2uMz1fmT3MyBrfU9Sz+/O8Z3cLBei9uyVjmsPLuWCuzrLyenaWVbVS/pbtifTRrxL6ReXp9mQfTYf1WHWlZ/eXatR8+U0g02KlaCe309SkGyPc0C/mfI4Deh1tq56jsd7aY709jO7Ks9q79qyznrvruiXfN1fLZPXfp18q2cr3M0Xu9Kpc3x6i/V39132j+FftWz9qrv2JGj2Zvzrf2M1ZvnRfNxRjcUEd531xjzG+b+Sk5EzeWdVd957PbNZPHZ+fctZcn36qeOov3flWepDtyoDxeHZcjMhgN6w2W+5j3rnrO0XvO+Xr3efqz9g1nT171vI/ADe+eleF9xO2JEAt7x7nVOuu5JNy5zrj7nidbt7J7xtpvdLKsM7o/78s6J845w+g5OnNvjhH/Xo/V/SMzRO2ZmS1nmNGw9mb9XWcry9fWGPMvcWAMbqh/6TnkWWvuuX7buc6Z7m87UMbdtRNMds9Y+s3Mm3VmNNLerLP7fGPu0UyInVfL9ZMAGaTazoNlWFWfma3ONKOF9tb6J+9RPtXeT+DkO9fyfj99PGHJBXfcU709a5nvxPXJJ7V73plZ66yRWrX2qvuZzOXeqHylZs91r3+P9q7e3hlm+2fnqv1n9az9tdeKe8v/i2uM8ZdYMAY31L/0HMpZM/uyduN1zpnOtx5lxt3XJ5k8bdY67wy7WmvX/UzmvDcya9YcOaMcXh3XTwNkkGonDpYluj4zW51lRovtrT1O3LNsqn+HwIn3zvL8DnlNupqA9Z6tXFs9l1d/5YyltjcP6it10vXsUevtuJ/NXO6fzVtqjV57M4zq79jnnWG2b2YW5D2j59mLPCNqHu8v9jC2X2PBOJysf+0ZaN41BE69w2um6VfdNX9/sn876oz/Vsauar0d92NJ8a6IvFjZX0UZvLtd/6WADFLt5MEyRdVHZ0P+o1raJwIiIAIiIAInCaDfaZG10dlQhlGtt+1DbFq1VQyY7yq/SF2WPao+k7XOMKM1srf2H7kf8f3SHsb0Sww0qwiIwPsJsJ91UfUZgnWGGa037a25eO8jGCAvr67r6yUySLWbDpYR1XNutJZruaf3nPfnc+9+9YuACIiACIjAjQTy7zXPucxv9Zd9Pde1Zs/eL/XWnMr7HRxKv/J6h3e0R5m/dV16W71ln/ca6Xn3ruhDeVBthfebNRHDVNMhAiIgAm8mwH72oXrJAa3P/MxEeqWfrv8RQKxy7V9XzFXWLc9eZddv0FK4vPaa3NpXzlJfj2SuNdK9DhEQAREQARH4MgH0uzHXRrjkveV5REd71hMon1G+Xu96l0OeG51HkkbpjHhrzz4C6Dmnmg4REAEREIHfBNjPzNGfm0jvt6squwnMPBfXb1BkMPoS7YZj+bG5ct3aW6/lPfW57tO9CIiACIiACHyJQP17sb7vYVHvzfc9GurdRyA/n/K8z/0Op3L2+ro3Yb0/3et4JwH0rPW83/msNZUIiMA8AfYzc+TnJtKaTyiFCAIzz8b1FxMyGHmJIoaN1GBz5brHK/eis2e/ekRABERABETgzQTQ78ey5pm97K+vPfvVs59A/Zzy/f4kZx3z3OzsScf2prqOdxJgz/yd02oqERABEZgjwH5m5rpHPfeis2e/etYTmHk2rr+YkEGqPf1gc9V1NGfdg+7RPtVEQAREQARE4EsE0O9HVENMUF9dQ/tUO0+gfk75/nyyvQny3NYZJbL68xrap9o7CORnXJ/fMZ2mEAEREIFYAvXPSnSPHFFfXUP7VDtDoH426d57uDqRQY+JN8zuPjZXRH33LPITAREQAREQgRsJRPxOZRo3zqtMfwmgZ/ZFNohDVO2LPL80c/2efGl2zSoCIiACPQTqn5eR9z051LuWAHquXkd9+Pzz5z8EcLbmfQDqEwEREAEREIE3E5j9fWrtfzO3J8/GntmTZxrNzlhE1Eczad9zCOT35DmJlVQEREAE9hPIPyujz/snkaNFAD1fq79c04dPffgs3wddi4AIiIAIiEAoAfRHSkQtNKTEQgmw5xtq8hAxxmK2/pDxFVMEREAEREAElhOY/Z3K9i8PLoMuAug5eQX04XPBh08vfPWJgAiIgAiIwNsJoD9SImpv5/bU+dizfeo8s7kZj5n6bCbtFwEREAEREIE3EZj5ncr2vonPW2ZBz8o726c/fCZICN5MzQtefSIgAiIgAiLwBQIzv1PZ3i9we+qMemY/nxzjMVP/6aA7ERABERABEfg2gZnfqWzvt4neOT16Vt6k+vAZ/H/j0wtefSIgAiIgAiLwBQLoj5TZ2he4PXFG9lyfOEtUZsZktB6VSzoiIAIiIAIi8BYCo79T2b63cHnbHOh5eWfUh8/AD59e6OoTAREQAREQgS8RQH+ojNa+xO1Js1rP80lzRGe1uPSuRWeTngiIgAiIgAi8gUDv71Or/w083joDem7eWfXhM+jDpxe4+kRABERABETgawTQHyojta9xe8q81rN8ygwrc1p8vGsr80lbBERABERABJ5OwPv71Op7OoO350fPzjvz5z98JlAIYE/NC1t9IiACIiACIvBVAj2/V1HvV7ndPjd6Vrl2e/Zd+TKP0fOunPIRAREQAREQgacSGP0dm/c9de4v5c7Pqjx759eHz/8nVcLrufaCVp8IiIAIiIAIfJ1Az+/Xsvfr3G6ev3xO5fXNmU9kK9n0XJ/IKk8REAEREAEReCKBnt+vZe8TZ/1i5vKZ5WsvB334LEhleJ5zsU2XIiACIiACIiACTgKe37G5xymptoME8rMqzwfjXG1dMvJcXz2MwomACIiACIjAhQQ8v1/LngtHUCRCoHxu+Zq0/irrw2eFJANk56pdtyIgAiIgAiIgAp0E2O/YXO+UU/thAvm5pbOONoGSF7puK6hDBERABERABESAEUC/W+sa26v6vQTqZ5juvYerExl4a94g6hMBERABERABEfgegZ4/Wr5H5zkT6zmOPStxG+OmXSIgAiIgAiLgJaDftV5S5/rSMxr5H2/i5R8+9ZJ5H4X6REAEREAEREAEREAEREAEREAEREAEREAEROAbBEY+eOY9XkL68OklpT4REAEREAEREAEREAEREAEREAEREAEREAEREIEQAvkj5sjZG0AfPr2k1CcCIiACIiACIiACIiACIiACIiACIiACIiACIhBCYOSDZ97jDaAPn15S6hMBERABERABERABERABERABERABERABERABEQghkD9ijpy9AVwfPpPYSIi0R4cIiIAIiIAIiIAIiIAIiIAIiIAIiIAIiIAIiIAI1ARWf2/Ul8mauO5FQAREQAREQAREQAREQAREQAREQAREQAREQAQeT0AfPh//CDWACIiACIiACIiACIiACIiACIiACIiACIiACIhATUAfPmsiuhcBERABERABERABERABERABERABERABERABEXg8AX34fPwj1AAiIAIiIAIiIAIiIAIiIAIiIAIiIAIiIAIiIAI1AX34rInoXgREQAREQAREQAREQAREQAREQAREQAREQARE4PEE9OHz8Y9QA4iACIiACIiACIiACIiACIiACIiACIiACIiACNQE9OGzJqJ7ERABERABERABERABERABERABERABERABERCBxxPQh8/HP0INIAIiIAIiIAIiIAIiIAIiIAIiIAIiIAIiIAIiUBPQh8+aiO5FQAREQAREQAREQAREQAREQAREQAREQAREQAQeT0AfPh//CDWACIiACIiACIiACIiACIiACIiACIiACIiACIhATeD/AHYxaXTiBZDlAAAAAElFTkSuQmCC;" parent="h8BnkVaSkNDdI-Pgu3pd-171" vertex="1">
          <mxGeometry x="5.789999999999992" y="58" width="229.4" height="20" as="geometry" />
        </mxCell>
        <mxCell id="h8BnkVaSkNDdI-Pgu3pd-175" style="edgeStyle=orthogonalEdgeStyle;rounded=0;orthogonalLoop=1;jettySize=auto;html=1;exitX=0.472;exitY=-0.013;exitDx=0;exitDy=0;exitPerimeter=0;" parent="1" source="h8BnkVaSkNDdI-Pgu3pd-27" edge="1">
          <mxGeometry relative="1" as="geometry">
            <mxPoint x="440.9" y="370" as="targetPoint" />
            <mxPoint x="680.4833333333335" y="450" as="sourcePoint" />
            <Array as="points">
              <mxPoint x="663.9" y="370" />
            </Array>
          </mxGeometry>
        </mxCell>
        <mxCell id="h8BnkVaSkNDdI-Pgu3pd-176" style="edgeStyle=orthogonalEdgeStyle;rounded=0;orthogonalLoop=1;jettySize=auto;html=1;entryX=1;entryY=0.5;entryDx=0;entryDy=0;" parent="1" source="h8BnkVaSkNDdI-Pgu3pd-27" target="h8BnkVaSkNDdI-Pgu3pd-30" edge="1">
          <mxGeometry relative="1" as="geometry">
            <mxPoint x="550.9" y="660" as="targetPoint" />
            <Array as="points">
              <mxPoint x="670.9" y="652" />
            </Array>
          </mxGeometry>
        </mxCell>
        <mxCell id="h8BnkVaSkNDdI-Pgu3pd-199" style="edgeStyle=orthogonalEdgeStyle;rounded=0;orthogonalLoop=1;jettySize=auto;html=1;entryX=0.5;entryY=0;entryDx=0;entryDy=0;" parent="1" source="h8BnkVaSkNDdI-Pgu3pd-184" target="h8BnkVaSkNDdI-Pgu3pd-198" edge="1">
          <mxGeometry relative="1" as="geometry" />
        </mxCell>
        <mxCell id="h8BnkVaSkNDdI-Pgu3pd-184" value="&lt;p style=&quot;border-color: var(--border-color); margin-top: 0pt; margin-bottom: 0pt; margin-left: 0in; direction: ltr; unicode-bidi: embed; word-break: normal;&quot;&gt;&lt;font size=&quot;1&quot; style=&quot;&quot; color=&quot;#ffffff&quot; data-font-src=&quot;https://fonts.googleapis.com/css?family=Arial&quot; face=&quot;Arial&quot;&gt;&lt;b style=&quot;font-size: 19px;&quot;&gt;Eliminate spatially coherent errors(T=1.5)&lt;/b&gt;&lt;/font&gt;&lt;br&gt;&lt;/p&gt;" style="shape=parallelogram;perimeter=parallelogramPerimeter;whiteSpace=wrap;html=1;fixedSize=1;fillColor=#0096c7;strokeColor=none;align=center;" parent="1" vertex="1">
          <mxGeometry x="1089.5" y="684" width="219.5" height="64" as="geometry" />
        </mxCell>
        <mxCell id="h8BnkVaSkNDdI-Pgu3pd-187" value="" style="endArrow=classic;html=1;rounded=0;exitX=1;exitY=0.5;exitDx=0;exitDy=0;" parent="1" source="h8BnkVaSkNDdI-Pgu3pd-37" edge="1">
          <mxGeometry width="50" height="50" relative="1" as="geometry">
            <mxPoint x="541.1499999999982" y="808" as="sourcePoint" />
            <mxPoint x="1200" y="665" as="targetPoint" />
            <Array as="points">
              <mxPoint x="830.9" y="823" />
              <mxPoint x="830.9" y="665" />
            </Array>
          </mxGeometry>
        </mxCell>
        <mxCell id="h8BnkVaSkNDdI-Pgu3pd-191" value="" style="group" parent="1" vertex="1" connectable="0">
          <mxGeometry x="1331" y="660" width="212" height="159" as="geometry" />
        </mxCell>
        <mxCell id="h8BnkVaSkNDdI-Pgu3pd-194" value="" style="group" parent="h8BnkVaSkNDdI-Pgu3pd-191" vertex="1" connectable="0">
          <mxGeometry x="-2.5" y="31.26" width="212" height="100" as="geometry" />
        </mxCell>
        <mxCell id="h8BnkVaSkNDdI-Pgu3pd-192" value="&lt;p style=&quot;border-color: var(--border-color); font-style: normal; font-variant-ligatures: normal; font-variant-caps: normal; letter-spacing: normal; orphans: 2; text-indent: 0px; text-transform: none; widows: 2; word-spacing: 0px; -webkit-text-stroke-width: 0px; background-color: rgb(251, 251, 251); text-decoration-thickness: initial; text-decoration-style: initial; text-decoration-color: initial; margin-top: 0pt; margin-bottom: 0pt; margin-left: 0in; direction: ltr; unicode-bidi: embed; word-break: normal;&quot;&gt;&lt;b style=&quot;border-color: var(--border-color); font-size: 18px;&quot;&gt;&lt;font data-font-src=&quot;https://fonts.googleapis.com/css?family=Arial&quot; face=&quot;Arial&quot;&gt;Error estimation and&lt;br style=&quot;border-color: var(--border-color);&quot;&gt;validation&lt;/font&gt;&lt;/b&gt;&lt;br&gt;&lt;/p&gt;" style="text;whiteSpace=wrap;html=1;strokeColor=#3333FF;dashed=1;align=center;strokeWidth=1.2;" parent="h8BnkVaSkNDdI-Pgu3pd-194" vertex="1">
          <mxGeometry width="212" height="100" as="geometry" />
        </mxCell>
        <mxCell id="h8BnkVaSkNDdI-Pgu3pd-190" value="&lt;font data-font-src=&quot;https://fonts.googleapis.com/css?family=Arial&quot; face=&quot;Arial&quot;&gt;&lt;b style=&quot;&quot;&gt;&lt;font data-font-src=&quot;https://fonts.googleapis.com/css?family=Arial&quot; style=&quot;font-size: 16px;&quot;&gt;Reference data&lt;br&gt;&lt;/font&gt;&lt;/b&gt;&lt;b style=&quot;border-color: var(--border-color);&quot;&gt;(Rignot et al., 2017）&lt;/b&gt;&lt;/font&gt;&lt;b style=&quot;&quot;&gt;&lt;font data-font-src=&quot;https://fonts.googleapis.com/css?family=Arial&quot; face=&quot;Arial&quot; style=&quot;font-size: 16px;&quot;&gt;&lt;br&gt;&lt;/font&gt;&lt;/b&gt;" style="rounded=0;whiteSpace=wrap;html=1;fillColor=#dae8fc;strokeColor=#6c8ebf;" parent="h8BnkVaSkNDdI-Pgu3pd-194" vertex="1">
          <mxGeometry x="10.799741201716643" y="51.73999999999999" width="190.39484978540773" height="41" as="geometry" />
        </mxCell>
        <mxCell id="h8BnkVaSkNDdI-Pgu3pd-195" value="" style="group" parent="1" vertex="1" connectable="0">
          <mxGeometry x="890" y="528" width="212" height="159" as="geometry" />
        </mxCell>
        <mxCell id="h8BnkVaSkNDdI-Pgu3pd-196" value="&lt;p style=&quot;border-color: var(--border-color); font-style: normal; font-variant-ligatures: normal; font-variant-caps: normal; letter-spacing: normal; orphans: 2; text-indent: 0px; text-transform: none; widows: 2; word-spacing: 0px; -webkit-text-stroke-width: 0px; background-color: rgb(251, 251, 251); text-decoration-thickness: initial; text-decoration-style: initial; text-decoration-color: initial; margin-top: 0pt; margin-bottom: 0pt; margin-left: 0in; direction: ltr; unicode-bidi: embed; word-break: normal;&quot;&gt;&lt;font data-font-src=&quot;https://fonts.googleapis.com/css?family=Arial&quot; face=&quot;Arial&quot; style=&quot;font-size: 18px;&quot;&gt;&lt;b style=&quot;&quot;&gt;&lt;font style=&quot;&quot;&gt;&amp;nbsp; Stable surface&lt;/font&gt;&lt;/b&gt;&lt;/font&gt;&lt;/p&gt;" style="text;whiteSpace=wrap;html=1;strokeColor=#3333FF;dashed=1;align=center;strokeWidth=1.2;" parent="h8BnkVaSkNDdI-Pgu3pd-195" vertex="1">
          <mxGeometry width="212" height="100" as="geometry" />
        </mxCell>
        <mxCell id="h8BnkVaSkNDdI-Pgu3pd-197" value="&lt;font data-font-src=&quot;https://fonts.googleapis.com/css?family=Arial&quot; face=&quot;Arial&quot;&gt;&lt;b&gt;&lt;font style=&quot;font-size: 16px;&quot;&gt;Rock outcrops&amp;nbsp;&lt;/font&gt;&lt;/b&gt;&lt;b style=&quot;font-size: 16px; background-color: initial;&quot;&gt;&amp;nbsp;&lt;/b&gt;&lt;br&gt;&lt;font data-font-src=&quot;https://fonts.googleapis.com/css?family=Arial&quot; style=&quot;font-size: 12px;&quot;&gt;&lt;b style=&quot;&quot;&gt;(Burton-Johnson et al., 2016）&lt;/b&gt;&lt;/font&gt;&lt;/font&gt;" style="rounded=0;whiteSpace=wrap;html=1;fillColor=#dae8fc;strokeColor=#6c8ebf;" parent="h8BnkVaSkNDdI-Pgu3pd-195" vertex="1">
          <mxGeometry x="15.999999999999973" y="40.000000000000014" width="180" height="41.26" as="geometry" />
        </mxCell>
        <mxCell id="h8BnkVaSkNDdI-Pgu3pd-237" style="edgeStyle=orthogonalEdgeStyle;rounded=0;orthogonalLoop=1;jettySize=auto;html=1;exitX=0.5;exitY=1;exitDx=0;exitDy=0;" parent="1" source="h8BnkVaSkNDdI-Pgu3pd-198" target="h8BnkVaSkNDdI-Pgu3pd-235" edge="1">
          <mxGeometry relative="1" as="geometry">
            <Array as="points">
              <mxPoint x="1199" y="890" />
              <mxPoint x="850" y="890" />
            </Array>
          </mxGeometry>
        </mxCell>
        <mxCell id="h8BnkVaSkNDdI-Pgu3pd-198" value="&lt;font style=&quot;font-size: 19px;&quot; data-font-src=&quot;https://fonts.googleapis.com/css?family=Arial&quot; face=&quot;Arial&quot;&gt;&lt;br&gt;&lt;/font&gt;&lt;p style=&quot;border-color: var(--border-color); margin-top: 0pt; margin-bottom: 0pt; margin-left: 0in; direction: ltr; unicode-bidi: embed; word-break: normal; font-size: 19px;&quot;&gt;&lt;font data-font-src=&quot;https://fonts.googleapis.com/css?family=Arial&quot; face=&quot;Arial&quot; style=&quot;border-color: var(--border-color); font-size: 19px;&quot; color=&quot;#ffffff&quot;&gt;&lt;b style=&quot;border-color: var(--border-color); background-color: initial;&quot;&gt;&lt;br&gt;&lt;/b&gt;&lt;/font&gt;&lt;/p&gt;&lt;p style=&quot;border-color: var(--border-color); margin-top: 0pt; margin-bottom: 0pt; margin-left: 0in; direction: ltr; unicode-bidi: embed; word-break: normal; font-size: 19px;&quot;&gt;&lt;font data-font-src=&quot;https://fonts.googleapis.com/css?family=Arial&quot; face=&quot;Arial&quot; style=&quot;border-color: var(--border-color); font-size: 19px;&quot; color=&quot;#ffffff&quot;&gt;&lt;b style=&quot;border-color: var(--border-color); background-color: initial;&quot;&gt;Winter ice velocity and validation results&lt;/b&gt;&lt;/font&gt;&lt;/p&gt;&lt;p style=&quot;border-color: var(--border-color); margin-top: 0pt; margin-bottom: 0pt; margin-left: 0in; direction: ltr; unicode-bidi: embed; word-break: normal;&quot;&gt;&lt;font data-font-src=&quot;https://fonts.googleapis.com/css?family=Arial&quot; face=&quot;Arial&quot; style=&quot;border-color: var(--border-color);&quot; color=&quot;#ffffff&quot;&gt;&lt;b style=&quot;border-color: var(--border-color); background-color: initial;&quot;&gt;&lt;font style=&quot;font-size: 15px;&quot;&gt;Fig. 3&lt;/font&gt;&lt;br&gt;&lt;/b&gt;&lt;br&gt;&lt;/font&gt;&lt;/p&gt;&lt;p style=&quot;border-color: var(--border-color); margin-top: 0pt; margin-bottom: 0pt; margin-left: 0in; direction: ltr; unicode-bidi: embed; word-break: normal; font-size: 19px;&quot;&gt;&lt;br style=&quot;border-color: var(--border-color);&quot;&gt;&lt;/p&gt;" style="ellipse;whiteSpace=wrap;html=1;strokeColor=none;fillColor=#0096c7;" parent="1" vertex="1">
          <mxGeometry x="1076.75" y="780" width="245" height="86" as="geometry" />
        </mxCell>
        <mxCell id="h8BnkVaSkNDdI-Pgu3pd-200" style="edgeStyle=orthogonalEdgeStyle;rounded=0;orthogonalLoop=1;jettySize=auto;html=1;exitX=-0.011;exitY=0.684;exitDx=0;exitDy=0;exitPerimeter=0;" parent="1" source="h8BnkVaSkNDdI-Pgu3pd-192" edge="1">
          <mxGeometry relative="1" as="geometry">
            <mxPoint x="1199" y="760" as="targetPoint" />
            <Array as="points">
              <mxPoint x="1309" y="760" />
              <mxPoint x="1309" y="760" />
            </Array>
          </mxGeometry>
        </mxCell>
        <mxCell id="h8BnkVaSkNDdI-Pgu3pd-208" value="" style="rounded=0;whiteSpace=wrap;html=1;strokeColor=default;fillColor=none;dashed=1;strokeWidth=1.5;" parent="1" vertex="1">
          <mxGeometry x="96" y="930" width="1510" height="500" as="geometry" />
        </mxCell>
        <mxCell id="h8BnkVaSkNDdI-Pgu3pd-207" value="" style="rounded=0;whiteSpace=wrap;html=1;strokeColor=default;fillColor=none;dashed=1;strokeWidth=1.5;" parent="1" vertex="1">
          <mxGeometry x="95" y="40" width="750" height="880" as="geometry" />
        </mxCell>
        <mxCell id="h8BnkVaSkNDdI-Pgu3pd-209" value="&lt;div style=&quot;line-height: 1.3; text-align: left; vertical-align: top; color: rgb(0, 0, 0); font-style: normal;&quot;&gt;&lt;p style=&quot;&quot;&gt;&lt;b style=&quot;background-color: initial; border-color: var(--border-color);&quot;&gt;&lt;font style=&quot;border-color: var(--border-color); font-size: 40px;&quot; face=&quot;Arial&quot; data-font-src=&quot;https://fonts.googleapis.com/css?family=Arial&quot;&gt;a.&lt;/font&gt;&lt;/b&gt;&lt;/p&gt;&lt;/div&gt;" style="text;whiteSpace=wrap;html=1;strokeColor=none;" parent="1" vertex="1">
          <mxGeometry x="135.77" y="33" width="447.1" height="70" as="geometry" />
        </mxCell>
        <mxCell id="h8BnkVaSkNDdI-Pgu3pd-216" value="&lt;div style=&quot;line-height: 1.3; text-align: left; vertical-align: top; color: rgb(0, 0, 0); font-style: normal;&quot;&gt;&lt;div style=&quot;line-height: 1.3; vertical-align: top;&quot;&gt;&lt;p style=&quot;&quot;&gt;&lt;b style=&quot;background-color: initial; border-color: var(--border-color);&quot;&gt;&lt;font style=&quot;border-color: var(--border-color); font-size: 40px;&quot; face=&quot;Arial&quot; data-font-src=&quot;https://fonts.googleapis.com/css?family=Arial&quot;&gt;b.&lt;/font&gt;&lt;/b&gt;&lt;/p&gt;&lt;/div&gt;&lt;/div&gt;" style="text;whiteSpace=wrap;html=1;strokeColor=none;" parent="1" vertex="1">
          <mxGeometry x="889" y="33" width="541" height="70" as="geometry" />
        </mxCell>
        <mxCell id="h8BnkVaSkNDdI-Pgu3pd-217" value="&lt;div style=&quot;line-height: 1.3; text-align: left; vertical-align: top; color: rgb(0, 0, 0); font-style: normal;&quot;&gt;&lt;div style=&quot;line-height: 1.3; vertical-align: top;&quot;&gt;&lt;p style=&quot;&quot;&gt;&lt;b style=&quot;&quot;&gt;&lt;font data-font-src=&quot;https://fonts.googleapis.com/css?family=Arial&quot; face=&quot;Arial&quot; style=&quot;font-size: 40px;&quot;&gt;c.&amp;nbsp;&lt;/font&gt;&lt;/b&gt;&lt;/p&gt;&lt;/div&gt;&lt;/div&gt;" style="text;whiteSpace=wrap;html=1;strokeColor=none;" parent="1" vertex="1">
          <mxGeometry x="135.77" y="923" width="495.23" height="70" as="geometry" />
        </mxCell>
        <mxCell id="h8BnkVaSkNDdI-Pgu3pd-232" value="&lt;p style=&quot;line-height: 30%;&quot;&gt;&lt;font data-font-src=&quot;https://fonts.googleapis.com/css?family=Arial&quot; face=&quot;Arial&quot; style=&quot;&quot;&gt;&lt;b style=&quot;font-size: 20px;&quot;&gt;&lt;font style=&quot;font-size: 20px;&quot; color=&quot;#ffffff&quot;&gt;&lt;span style=&quot;&quot;&gt;Distribution of velocity&lt;/span&gt;&lt;/font&gt;&lt;/b&gt;&lt;/font&gt;&lt;/p&gt;&lt;p style=&quot;line-height: 30%;&quot;&gt;&lt;font data-font-src=&quot;https://fonts.googleapis.com/css?family=Arial&quot; face=&quot;Arial&quot; style=&quot;&quot;&gt;&lt;b style=&quot;font-size: 20px;&quot;&gt;&lt;font style=&quot;font-size: 20px;&quot; color=&quot;#ffffff&quot;&gt;&lt;span style=&quot;&quot;&gt;&lt;br&gt;variations along flowlinelines&lt;/span&gt;&lt;/font&gt;&lt;/b&gt;&lt;/font&gt;&lt;/p&gt;&lt;p style=&quot;line-height: 30%;&quot;&gt;&lt;b style=&quot;background-color: initial; font-family: Arial;&quot;&gt;&lt;font color=&quot;#ffffff&quot;&gt;&lt;font style=&quot;font-size: 15px;&quot;&gt;Fig.4&lt;/font&gt;&lt;/font&gt;&lt;/b&gt;&lt;br&gt;&lt;/p&gt;" style="ellipse;whiteSpace=wrap;html=1;fillColor=#f4b183;rounded=0;strokeColor=none;" parent="1" vertex="1">
          <mxGeometry x="194.44" y="1310" width="318.12" height="100" as="geometry" />
        </mxCell>
        <mxCell id="h8BnkVaSkNDdI-Pgu3pd-254" style="edgeStyle=orthogonalEdgeStyle;rounded=0;orthogonalLoop=1;jettySize=auto;html=1;entryX=0.5;entryY=0;entryDx=0;entryDy=0;" parent="1" source="h8BnkVaSkNDdI-Pgu3pd-235" target="h8BnkVaSkNDdI-Pgu3pd-228" edge="1">
          <mxGeometry relative="1" as="geometry">
            <Array as="points">
              <mxPoint x="451" y="990" />
              <mxPoint x="451" y="1170" />
              <mxPoint x="354" y="1170" />
            </Array>
          </mxGeometry>
        </mxCell>
        <mxCell id="h8BnkVaSkNDdI-Pgu3pd-262" style="edgeStyle=orthogonalEdgeStyle;rounded=0;orthogonalLoop=1;jettySize=auto;html=1;" parent="1" source="h8BnkVaSkNDdI-Pgu3pd-235" target="h8BnkVaSkNDdI-Pgu3pd-250" edge="1">
          <mxGeometry relative="1" as="geometry">
            <Array as="points">
              <mxPoint x="851" y="1170" />
              <mxPoint x="727" y="1170" />
            </Array>
          </mxGeometry>
        </mxCell>
        <mxCell id="h8BnkVaSkNDdI-Pgu3pd-266" style="edgeStyle=orthogonalEdgeStyle;rounded=0;orthogonalLoop=1;jettySize=auto;html=1;entryX=0.5;entryY=0;entryDx=0;entryDy=0;" parent="1" source="h8BnkVaSkNDdI-Pgu3pd-235" target="h8BnkVaSkNDdI-Pgu3pd-264" edge="1">
          <mxGeometry relative="1" as="geometry" />
        </mxCell>
        <mxCell id="h8BnkVaSkNDdI-Pgu3pd-235" value="&lt;font color=&quot;#ffffff&quot; data-font-src=&quot;https://fonts.googleapis.com/css?family=Arial&quot; face=&quot;Arial&quot; style=&quot;font-size: 22px;&quot;&gt;&lt;b style=&quot;&quot;&gt;Byrd monthly&lt;br&gt;&amp;nbsp;ice velocity&lt;/b&gt;&lt;/font&gt;" style="rounded=1;whiteSpace=wrap;html=1;fillColor=#5aa9e6;strokeColor=none;" parent="1" vertex="1">
          <mxGeometry x="736" y="949" width="230" height="60" as="geometry" />
        </mxCell>
        <mxCell id="h8BnkVaSkNDdI-Pgu3pd-228" value="&lt;font color=&quot;#ffffff&quot; data-font-src=&quot;https://fonts.googleapis.com/css?family=Arial&quot; face=&quot;Arial&quot; style=&quot;font-size: 22px;&quot;&gt;&lt;b style=&quot;&quot;&gt;Ice velocity sampling &lt;br&gt;with a 5x5 window&lt;/b&gt;&lt;/font&gt;" style="whiteSpace=wrap;html=1;fillColor=#f4b183;rounded=0;strokeColor=none;" parent="1" vertex="1">
          <mxGeometry x="226" y="1200" width="255" height="70" as="geometry" />
        </mxCell>
        <mxCell id="h8BnkVaSkNDdI-Pgu3pd-229" value="" style="edgeStyle=orthogonalEdgeStyle;rounded=0;orthogonalLoop=1;jettySize=auto;html=1;" parent="1" target="h8BnkVaSkNDdI-Pgu3pd-228" edge="1">
          <mxGeometry relative="1" as="geometry">
            <mxPoint x="257.42857142857156" y="1150" as="sourcePoint" />
            <Array as="points">
              <mxPoint x="257" y="1170" />
              <mxPoint x="354" y="1170" />
            </Array>
          </mxGeometry>
        </mxCell>
        <mxCell id="h8BnkVaSkNDdI-Pgu3pd-233" value="" style="edgeStyle=orthogonalEdgeStyle;rounded=0;orthogonalLoop=1;jettySize=auto;html=1;" parent="1" source="h8BnkVaSkNDdI-Pgu3pd-228" target="h8BnkVaSkNDdI-Pgu3pd-232" edge="1">
          <mxGeometry relative="1" as="geometry" />
        </mxCell>
        <mxCell id="h8BnkVaSkNDdI-Pgu3pd-253" style="edgeStyle=orthogonalEdgeStyle;rounded=0;orthogonalLoop=1;jettySize=auto;html=1;" parent="1" source="h8BnkVaSkNDdI-Pgu3pd-250" target="h8BnkVaSkNDdI-Pgu3pd-252" edge="1">
          <mxGeometry relative="1" as="geometry" />
        </mxCell>
        <mxCell id="h8BnkVaSkNDdI-Pgu3pd-250" value="&lt;font size=&quot;1&quot; color=&quot;#ffffff&quot; style=&quot;&quot;&gt;&lt;b style=&quot;font-size: 22px;&quot;&gt;&amp;nbsp;Autumn minus spring&lt;/b&gt;&lt;/font&gt;" style="whiteSpace=wrap;html=1;fillColor=#f4b183;strokeColor=none;rounded=0;" parent="1" vertex="1">
          <mxGeometry x="621" y="1198" width="212.5" height="72" as="geometry" />
        </mxCell>
        <mxCell id="h8BnkVaSkNDdI-Pgu3pd-296" style="edgeStyle=orthogonalEdgeStyle;rounded=0;orthogonalLoop=1;jettySize=auto;html=1;entryX=0;entryY=0.5;entryDx=0;entryDy=0;" parent="1" source="h8BnkVaSkNDdI-Pgu3pd-252" target="h8BnkVaSkNDdI-Pgu3pd-295" edge="1">
          <mxGeometry relative="1" as="geometry" />
        </mxCell>
        <mxCell id="h8BnkVaSkNDdI-Pgu3pd-252" value="&lt;p style=&quot;line-height: 57%;&quot;&gt;&lt;font color=&quot;#ffffff&quot; data-font-src=&quot;https://fonts.googleapis.com/css?family=Arial&quot; face=&quot;Arial&quot; style=&quot;font-size: 20px;&quot;&gt;&lt;/font&gt;&lt;/p&gt;&lt;div style=&quot;line-height: 0%; vertical-align: top; font-size: 20px;&quot;&gt;&lt;p style=&quot;line-height: 0%;&quot;&gt;&lt;font color=&quot;#ffffff&quot; data-font-src=&quot;https://fonts.googleapis.com/css?family=Arial&quot; face=&quot;Arial&quot; style=&quot;font-size: 20px;&quot;&gt;&lt;b style=&quot;&quot;&gt;Spatial patterns of summer&lt;/b&gt;&lt;b style=&quot;background-color: initial;&quot;&gt;&amp;nbsp;&lt;/b&gt;&lt;/font&gt;&lt;/p&gt;&lt;p style=&quot;line-height: 0%;&quot;&gt;&lt;font color=&quot;#ffffff&quot; data-font-src=&quot;https://fonts.googleapis.com/css?family=Arial&quot; face=&quot;Arial&quot; style=&quot;font-size: 20px;&quot;&gt;&lt;b style=&quot;background-color: initial;&quot;&gt;seasonal variations&lt;/b&gt;&lt;/font&gt;&lt;/p&gt;&lt;p style=&quot;line-height: 0%;&quot;&gt;&lt;b style=&quot;font-size: 20px; font-family: Arial; background-color: initial; border-color: var(--border-color);&quot;&gt;&lt;font style=&quot;border-color: var(--border-color); font-size: 15px;&quot; color=&quot;#ffffff&quot;&gt;&lt;font style=&quot;border-color: var(--border-color);&quot;&gt;Fig.5&lt;/font&gt;&lt;/font&gt;&lt;/b&gt;&lt;br&gt;&lt;/p&gt;&lt;/div&gt;&lt;p&gt;&lt;/p&gt;" style="ellipse;whiteSpace=wrap;html=1;fillColor=#f4b183;rounded=0;strokeColor=none;align=center;" parent="1" vertex="1">
          <mxGeometry x="568.19" y="1310" width="318.12" height="100" as="geometry" />
        </mxCell>
        <mxCell id="h8BnkVaSkNDdI-Pgu3pd-257" value="" style="group;strokeColor=none;" parent="1" vertex="1" connectable="0">
          <mxGeometry x="141" y="1030" width="226" height="118" as="geometry" />
        </mxCell>
        <mxCell id="h8BnkVaSkNDdI-Pgu3pd-255" value="&lt;b style=&quot;border-color: var(--border-color); font-family: Arial;&quot;&gt;&lt;font style=&quot;border-color: var(--border-color); font-size: 22px;&quot;&gt;Byrd flowline&lt;/font&gt;&lt;/b&gt;" style="text;whiteSpace=wrap;html=1;align=center;strokeColor=#FFB570;dashed=1;strokeWidth=1.5;" parent="h8BnkVaSkNDdI-Pgu3pd-257" vertex="1">
          <mxGeometry width="226" height="118" as="geometry" />
        </mxCell>
        <mxCell id="h8BnkVaSkNDdI-Pgu3pd-256" value="&lt;b style=&quot;border-color: var(--border-color); font-size: 18px;&quot;&gt;&lt;font style=&quot;font-size: 18px;&quot;&gt;&lt;font style=&quot;border-color: var(--border-color); font-size: 18px;&quot; data-font-src=&quot;https://fonts.googleapis.com/css?family=Arial&quot; face=&quot;Arial&quot;&gt;Reference velocity&lt;br style=&quot;border-color: var(--border-color);&quot;&gt;&lt;/font&gt;&lt;font style=&quot;border-color: var(--border-color); font-size: 18px;&quot; data-font-src=&quot;https://fonts.googleapis.com/css?family=Arial&quot; face=&quot;Arial&quot;&gt;（&lt;/font&gt;&lt;font style=&quot;border-color: var(--border-color); font-size: 18px;&quot;&gt;Rignot et al., 2017&lt;/font&gt;&lt;font style=&quot;border-color: var(--border-color); font-size: 18px;&quot; data-font-src=&quot;https://fonts.googleapis.com/css?family=Arial&quot; face=&quot;Arial&quot;&gt;）&lt;/font&gt;&lt;/font&gt;&lt;/b&gt;&lt;font color=&quot;#ffffff&quot; style=&quot;font-size: 20px;&quot; face=&quot;Times New Roman&quot;&gt;&lt;b&gt;&lt;br&gt;&lt;/b&gt;&lt;/font&gt;" style="rounded=1;whiteSpace=wrap;html=1;fontSize=12;glass=0;strokeWidth=1;shadow=0;fillColor=#ffe6cc;strokeColor=#d79b00;labelBackgroundColor=none;" parent="h8BnkVaSkNDdI-Pgu3pd-257" vertex="1">
          <mxGeometry x="16.5" y="40" width="193" height="64" as="geometry" />
        </mxCell>
        <mxCell id="h8BnkVaSkNDdI-Pgu3pd-258" value="" style="group;strokeColor=none;" parent="1" vertex="1" connectable="0">
          <mxGeometry x="471" y="1030" width="280" height="118" as="geometry" />
        </mxCell>
        <mxCell id="h8BnkVaSkNDdI-Pgu3pd-263" style="edgeStyle=orthogonalEdgeStyle;rounded=0;orthogonalLoop=1;jettySize=auto;html=1;" parent="h8BnkVaSkNDdI-Pgu3pd-258" source="h8BnkVaSkNDdI-Pgu3pd-259" edge="1">
          <mxGeometry relative="1" as="geometry">
            <mxPoint x="380" y="59" as="targetPoint" />
          </mxGeometry>
        </mxCell>
        <mxCell id="h8BnkVaSkNDdI-Pgu3pd-259" value="&lt;b style=&quot;border-color: var(--border-color); font-family: Arial;&quot;&gt;&lt;font style=&quot;border-color: var(--border-color); font-size: 22px;&quot;&gt;Detrend&lt;/font&gt;&lt;/b&gt;" style="text;whiteSpace=wrap;html=1;align=center;strokeColor=#FFB570;dashed=1;strokeWidth=1.5;" parent="h8BnkVaSkNDdI-Pgu3pd-258" vertex="1">
          <mxGeometry width="250" height="118" as="geometry" />
        </mxCell>
        <mxCell id="h8BnkVaSkNDdI-Pgu3pd-260" value="&lt;b style=&quot;border-color: var(--border-color); font-family: Arial;&quot;&gt;&lt;font style=&quot;font-size: 18px;&quot; color=&quot;#000000&quot;&gt;Removing interannual trends&lt;/font&gt;&lt;/b&gt;&lt;font color=&quot;#ffffff&quot; style=&quot;font-size: 20px;&quot; face=&quot;Times New Roman&quot;&gt;&lt;b&gt;&lt;br&gt;&lt;/b&gt;&lt;/font&gt;" style="rounded=1;whiteSpace=wrap;html=1;fontSize=12;glass=0;strokeWidth=1;shadow=0;fillColor=#ffe6cc;strokeColor=#d79b00;labelBackgroundColor=none;" parent="h8BnkVaSkNDdI-Pgu3pd-258" vertex="1">
          <mxGeometry x="20.44" y="40" width="209.56" height="64" as="geometry" />
        </mxCell>
        <mxCell id="h8BnkVaSkNDdI-Pgu3pd-264" value="&lt;font size=&quot;1&quot; color=&quot;#ffffff&quot; style=&quot;&quot;&gt;&lt;b style=&quot;font-size: 22px;&quot;&gt;Detrend and remove interannual variability&amp;nbsp;&lt;/b&gt;&lt;/font&gt;" style="whiteSpace=wrap;html=1;fillColor=#f4b183;strokeColor=none;rounded=0;" parent="1" vertex="1">
          <mxGeometry x="1262" y="1040" width="256" height="70" as="geometry" />
        </mxCell>
        <mxCell id="h8BnkVaSkNDdI-Pgu3pd-297" style="edgeStyle=orthogonalEdgeStyle;rounded=0;orthogonalLoop=1;jettySize=auto;html=1;" parent="1" source="h8BnkVaSkNDdI-Pgu3pd-295" edge="1">
          <mxGeometry relative="1" as="geometry">
            <mxPoint x="1056" y="980" as="targetPoint" />
          </mxGeometry>
        </mxCell>
        <mxCell id="h8BnkVaSkNDdI-Pgu3pd-311" style="edgeStyle=orthogonalEdgeStyle;rounded=0;orthogonalLoop=1;jettySize=auto;html=1;entryX=0.5;entryY=0;entryDx=0;entryDy=0;" parent="1" source="h8BnkVaSkNDdI-Pgu3pd-299" target="h8BnkVaSkNDdI-Pgu3pd-304" edge="1">
          <mxGeometry relative="1" as="geometry" />
        </mxCell>
        <mxCell id="h8BnkVaSkNDdI-Pgu3pd-299" value="&lt;b style=&quot;border-color: var(--border-color); font-family: Arial;&quot;&gt;&lt;font color=&quot;#ffffff&quot; style=&quot;border-color: var(--border-color); font-size: 20px;&quot;&gt;Decompose via principal component analysis&lt;/font&gt;&lt;/b&gt;" style="whiteSpace=wrap;html=1;fillColor=#f4b183;strokeColor=none;rounded=0;" parent="1" vertex="1">
          <mxGeometry x="1270" y="1209" width="240" height="82" as="geometry" />
        </mxCell>
        <mxCell id="h8BnkVaSkNDdI-Pgu3pd-300" value="" style="edgeStyle=orthogonalEdgeStyle;rounded=0;orthogonalLoop=1;jettySize=auto;html=1;" parent="1" source="h8BnkVaSkNDdI-Pgu3pd-264" target="h8BnkVaSkNDdI-Pgu3pd-299" edge="1">
          <mxGeometry relative="1" as="geometry" />
        </mxCell>
        <mxCell id="h8BnkVaSkNDdI-Pgu3pd-303" value="" style="group;strokeColor=none;strokeWidth=1.2;" parent="1" vertex="1" connectable="0">
          <mxGeometry x="931" y="1027" width="250" height="118" as="geometry" />
        </mxCell>
        <mxCell id="h8BnkVaSkNDdI-Pgu3pd-295" value="&lt;b style=&quot;border-color: var(--border-color); font-family: Arial;&quot;&gt;&lt;font style=&quot;border-color: var(--border-color); font-size: 22px;&quot;&gt;Region division&lt;/font&gt;&lt;/b&gt;" style="text;whiteSpace=wrap;html=1;align=center;strokeColor=#FFB570;dashed=1;strokeWidth=1.5;" parent="h8BnkVaSkNDdI-Pgu3pd-303" vertex="1">
          <mxGeometry width="250" height="118" as="geometry" />
        </mxCell>
        <mxCell id="h8BnkVaSkNDdI-Pgu3pd-298" value="&lt;font size=&quot;1&quot; data-font-src=&quot;https://fonts.googleapis.com/css?family=Arial&quot; face=&quot;Arial&quot; style=&quot;&quot;&gt;&lt;b style=&quot;font-size: 18px;&quot;&gt;Based on seasonal characteristics&lt;/b&gt;&lt;/font&gt;&lt;font color=&quot;#ffffff&quot; style=&quot;font-size: 20px;&quot; face=&quot;Times New Roman&quot;&gt;&lt;b&gt;&lt;br&gt;&lt;/b&gt;&lt;/font&gt;" style="rounded=1;whiteSpace=wrap;html=1;fontSize=12;glass=0;strokeWidth=1;shadow=0;fillColor=#ffe6cc;strokeColor=#d79b00;labelBackgroundColor=none;" parent="h8BnkVaSkNDdI-Pgu3pd-303" vertex="1">
          <mxGeometry x="30.11" y="43" width="189.78" height="64" as="geometry" />
        </mxCell>
        <mxCell id="h8BnkVaSkNDdI-Pgu3pd-304" value="&lt;font color=&quot;#ffffff&quot; size=&quot;1&quot; data-font-src=&quot;https://fonts.googleapis.com/css?family=Arial&quot; face=&quot;Arial&quot; style=&quot;&quot;&gt;&lt;div style=&quot;line-height: 10%; vertical-align: top;&quot;&gt;&lt;p style=&quot;line-height: 10%;&quot;&gt;&lt;b style=&quot;border-color: var(--border-color); background-color: initial; font-size: 22px;&quot;&gt;EOFs and PCs&lt;span style=&quot;font-size: 16px;&quot;&gt;&amp;nbsp;&lt;/span&gt;&lt;/b&gt;&lt;/p&gt;&lt;p style=&quot;line-height: 10%;&quot;&gt;&lt;b style=&quot;border-color: var(--border-color); background-color: initial;&quot;&gt;&amp;nbsp;&lt;/b&gt;&lt;b style=&quot;background-color: initial; border-color: var(--border-color); color: rgb(0, 0, 0);&quot;&gt;&lt;font style=&quot;border-color: var(--border-color); font-size: 15px;&quot; color=&quot;#ffffff&quot;&gt;Fig.6&lt;/font&gt;&lt;/b&gt;&lt;/p&gt;&lt;/div&gt;&lt;/font&gt;" style="ellipse;whiteSpace=wrap;html=1;fillColor=#f4b183;rounded=0;strokeColor=none;align=center;" parent="1" vertex="1">
          <mxGeometry x="1281.97" y="1326" width="214.06" height="79" as="geometry" />
        </mxCell>
        <mxCell id="h8BnkVaSkNDdI-Pgu3pd-309" value="" style="group;strokeColor=none;" parent="1" vertex="1" connectable="0">
          <mxGeometry x="941" y="1292" width="250" height="118" as="geometry" />
        </mxCell>
        <mxCell id="h8BnkVaSkNDdI-Pgu3pd-310" style="edgeStyle=orthogonalEdgeStyle;rounded=0;orthogonalLoop=1;jettySize=auto;html=1;" parent="h8BnkVaSkNDdI-Pgu3pd-309" source="h8BnkVaSkNDdI-Pgu3pd-307" edge="1">
          <mxGeometry relative="1" as="geometry">
            <mxPoint x="450" y="-132" as="targetPoint" />
            <Array as="points">
              <mxPoint x="125" y="-132" />
              <mxPoint x="450" y="-132" />
            </Array>
          </mxGeometry>
        </mxCell>
        <mxCell id="h8BnkVaSkNDdI-Pgu3pd-307" value="&lt;b style=&quot;border-color: var(--border-color); font-family: Arial;&quot;&gt;&lt;font style=&quot;border-color: var(--border-color); font-size: 22px;&quot;&gt;Stacking&lt;/font&gt;&lt;/b&gt;" style="text;whiteSpace=wrap;html=1;align=center;strokeColor=#FFB570;dashed=1;strokeWidth=1.5;" parent="h8BnkVaSkNDdI-Pgu3pd-309" vertex="1">
          <mxGeometry width="250" height="118" as="geometry" />
        </mxCell>
        <mxCell id="h8BnkVaSkNDdI-Pgu3pd-308" value="&lt;font size=&quot;1&quot; style=&quot;&quot;&gt;&lt;b style=&quot;font-size: 20px;&quot;&gt;Stacking in chronological order&lt;/b&gt;&lt;/font&gt;&lt;font color=&quot;#ffffff&quot; style=&quot;font-size: 20px;&quot; face=&quot;Times New Roman&quot;&gt;&lt;b&gt;&lt;br&gt;&lt;/b&gt;&lt;/font&gt;" style="rounded=1;whiteSpace=wrap;html=1;fontSize=12;glass=0;strokeWidth=1;shadow=0;fillColor=#ffe6cc;strokeColor=#d79b00;labelBackgroundColor=none;" parent="h8BnkVaSkNDdI-Pgu3pd-309" vertex="1">
          <mxGeometry x="20.049999999999997" y="40" width="209.89" height="64" as="geometry" />
        </mxCell>
      </root>
    </mxGraphModel>
  </diagram>
</mxfile>
